G75*
%MOIN*%
%OFA0B0*%
%FSLAX24Y24*%
%IPPOS*%
%LPD*%
%AMOC8*
5,1,8,0,0,1.08239X$1,22.5*
%
%ADD10C,0.1850*%
%ADD11C,0.1182*%
%ADD12R,0.0820X0.0820*%
%ADD13C,0.0820*%
%ADD14C,0.0600*%
%ADD15OC8,0.0600*%
%ADD16OC8,0.0700*%
%ADD17C,0.0700*%
%ADD18C,0.0740*%
%ADD19R,0.1580X0.1580*%
%ADD20R,0.0674X0.0674*%
%ADD21C,0.0780*%
%ADD22C,0.0680*%
%ADD23OC8,0.0680*%
%ADD24C,0.1265*%
%ADD25C,0.1280*%
%ADD26C,0.0516*%
%ADD27C,0.0480*%
%ADD28C,0.0520*%
%ADD29OC8,0.0516*%
D10*
X022260Y008393D03*
X040260Y008393D03*
X040260Y032893D03*
X022260Y032893D03*
D11*
X016996Y028996D03*
X016996Y016791D03*
X033260Y007393D03*
X046523Y016791D03*
X046523Y028996D03*
D12*
X019161Y028996D03*
D13*
X020161Y028996D03*
X021161Y028996D03*
X022161Y028996D03*
X023161Y028996D03*
X024161Y028996D03*
X025161Y028996D03*
X026161Y028996D03*
X027161Y028996D03*
X028161Y028996D03*
X029161Y028996D03*
X030161Y028996D03*
X031161Y028996D03*
X032161Y028996D03*
X033161Y028996D03*
X034161Y028996D03*
X028760Y026893D03*
X027760Y026893D03*
X026760Y026893D03*
D14*
X026760Y025153D02*
X026760Y024633D01*
X027760Y024633D02*
X027760Y025153D01*
X028760Y025153D02*
X028760Y024633D01*
X029760Y024633D02*
X029760Y025153D01*
X030760Y025153D02*
X030760Y024633D01*
X031760Y024633D02*
X031760Y025153D01*
X032760Y025153D02*
X032760Y024633D01*
X033760Y024633D02*
X033760Y025153D01*
X034760Y025153D02*
X034760Y024633D01*
X035760Y024633D02*
X035760Y025153D01*
X035760Y022153D02*
X035760Y021633D01*
X034760Y021633D02*
X034760Y022153D01*
X033760Y022153D02*
X033760Y021633D01*
X032760Y021633D02*
X032760Y022153D01*
X031760Y022153D02*
X031760Y021633D01*
X030760Y021633D02*
X030760Y022153D01*
X029760Y022153D02*
X029760Y021633D01*
X028760Y021633D02*
X028760Y022153D01*
X027760Y022153D02*
X027760Y021633D01*
X026760Y021633D02*
X026760Y022153D01*
X025760Y022153D02*
X025760Y021633D01*
X024760Y021633D02*
X024760Y022153D01*
X023760Y022153D02*
X023760Y021633D01*
X022760Y021633D02*
X022760Y022153D01*
X022760Y024633D02*
X022760Y025153D01*
X023760Y025153D02*
X023760Y024633D01*
X024760Y024633D02*
X024760Y025153D01*
X025760Y025153D02*
X025760Y024633D01*
D15*
X028760Y020393D03*
X029760Y020393D03*
X037760Y021393D03*
X038760Y021393D03*
X038760Y024893D03*
X037760Y024893D03*
X039260Y026893D03*
X036260Y026893D03*
X025760Y014393D03*
X022760Y014393D03*
X015760Y017893D03*
X014260Y017893D03*
X012760Y017893D03*
X012760Y020893D03*
X014260Y020893D03*
X015760Y020893D03*
X014260Y022393D03*
X012260Y022393D03*
X012260Y025393D03*
X012260Y026393D03*
X014260Y026393D03*
X014260Y025393D03*
X018760Y027393D03*
X019760Y027393D03*
X014260Y029393D03*
X012260Y029393D03*
D16*
X031760Y014393D03*
D17*
X030760Y014393D03*
D18*
X037760Y014893D03*
X041760Y014893D03*
X014744Y015149D03*
X013760Y015149D03*
X012775Y015149D03*
X010760Y015893D03*
X010760Y019893D03*
D19*
X011988Y012393D03*
X015531Y012393D03*
D20*
X045760Y021393D03*
D21*
X045760Y022393D03*
X045760Y023393D03*
X045760Y024393D03*
X045760Y025393D03*
X045760Y026393D03*
D22*
X009060Y010893D02*
X008460Y010893D01*
X008460Y011893D02*
X009060Y011893D01*
X009060Y012893D02*
X008460Y012893D01*
X008460Y013893D02*
X009060Y013893D01*
X022180Y012283D02*
X022780Y012283D01*
X024740Y012283D02*
X025340Y012283D01*
X027180Y012283D02*
X027780Y012283D01*
X029740Y012283D02*
X030340Y012283D01*
X032180Y012283D02*
X032780Y012283D01*
X034740Y012283D02*
X035340Y012283D01*
X037180Y012283D02*
X037780Y012283D01*
X039740Y012283D02*
X040340Y012283D01*
X040340Y010503D02*
X039740Y010503D01*
X037780Y010503D02*
X037180Y010503D01*
X035340Y010503D02*
X034740Y010503D01*
X032780Y010503D02*
X032180Y010503D01*
X030340Y010503D02*
X029740Y010503D01*
X027780Y010503D02*
X027180Y010503D01*
X025340Y010503D02*
X024740Y010503D01*
X022780Y010503D02*
X022180Y010503D01*
D23*
X009760Y015893D03*
X008760Y015893D03*
X008760Y016893D03*
X009760Y016893D03*
X009760Y017893D03*
X008760Y017893D03*
X008760Y019893D03*
X009760Y019893D03*
X009760Y020893D03*
X009760Y021893D03*
X008760Y021893D03*
X008760Y020893D03*
X008760Y023893D03*
X009760Y023893D03*
X009760Y024893D03*
X008760Y024893D03*
X008760Y025893D03*
X009760Y025893D03*
X009760Y027893D03*
X009760Y028893D03*
X008760Y028893D03*
X008760Y027893D03*
X008760Y029893D03*
X009760Y029893D03*
D24*
X035010Y008486D02*
X035010Y007301D01*
X036510Y007301D02*
X036510Y008486D01*
D25*
X041910Y012293D02*
X041910Y013493D01*
X043760Y013493D02*
X043760Y012293D01*
X045610Y012293D02*
X045610Y013493D01*
D26*
X041760Y009393D03*
X039260Y016393D03*
X033260Y026393D03*
X033760Y027393D03*
X030260Y026393D03*
X037260Y028393D03*
X010760Y026893D03*
X010760Y024893D03*
D27*
X015260Y022893D03*
X019760Y023393D03*
X019760Y021893D03*
X014760Y018393D03*
X013260Y018893D03*
X023760Y028393D03*
X029760Y023393D03*
X026760Y019393D03*
X025760Y017393D03*
X029760Y016393D03*
X033260Y016393D03*
X033760Y017393D03*
X035760Y014893D03*
X035260Y013393D03*
X036760Y019393D03*
X038760Y023393D03*
X015260Y029893D03*
D28*
X030260Y018893D03*
D29*
X031260Y020893D03*
X032760Y018393D03*
X020760Y019893D03*
X019760Y018393D03*
X016760Y022893D03*
M02*
