G75*
%MOIN*%
%OFA0B0*%
%FSLAX24Y24*%
%IPPOS*%
%LPD*%
%AMOC8*
5,1,8,0,0,1.08239X$1,22.5*
%
%ADD10C,0.0050*%
%ADD11C,0.0080*%
D10*
X045260Y020893D02*
X046260Y020893D01*
X046260Y026893D01*
X045260Y026893D01*
X045260Y020893D01*
X046385Y021018D02*
X046385Y021153D01*
X046430Y021198D01*
X046610Y021198D01*
X046655Y021153D01*
X046655Y021018D01*
X046385Y021018D01*
X046385Y021403D02*
X046655Y021403D01*
X046655Y021313D02*
X046655Y021493D01*
X046655Y021608D02*
X046385Y021608D01*
X046475Y021608D02*
X046475Y021743D01*
X046520Y021788D01*
X046610Y021788D01*
X046655Y021743D01*
X046655Y021608D01*
X046475Y021698D02*
X046385Y021788D01*
X046385Y022108D02*
X046655Y022108D01*
X046655Y022018D02*
X046655Y022198D01*
X046655Y022313D02*
X046385Y022493D01*
X046430Y022608D02*
X046385Y022653D01*
X046385Y022743D01*
X046430Y022788D01*
X046610Y022788D01*
X046655Y022743D01*
X046655Y022653D01*
X046610Y022608D01*
X046430Y022608D01*
X046655Y022493D02*
X046385Y022313D01*
X046385Y023018D02*
X046655Y023018D01*
X046655Y023153D01*
X046610Y023198D01*
X046520Y023198D01*
X046475Y023153D01*
X046475Y023018D01*
X046475Y023108D02*
X046385Y023198D01*
X046385Y023313D02*
X046655Y023493D01*
X046655Y023608D02*
X046655Y023698D01*
X046655Y023653D02*
X046385Y023653D01*
X046385Y023608D02*
X046385Y023698D01*
X046385Y023493D02*
X046655Y023313D01*
X046655Y024018D02*
X046475Y024018D01*
X046385Y024108D01*
X046475Y024198D01*
X046655Y024198D01*
X046610Y024313D02*
X046430Y024313D01*
X046385Y024358D01*
X046385Y024448D01*
X046430Y024493D01*
X046430Y024608D02*
X046385Y024653D01*
X046385Y024743D01*
X046430Y024788D01*
X046610Y024788D02*
X046655Y024743D01*
X046655Y024653D01*
X046610Y024608D01*
X046430Y024608D01*
X046610Y024493D02*
X046655Y024448D01*
X046655Y024358D01*
X046610Y024313D01*
X046610Y025018D02*
X046430Y025018D01*
X046385Y025063D01*
X046385Y025153D01*
X046430Y025198D01*
X046610Y025198D02*
X046655Y025153D01*
X046655Y025063D01*
X046610Y025018D01*
X046655Y025313D02*
X046655Y025493D01*
X046655Y025403D02*
X046385Y025403D01*
X046430Y025608D02*
X046385Y025653D01*
X046385Y025743D01*
X046430Y025788D01*
X046475Y025788D01*
X046520Y025743D01*
X046520Y025653D01*
X046565Y025608D01*
X046610Y025608D01*
X046655Y025653D01*
X046655Y025743D01*
X046610Y025788D01*
X046610Y026018D02*
X046430Y026018D01*
X046385Y026063D01*
X046385Y026153D01*
X046430Y026198D01*
X046520Y026198D01*
X046520Y026108D01*
X046610Y026018D02*
X046655Y026063D01*
X046655Y026153D01*
X046610Y026198D01*
X046655Y026313D02*
X046385Y026493D01*
X046655Y026493D01*
X046655Y026608D02*
X046655Y026743D01*
X046610Y026788D01*
X046430Y026788D01*
X046385Y026743D01*
X046385Y026608D01*
X046655Y026608D01*
X046655Y026313D02*
X046385Y026313D01*
D11*
X046290Y027033D02*
X046010Y027033D01*
X045830Y027033D02*
X045830Y027454D01*
X045760Y027243D02*
X045550Y027033D01*
X045830Y027173D02*
X045550Y027454D01*
X046290Y027454D02*
X046290Y027033D01*
X046470Y027103D02*
X046541Y027033D01*
X046751Y027033D01*
X046751Y027454D01*
X046541Y027454D01*
X046470Y027384D01*
X046470Y027314D01*
X046541Y027243D01*
X046751Y027243D01*
X046541Y027243D02*
X046470Y027173D01*
X046470Y027103D01*
X046541Y020754D02*
X046681Y020754D01*
X046751Y020684D01*
X046751Y020403D01*
X046681Y020333D01*
X046541Y020333D01*
X046470Y020403D01*
X046470Y020543D01*
X046611Y020543D01*
X046470Y020684D02*
X046541Y020754D01*
X046290Y020754D02*
X046080Y020754D01*
X046010Y020684D01*
X046010Y020543D01*
X046080Y020473D01*
X046290Y020473D01*
X046290Y020333D02*
X046290Y020754D01*
X046150Y020473D02*
X046010Y020333D01*
X045830Y020333D02*
X045830Y020754D01*
X045550Y020333D01*
X045550Y020754D01*
M02*
