G75*
%MOIN*%
%OFA0B0*%
%FSLAX24Y24*%
%IPPOS*%
%LPD*%
%AMOC8*
5,1,8,0,0,1.08239X$1,22.5*
%
%ADD10C,0.0070*%
%ADD11C,0.0080*%
%ADD12C,0.0060*%
%ADD13C,0.0100*%
%ADD14C,0.0040*%
%ADD15R,0.0200X0.1000*%
%ADD16R,0.0750X0.0300*%
%ADD17R,0.0300X0.0340*%
%ADD18C,0.0020*%
%ADD19C,0.0300*%
%ADD20R,0.0200X0.0300*%
%ADD21R,0.0400X0.0300*%
%ADD22R,0.0300X0.0300*%
%ADD23R,0.1000X0.0200*%
%ADD24R,0.0300X0.0750*%
%ADD25C,0.0050*%
D10*
X029593Y014394D02*
X030120Y014394D01*
X029857Y014657D02*
X029857Y014130D01*
D11*
X028660Y027593D02*
X028481Y027611D01*
X028301Y027625D01*
X028121Y027635D01*
X027940Y027641D01*
X027760Y027643D01*
X027580Y027641D01*
X027399Y027635D01*
X027219Y027625D01*
X027039Y027611D01*
X026860Y027593D01*
X026808Y027583D01*
X026757Y027569D01*
X026707Y027551D01*
X026659Y027530D01*
X026612Y027505D01*
X026568Y027477D01*
X026525Y027445D01*
X026485Y027411D01*
X026448Y027373D01*
X026414Y027333D01*
X026382Y027291D01*
X026354Y027246D01*
X026330Y027199D01*
X026309Y027151D01*
X026291Y027101D01*
X026278Y027050D01*
X026268Y026998D01*
X026262Y026946D01*
X026260Y026893D01*
X026262Y026840D01*
X026268Y026788D01*
X026278Y026736D01*
X026291Y026685D01*
X026309Y026635D01*
X026330Y026587D01*
X026354Y026540D01*
X026382Y026495D01*
X026414Y026453D01*
X026448Y026413D01*
X026485Y026375D01*
X026525Y026341D01*
X026568Y026309D01*
X026612Y026281D01*
X026659Y026256D01*
X026707Y026235D01*
X026757Y026217D01*
X026808Y026203D01*
X026860Y026193D01*
X028659Y026193D02*
X028711Y026203D01*
X028762Y026217D01*
X028812Y026235D01*
X028860Y026256D01*
X028907Y026281D01*
X028951Y026309D01*
X028994Y026341D01*
X029034Y026375D01*
X029071Y026413D01*
X029105Y026453D01*
X029137Y026495D01*
X029165Y026540D01*
X029189Y026587D01*
X029210Y026635D01*
X029228Y026685D01*
X029241Y026736D01*
X029251Y026788D01*
X029257Y026840D01*
X029259Y026893D01*
X029257Y026946D01*
X029251Y026998D01*
X029241Y027050D01*
X029228Y027101D01*
X029210Y027151D01*
X029189Y027199D01*
X029165Y027246D01*
X029137Y027291D01*
X029105Y027333D01*
X029071Y027373D01*
X029034Y027411D01*
X028994Y027445D01*
X028951Y027477D01*
X028907Y027505D01*
X028860Y027530D01*
X028812Y027551D01*
X028762Y027569D01*
X028711Y027583D01*
X028659Y027593D01*
X022360Y024593D02*
X022260Y024593D01*
X022260Y022193D01*
X022360Y022193D01*
X017724Y017716D02*
X017724Y028070D01*
X045795Y028070D01*
X045795Y017716D01*
X017724Y017716D01*
X016011Y015807D02*
X016011Y029980D01*
X047508Y029980D01*
X047508Y015807D01*
X016011Y015807D01*
X015374Y014716D02*
X015374Y014500D01*
X015590Y014500D01*
X015590Y013240D01*
X015374Y014716D02*
X012145Y014716D01*
X012145Y014500D01*
X011929Y014500D01*
X011929Y013240D01*
X012835Y012393D02*
X012837Y012453D01*
X012843Y012514D01*
X012853Y012573D01*
X012867Y012632D01*
X012884Y012690D01*
X012905Y012747D01*
X012930Y012802D01*
X012959Y012855D01*
X012991Y012907D01*
X013026Y012956D01*
X013065Y013003D01*
X013106Y013047D01*
X013150Y013088D01*
X013197Y013127D01*
X013246Y013162D01*
X013297Y013194D01*
X013351Y013223D01*
X013406Y013248D01*
X013463Y013269D01*
X013521Y013286D01*
X013580Y013300D01*
X013639Y013310D01*
X013700Y013316D01*
X013760Y013318D01*
X013820Y013316D01*
X013881Y013310D01*
X013940Y013300D01*
X013999Y013286D01*
X014057Y013269D01*
X014114Y013248D01*
X014169Y013223D01*
X014222Y013194D01*
X014274Y013162D01*
X014323Y013127D01*
X014370Y013088D01*
X014414Y013047D01*
X014455Y013003D01*
X014494Y012956D01*
X014529Y012907D01*
X014561Y012856D01*
X014590Y012802D01*
X014615Y012747D01*
X014636Y012690D01*
X014653Y012632D01*
X014667Y012573D01*
X014677Y012514D01*
X014683Y012453D01*
X014685Y012393D01*
X014683Y012333D01*
X014677Y012272D01*
X014667Y012213D01*
X014653Y012154D01*
X014636Y012096D01*
X014615Y012039D01*
X014590Y011984D01*
X014561Y011931D01*
X014529Y011879D01*
X014494Y011830D01*
X014455Y011783D01*
X014414Y011739D01*
X014370Y011698D01*
X014323Y011659D01*
X014274Y011624D01*
X014223Y011592D01*
X014169Y011563D01*
X014114Y011538D01*
X014057Y011517D01*
X013999Y011500D01*
X013940Y011486D01*
X013881Y011476D01*
X013820Y011470D01*
X013760Y011468D01*
X013700Y011470D01*
X013639Y011476D01*
X013580Y011486D01*
X013521Y011500D01*
X013463Y011517D01*
X013406Y011538D01*
X013351Y011563D01*
X013298Y011592D01*
X013246Y011624D01*
X013197Y011659D01*
X013150Y011698D01*
X013106Y011739D01*
X013065Y011783D01*
X013026Y011830D01*
X012991Y011879D01*
X012959Y011930D01*
X012930Y011984D01*
X012905Y012039D01*
X012884Y012096D01*
X012867Y012154D01*
X012853Y012213D01*
X012843Y012272D01*
X012837Y012333D01*
X012835Y012393D01*
X012618Y012393D02*
X012620Y012460D01*
X012626Y012527D01*
X012636Y012593D01*
X012649Y012659D01*
X012667Y012724D01*
X012688Y012787D01*
X012713Y012849D01*
X012742Y012910D01*
X012774Y012969D01*
X012809Y013026D01*
X012848Y013080D01*
X012890Y013133D01*
X012935Y013183D01*
X012983Y013230D01*
X013033Y013274D01*
X013086Y013315D01*
X013141Y013353D01*
X013199Y013388D01*
X013258Y013419D01*
X013319Y013446D01*
X013382Y013471D01*
X013446Y013491D01*
X013511Y013507D01*
X013576Y013520D01*
X013643Y013529D01*
X013710Y013534D01*
X013777Y013535D01*
X013844Y013532D01*
X013910Y013525D01*
X013977Y013514D01*
X014042Y013500D01*
X014107Y013481D01*
X014170Y013459D01*
X014232Y013433D01*
X014292Y013404D01*
X014350Y013371D01*
X014407Y013334D01*
X014461Y013295D01*
X014512Y013252D01*
X014562Y013206D01*
X014608Y013158D01*
X014651Y013107D01*
X014692Y013053D01*
X014729Y012998D01*
X014763Y012940D01*
X014793Y012880D01*
X014820Y012818D01*
X014843Y012755D01*
X014862Y012691D01*
X014878Y012626D01*
X014890Y012560D01*
X014898Y012493D01*
X014902Y012427D01*
X014902Y012359D01*
X014898Y012293D01*
X014890Y012226D01*
X014878Y012160D01*
X014862Y012095D01*
X014843Y012031D01*
X014820Y011968D01*
X014793Y011906D01*
X014763Y011846D01*
X014729Y011788D01*
X014692Y011733D01*
X014651Y011679D01*
X014608Y011628D01*
X014562Y011580D01*
X014512Y011534D01*
X014461Y011491D01*
X014407Y011452D01*
X014350Y011415D01*
X014292Y011382D01*
X014232Y011353D01*
X014170Y011327D01*
X014107Y011305D01*
X014042Y011286D01*
X013977Y011272D01*
X013910Y011261D01*
X013844Y011254D01*
X013777Y011251D01*
X013710Y011252D01*
X013643Y011257D01*
X013576Y011266D01*
X013511Y011279D01*
X013446Y011295D01*
X013382Y011315D01*
X013319Y011340D01*
X013258Y011367D01*
X013199Y011398D01*
X013141Y011433D01*
X013086Y011471D01*
X013033Y011512D01*
X012983Y011556D01*
X012935Y011603D01*
X012890Y011653D01*
X012848Y011706D01*
X012809Y011760D01*
X012774Y011817D01*
X012742Y011876D01*
X012713Y011937D01*
X012688Y011999D01*
X012667Y012062D01*
X012649Y012127D01*
X012636Y012193D01*
X012626Y012259D01*
X012620Y012326D01*
X012618Y012393D01*
X011929Y011350D02*
X011929Y010484D01*
X012145Y010484D01*
X012145Y010267D01*
X015374Y010267D01*
X015374Y010484D01*
X015590Y010484D01*
X015590Y011350D01*
X036160Y022193D02*
X036260Y022193D01*
X036260Y022893D01*
X036216Y022895D01*
X036173Y022901D01*
X036131Y022910D01*
X036089Y022923D01*
X036049Y022940D01*
X036010Y022960D01*
X035973Y022983D01*
X035939Y023010D01*
X035906Y023039D01*
X035877Y023072D01*
X035850Y023106D01*
X035827Y023143D01*
X035807Y023182D01*
X035790Y023222D01*
X035777Y023264D01*
X035768Y023306D01*
X035762Y023349D01*
X035760Y023393D01*
X035762Y023437D01*
X035768Y023480D01*
X035777Y023522D01*
X035790Y023564D01*
X035807Y023604D01*
X035827Y023643D01*
X035850Y023680D01*
X035877Y023714D01*
X035906Y023747D01*
X035939Y023776D01*
X035973Y023803D01*
X036010Y023826D01*
X036049Y023846D01*
X036089Y023863D01*
X036131Y023876D01*
X036173Y023885D01*
X036216Y023891D01*
X036260Y023893D01*
X036260Y024593D01*
X036160Y024593D01*
X028660Y026193D02*
X028481Y026175D01*
X028301Y026161D01*
X028121Y026151D01*
X027940Y026145D01*
X027760Y026143D01*
X027580Y026145D01*
X027399Y026151D01*
X027219Y026161D01*
X027039Y026175D01*
X026860Y026193D01*
X043410Y010683D02*
X045770Y010683D01*
X043410Y010683D02*
X043410Y008103D01*
X045770Y008103D01*
D12*
X008010Y010393D02*
X007010Y010393D01*
X007010Y011393D01*
X007010Y012393D01*
X007010Y013393D01*
X007010Y014393D01*
X008010Y014393D01*
X008010Y013393D01*
X007010Y013393D01*
X008010Y013393D02*
X008010Y012393D01*
X007010Y012393D01*
X008010Y012393D02*
X008010Y011393D01*
X007010Y011393D01*
X008010Y011393D02*
X008010Y010393D01*
X008010Y015393D02*
X007010Y015393D01*
X007010Y016393D01*
X007010Y017393D01*
X007010Y018393D01*
X008010Y018393D01*
X008010Y017393D01*
X007010Y017393D01*
X008010Y017393D02*
X008010Y016393D01*
X007010Y016393D01*
X008010Y016393D02*
X008010Y015393D01*
X010260Y017093D02*
X011260Y017093D01*
X011260Y018693D01*
X010260Y018693D01*
X010260Y017093D01*
X010510Y017493D02*
X010760Y017893D01*
X010510Y017893D01*
X010760Y017893D02*
X011010Y017493D01*
X010510Y017493D01*
X010760Y017293D02*
X010760Y017893D01*
X011010Y017893D01*
X010760Y017893D02*
X010760Y018143D01*
X012310Y018243D02*
X012310Y018393D01*
X012360Y018443D01*
X012360Y020343D01*
X012310Y020393D01*
X012310Y020543D01*
X012312Y020560D01*
X012316Y020577D01*
X012323Y020593D01*
X012333Y020607D01*
X012346Y020620D01*
X012360Y020630D01*
X012376Y020637D01*
X012393Y020641D01*
X012410Y020643D01*
X013110Y020643D02*
X013127Y020641D01*
X013144Y020637D01*
X013160Y020630D01*
X013174Y020620D01*
X013187Y020607D01*
X013197Y020593D01*
X013204Y020577D01*
X013208Y020560D01*
X013210Y020543D01*
X013210Y020393D01*
X013160Y020343D01*
X013160Y018443D01*
X013210Y018393D01*
X013210Y018243D01*
X013208Y018226D01*
X013204Y018209D01*
X013197Y018193D01*
X013187Y018179D01*
X013174Y018166D01*
X013160Y018156D01*
X013144Y018149D01*
X013127Y018145D01*
X013110Y018143D01*
X013810Y018243D02*
X013810Y018393D01*
X013860Y018443D01*
X013860Y020343D01*
X013810Y020393D01*
X013810Y020543D01*
X013812Y020560D01*
X013816Y020577D01*
X013823Y020593D01*
X013833Y020607D01*
X013846Y020620D01*
X013860Y020630D01*
X013876Y020637D01*
X013893Y020641D01*
X013910Y020643D01*
X014610Y020643D02*
X014627Y020641D01*
X014644Y020637D01*
X014660Y020630D01*
X014674Y020620D01*
X014687Y020607D01*
X014697Y020593D01*
X014704Y020577D01*
X014708Y020560D01*
X014710Y020543D01*
X014710Y020393D01*
X014660Y020343D01*
X014660Y018443D01*
X014710Y018393D01*
X014710Y018243D01*
X014708Y018226D01*
X014704Y018209D01*
X014697Y018193D01*
X014687Y018179D01*
X014674Y018166D01*
X014660Y018156D01*
X014644Y018149D01*
X014627Y018145D01*
X014610Y018143D01*
X015310Y018243D02*
X015310Y018393D01*
X015360Y018443D01*
X015360Y020343D01*
X015310Y020393D01*
X015310Y020543D01*
X015312Y020560D01*
X015316Y020577D01*
X015323Y020593D01*
X015333Y020607D01*
X015346Y020620D01*
X015360Y020630D01*
X015376Y020637D01*
X015393Y020641D01*
X015410Y020643D01*
X016110Y020643D02*
X016127Y020641D01*
X016144Y020637D01*
X016160Y020630D01*
X016174Y020620D01*
X016187Y020607D01*
X016197Y020593D01*
X016204Y020577D01*
X016208Y020560D01*
X016210Y020543D01*
X016210Y020393D01*
X016160Y020343D01*
X016160Y018443D01*
X016210Y018393D01*
X016210Y018243D01*
X016208Y018226D01*
X016204Y018209D01*
X016197Y018193D01*
X016187Y018179D01*
X016174Y018166D01*
X016160Y018156D01*
X016144Y018149D01*
X016127Y018145D01*
X016110Y018143D01*
X015410Y018143D02*
X015393Y018145D01*
X015376Y018149D01*
X015360Y018156D01*
X015346Y018166D01*
X015333Y018179D01*
X015323Y018193D01*
X015316Y018209D01*
X015312Y018226D01*
X015310Y018243D01*
X013910Y018143D02*
X013893Y018145D01*
X013876Y018149D01*
X013860Y018156D01*
X013846Y018166D01*
X013833Y018179D01*
X013823Y018193D01*
X013816Y018209D01*
X013812Y018226D01*
X013810Y018243D01*
X012410Y018143D02*
X012393Y018145D01*
X012376Y018149D01*
X012360Y018156D01*
X012346Y018166D01*
X012333Y018179D01*
X012323Y018193D01*
X012316Y018209D01*
X012312Y018226D01*
X012310Y018243D01*
X008010Y019393D02*
X007010Y019393D01*
X007010Y020393D01*
X007010Y021393D01*
X007010Y022393D01*
X008010Y022393D01*
X008010Y021393D01*
X007010Y021393D01*
X008010Y021393D02*
X008010Y020393D01*
X007010Y020393D01*
X008010Y020393D02*
X008010Y019393D01*
X011810Y022743D02*
X011810Y022893D01*
X011860Y022943D01*
X011860Y024843D01*
X011810Y024893D01*
X011810Y025043D01*
X011812Y025060D01*
X011816Y025077D01*
X011823Y025093D01*
X011833Y025107D01*
X011846Y025120D01*
X011860Y025130D01*
X011876Y025137D01*
X011893Y025141D01*
X011910Y025143D01*
X012610Y025143D02*
X012627Y025141D01*
X012644Y025137D01*
X012660Y025130D01*
X012674Y025120D01*
X012687Y025107D01*
X012697Y025093D01*
X012704Y025077D01*
X012708Y025060D01*
X012710Y025043D01*
X012710Y024893D01*
X012660Y024843D01*
X012660Y022943D01*
X012710Y022893D01*
X012710Y022743D01*
X012708Y022726D01*
X012704Y022709D01*
X012697Y022693D01*
X012687Y022679D01*
X012674Y022666D01*
X012660Y022656D01*
X012644Y022649D01*
X012627Y022645D01*
X012610Y022643D01*
X011910Y022643D02*
X011893Y022645D01*
X011876Y022649D01*
X011860Y022656D01*
X011846Y022666D01*
X011833Y022679D01*
X011823Y022693D01*
X011816Y022709D01*
X011812Y022726D01*
X011810Y022743D01*
X013810Y022743D02*
X013810Y022893D01*
X013860Y022943D01*
X013860Y024843D01*
X013810Y024893D01*
X013810Y025043D01*
X013812Y025060D01*
X013816Y025077D01*
X013823Y025093D01*
X013833Y025107D01*
X013846Y025120D01*
X013860Y025130D01*
X013876Y025137D01*
X013893Y025141D01*
X013910Y025143D01*
X014610Y025143D02*
X014627Y025141D01*
X014644Y025137D01*
X014660Y025130D01*
X014674Y025120D01*
X014687Y025107D01*
X014697Y025093D01*
X014704Y025077D01*
X014708Y025060D01*
X014710Y025043D01*
X014710Y024893D01*
X014660Y024843D01*
X014660Y022943D01*
X014710Y022893D01*
X014710Y022743D01*
X014708Y022726D01*
X014704Y022709D01*
X014697Y022693D01*
X014687Y022679D01*
X014674Y022666D01*
X014660Y022656D01*
X014644Y022649D01*
X014627Y022645D01*
X014610Y022643D01*
X013910Y022643D02*
X013893Y022645D01*
X013876Y022649D01*
X013860Y022656D01*
X013846Y022666D01*
X013833Y022679D01*
X013823Y022693D01*
X013816Y022709D01*
X013812Y022726D01*
X013810Y022743D01*
X013810Y026743D02*
X013810Y026893D01*
X013860Y026943D01*
X013860Y028843D01*
X013810Y028893D01*
X013810Y029043D01*
X013812Y029060D01*
X013816Y029077D01*
X013823Y029093D01*
X013833Y029107D01*
X013846Y029120D01*
X013860Y029130D01*
X013876Y029137D01*
X013893Y029141D01*
X013910Y029143D01*
X014610Y029143D02*
X014627Y029141D01*
X014644Y029137D01*
X014660Y029130D01*
X014674Y029120D01*
X014687Y029107D01*
X014697Y029093D01*
X014704Y029077D01*
X014708Y029060D01*
X014710Y029043D01*
X014710Y028893D01*
X014660Y028843D01*
X014660Y026943D01*
X014710Y026893D01*
X014710Y026743D01*
X014708Y026726D01*
X014704Y026709D01*
X014697Y026693D01*
X014687Y026679D01*
X014674Y026666D01*
X014660Y026656D01*
X014644Y026649D01*
X014627Y026645D01*
X014610Y026643D01*
X013910Y026643D02*
X013893Y026645D01*
X013876Y026649D01*
X013860Y026656D01*
X013846Y026666D01*
X013833Y026679D01*
X013823Y026693D01*
X013816Y026709D01*
X013812Y026726D01*
X013810Y026743D01*
X012710Y026743D02*
X012710Y026893D01*
X012660Y026943D01*
X012660Y028843D01*
X012710Y028893D01*
X012710Y029043D01*
X012708Y029060D01*
X012704Y029077D01*
X012697Y029093D01*
X012687Y029107D01*
X012674Y029120D01*
X012660Y029130D01*
X012644Y029137D01*
X012627Y029141D01*
X012610Y029143D01*
X011910Y029143D02*
X011893Y029141D01*
X011876Y029137D01*
X011860Y029130D01*
X011846Y029120D01*
X011833Y029107D01*
X011823Y029093D01*
X011816Y029077D01*
X011812Y029060D01*
X011810Y029043D01*
X011810Y028893D01*
X011860Y028843D01*
X011860Y026943D01*
X011810Y026893D01*
X011810Y026743D01*
X011812Y026726D01*
X011816Y026709D01*
X011823Y026693D01*
X011833Y026679D01*
X011846Y026666D01*
X011860Y026656D01*
X011876Y026649D01*
X011893Y026645D01*
X011910Y026643D01*
X012610Y026643D02*
X012627Y026645D01*
X012644Y026649D01*
X012660Y026656D01*
X012674Y026666D01*
X012687Y026679D01*
X012697Y026693D01*
X012704Y026709D01*
X012708Y026726D01*
X012710Y026743D01*
X008010Y026393D02*
X008010Y025393D01*
X007010Y025393D01*
X007010Y026393D01*
X008010Y026393D01*
X008010Y027393D02*
X007010Y027393D01*
X007010Y028393D01*
X007010Y029393D01*
X007010Y030393D01*
X008010Y030393D01*
X008010Y029393D01*
X007010Y029393D01*
X008010Y029393D02*
X008010Y028393D01*
X007010Y028393D01*
X008010Y028393D02*
X008010Y027393D01*
X008010Y025393D02*
X008010Y024393D01*
X007010Y024393D01*
X007010Y025393D01*
X007010Y024393D02*
X007010Y023393D01*
X008010Y023393D01*
X008010Y024393D01*
X018310Y026993D02*
X018310Y027793D01*
X018312Y027810D01*
X018316Y027827D01*
X018323Y027843D01*
X018333Y027857D01*
X018346Y027870D01*
X018360Y027880D01*
X018376Y027887D01*
X018393Y027891D01*
X018410Y027893D01*
X020110Y027893D01*
X020127Y027891D01*
X020144Y027887D01*
X020160Y027880D01*
X020174Y027870D01*
X020187Y027857D01*
X020197Y027843D01*
X020204Y027827D01*
X020208Y027810D01*
X020210Y027793D01*
X020210Y026993D01*
X020208Y026976D01*
X020204Y026959D01*
X020197Y026943D01*
X020187Y026929D01*
X020174Y026916D01*
X020160Y026906D01*
X020144Y026899D01*
X020127Y026895D01*
X020110Y026893D01*
X018410Y026893D01*
X018393Y026895D01*
X018376Y026899D01*
X018360Y026906D01*
X018346Y026916D01*
X018333Y026929D01*
X018323Y026943D01*
X018316Y026959D01*
X018312Y026976D01*
X018310Y026993D01*
X019110Y027393D02*
X019160Y027393D01*
X019360Y027393D02*
X019410Y027393D01*
X028310Y020793D02*
X028310Y019993D01*
X028312Y019976D01*
X028316Y019959D01*
X028323Y019943D01*
X028333Y019929D01*
X028346Y019916D01*
X028360Y019906D01*
X028376Y019899D01*
X028393Y019895D01*
X028410Y019893D01*
X030110Y019893D01*
X030127Y019895D01*
X030144Y019899D01*
X030160Y019906D01*
X030174Y019916D01*
X030187Y019929D01*
X030197Y019943D01*
X030204Y019959D01*
X030208Y019976D01*
X030210Y019993D01*
X030210Y020793D01*
X030208Y020810D01*
X030204Y020827D01*
X030197Y020843D01*
X030187Y020857D01*
X030174Y020870D01*
X030160Y020880D01*
X030144Y020887D01*
X030127Y020891D01*
X030110Y020893D01*
X028410Y020893D01*
X028393Y020891D01*
X028376Y020887D01*
X028360Y020880D01*
X028346Y020870D01*
X028333Y020857D01*
X028323Y020843D01*
X028316Y020827D01*
X028312Y020810D01*
X028310Y020793D01*
X029110Y020393D02*
X029160Y020393D01*
X029360Y020393D02*
X029410Y020393D01*
X030310Y014493D02*
X030310Y014293D01*
X030410Y014393D02*
X030210Y014393D01*
X030160Y014393D02*
X030162Y014459D01*
X030168Y014524D01*
X030178Y014589D01*
X030191Y014654D01*
X030209Y014717D01*
X030230Y014780D01*
X030255Y014840D01*
X030284Y014900D01*
X030316Y014957D01*
X030351Y015013D01*
X030390Y015066D01*
X030432Y015117D01*
X030476Y015165D01*
X030524Y015210D01*
X030574Y015253D01*
X030627Y015292D01*
X030682Y015329D01*
X030739Y015362D01*
X030798Y015391D01*
X030858Y015417D01*
X030920Y015439D01*
X030983Y015458D01*
X031047Y015472D01*
X031112Y015483D01*
X031178Y015490D01*
X031244Y015493D01*
X031309Y015492D01*
X031375Y015487D01*
X031440Y015478D01*
X031505Y015465D01*
X031568Y015449D01*
X031631Y015429D01*
X031692Y015404D01*
X031752Y015377D01*
X031810Y015346D01*
X031866Y015311D01*
X031920Y015273D01*
X031971Y015232D01*
X032020Y015188D01*
X032066Y015141D01*
X032110Y015092D01*
X032150Y015040D01*
X032187Y014985D01*
X032221Y014929D01*
X032251Y014870D01*
X032278Y014810D01*
X032301Y014749D01*
X032320Y014686D01*
X032336Y014622D01*
X032348Y014557D01*
X032356Y014492D01*
X032360Y014426D01*
X032360Y014360D01*
X032356Y014294D01*
X032348Y014229D01*
X032336Y014164D01*
X032320Y014100D01*
X032301Y014037D01*
X032278Y013976D01*
X032251Y013916D01*
X032221Y013857D01*
X032187Y013801D01*
X032150Y013746D01*
X032110Y013694D01*
X032066Y013645D01*
X032020Y013598D01*
X031971Y013554D01*
X031920Y013513D01*
X031866Y013475D01*
X031810Y013440D01*
X031752Y013409D01*
X031692Y013382D01*
X031631Y013357D01*
X031568Y013337D01*
X031505Y013321D01*
X031440Y013308D01*
X031375Y013299D01*
X031309Y013294D01*
X031244Y013293D01*
X031178Y013296D01*
X031112Y013303D01*
X031047Y013314D01*
X030983Y013328D01*
X030920Y013347D01*
X030858Y013369D01*
X030798Y013395D01*
X030739Y013424D01*
X030682Y013457D01*
X030627Y013494D01*
X030574Y013533D01*
X030524Y013576D01*
X030476Y013621D01*
X030432Y013669D01*
X030390Y013720D01*
X030351Y013773D01*
X030316Y013829D01*
X030284Y013886D01*
X030255Y013946D01*
X030230Y014006D01*
X030209Y014069D01*
X030191Y014132D01*
X030178Y014197D01*
X030168Y014262D01*
X030162Y014327D01*
X030160Y014393D01*
X029610Y012593D02*
X029260Y012593D01*
X028310Y012593D01*
X027910Y012593D01*
X027560Y011793D02*
X027560Y011693D01*
X027460Y011693D01*
X027460Y011093D01*
X027560Y011093D01*
X027560Y010993D01*
X027910Y010193D02*
X028260Y010193D01*
X029260Y010193D01*
X029610Y010193D01*
X029960Y010993D02*
X029960Y011093D01*
X030060Y011093D01*
X030060Y011693D01*
X029960Y011693D01*
X029960Y011793D01*
X028660Y011393D02*
X028662Y011413D01*
X028668Y011431D01*
X028677Y011449D01*
X028689Y011464D01*
X028704Y011476D01*
X028722Y011485D01*
X028740Y011491D01*
X028760Y011493D01*
X028780Y011491D01*
X028798Y011485D01*
X028816Y011476D01*
X028831Y011464D01*
X028843Y011449D01*
X028852Y011431D01*
X028858Y011413D01*
X028860Y011393D01*
X028858Y011373D01*
X028852Y011355D01*
X028843Y011337D01*
X028831Y011322D01*
X028816Y011310D01*
X028798Y011301D01*
X028780Y011295D01*
X028760Y011293D01*
X028740Y011295D01*
X028722Y011301D01*
X028704Y011310D01*
X028689Y011322D01*
X028677Y011337D01*
X028668Y011355D01*
X028662Y011373D01*
X028660Y011393D01*
X028060Y011393D02*
X028062Y011445D01*
X028068Y011497D01*
X028078Y011549D01*
X028091Y011599D01*
X028108Y011649D01*
X028129Y011697D01*
X028154Y011743D01*
X028182Y011787D01*
X028213Y011829D01*
X028247Y011869D01*
X028284Y011906D01*
X028324Y011940D01*
X028366Y011971D01*
X028410Y011999D01*
X028456Y012024D01*
X028504Y012045D01*
X028554Y012062D01*
X028604Y012075D01*
X028656Y012085D01*
X028708Y012091D01*
X028760Y012093D01*
X028812Y012091D01*
X028864Y012085D01*
X028916Y012075D01*
X028966Y012062D01*
X029016Y012045D01*
X029064Y012024D01*
X029110Y011999D01*
X029154Y011971D01*
X029196Y011940D01*
X029236Y011906D01*
X029273Y011869D01*
X029307Y011829D01*
X029338Y011787D01*
X029366Y011743D01*
X029391Y011697D01*
X029412Y011649D01*
X029429Y011599D01*
X029442Y011549D01*
X029452Y011497D01*
X029458Y011445D01*
X029460Y011393D01*
X029458Y011341D01*
X029452Y011289D01*
X029442Y011237D01*
X029429Y011187D01*
X029412Y011137D01*
X029391Y011089D01*
X029366Y011043D01*
X029338Y010999D01*
X029307Y010957D01*
X029273Y010917D01*
X029236Y010880D01*
X029196Y010846D01*
X029154Y010815D01*
X029110Y010787D01*
X029064Y010762D01*
X029016Y010741D01*
X028966Y010724D01*
X028916Y010711D01*
X028864Y010701D01*
X028812Y010695D01*
X028760Y010693D01*
X028708Y010695D01*
X028656Y010701D01*
X028604Y010711D01*
X028554Y010724D01*
X028504Y010741D01*
X028456Y010762D01*
X028410Y010787D01*
X028366Y010815D01*
X028324Y010846D01*
X028284Y010880D01*
X028247Y010917D01*
X028213Y010957D01*
X028182Y010999D01*
X028154Y011043D01*
X028129Y011089D01*
X028108Y011137D01*
X028091Y011187D01*
X028078Y011237D01*
X028068Y011289D01*
X028062Y011341D01*
X028060Y011393D01*
X025060Y011093D02*
X025060Y011693D01*
X024960Y011693D01*
X024960Y011793D01*
X024960Y011093D02*
X024960Y010993D01*
X024960Y011093D02*
X025060Y011093D01*
X024610Y010193D02*
X024260Y010193D01*
X023260Y010193D01*
X022910Y010193D01*
X022560Y010993D02*
X022560Y011093D01*
X022460Y011093D01*
X022460Y011693D01*
X022560Y011693D01*
X022560Y011793D01*
X022910Y012593D02*
X023310Y012593D01*
X024260Y012593D01*
X024610Y012593D01*
X023660Y011393D02*
X023662Y011413D01*
X023668Y011431D01*
X023677Y011449D01*
X023689Y011464D01*
X023704Y011476D01*
X023722Y011485D01*
X023740Y011491D01*
X023760Y011493D01*
X023780Y011491D01*
X023798Y011485D01*
X023816Y011476D01*
X023831Y011464D01*
X023843Y011449D01*
X023852Y011431D01*
X023858Y011413D01*
X023860Y011393D01*
X023858Y011373D01*
X023852Y011355D01*
X023843Y011337D01*
X023831Y011322D01*
X023816Y011310D01*
X023798Y011301D01*
X023780Y011295D01*
X023760Y011293D01*
X023740Y011295D01*
X023722Y011301D01*
X023704Y011310D01*
X023689Y011322D01*
X023677Y011337D01*
X023668Y011355D01*
X023662Y011373D01*
X023660Y011393D01*
X023060Y011393D02*
X023062Y011445D01*
X023068Y011497D01*
X023078Y011549D01*
X023091Y011599D01*
X023108Y011649D01*
X023129Y011697D01*
X023154Y011743D01*
X023182Y011787D01*
X023213Y011829D01*
X023247Y011869D01*
X023284Y011906D01*
X023324Y011940D01*
X023366Y011971D01*
X023410Y011999D01*
X023456Y012024D01*
X023504Y012045D01*
X023554Y012062D01*
X023604Y012075D01*
X023656Y012085D01*
X023708Y012091D01*
X023760Y012093D01*
X023812Y012091D01*
X023864Y012085D01*
X023916Y012075D01*
X023966Y012062D01*
X024016Y012045D01*
X024064Y012024D01*
X024110Y011999D01*
X024154Y011971D01*
X024196Y011940D01*
X024236Y011906D01*
X024273Y011869D01*
X024307Y011829D01*
X024338Y011787D01*
X024366Y011743D01*
X024391Y011697D01*
X024412Y011649D01*
X024429Y011599D01*
X024442Y011549D01*
X024452Y011497D01*
X024458Y011445D01*
X024460Y011393D01*
X024458Y011341D01*
X024452Y011289D01*
X024442Y011237D01*
X024429Y011187D01*
X024412Y011137D01*
X024391Y011089D01*
X024366Y011043D01*
X024338Y010999D01*
X024307Y010957D01*
X024273Y010917D01*
X024236Y010880D01*
X024196Y010846D01*
X024154Y010815D01*
X024110Y010787D01*
X024064Y010762D01*
X024016Y010741D01*
X023966Y010724D01*
X023916Y010711D01*
X023864Y010701D01*
X023812Y010695D01*
X023760Y010693D01*
X023708Y010695D01*
X023656Y010701D01*
X023604Y010711D01*
X023554Y010724D01*
X023504Y010741D01*
X023456Y010762D01*
X023410Y010787D01*
X023366Y010815D01*
X023324Y010846D01*
X023284Y010880D01*
X023247Y010917D01*
X023213Y010957D01*
X023182Y010999D01*
X023154Y011043D01*
X023129Y011089D01*
X023108Y011137D01*
X023091Y011187D01*
X023078Y011237D01*
X023068Y011289D01*
X023062Y011341D01*
X023060Y011393D01*
X023110Y013943D02*
X023260Y013943D01*
X023310Y013993D01*
X025210Y013993D01*
X025260Y013943D01*
X025410Y013943D01*
X025427Y013945D01*
X025444Y013949D01*
X025460Y013956D01*
X025474Y013966D01*
X025487Y013979D01*
X025497Y013993D01*
X025504Y014009D01*
X025508Y014026D01*
X025510Y014043D01*
X025510Y014743D02*
X025508Y014760D01*
X025504Y014777D01*
X025497Y014793D01*
X025487Y014807D01*
X025474Y014820D01*
X025460Y014830D01*
X025444Y014837D01*
X025427Y014841D01*
X025410Y014843D01*
X025260Y014843D01*
X025210Y014793D01*
X023310Y014793D01*
X023260Y014843D01*
X023110Y014843D01*
X023093Y014841D01*
X023076Y014837D01*
X023060Y014830D01*
X023046Y014820D01*
X023033Y014807D01*
X023023Y014793D01*
X023016Y014777D01*
X023012Y014760D01*
X023010Y014743D01*
X023010Y014043D02*
X023012Y014026D01*
X023016Y014009D01*
X023023Y013993D01*
X023033Y013979D01*
X023046Y013966D01*
X023060Y013956D01*
X023076Y013949D01*
X023093Y013945D01*
X023110Y013943D01*
X032460Y011693D02*
X032460Y011093D01*
X032560Y011093D01*
X032560Y010993D01*
X032560Y011693D02*
X032560Y011793D01*
X032560Y011693D02*
X032460Y011693D01*
X033660Y011393D02*
X033662Y011413D01*
X033668Y011431D01*
X033677Y011449D01*
X033689Y011464D01*
X033704Y011476D01*
X033722Y011485D01*
X033740Y011491D01*
X033760Y011493D01*
X033780Y011491D01*
X033798Y011485D01*
X033816Y011476D01*
X033831Y011464D01*
X033843Y011449D01*
X033852Y011431D01*
X033858Y011413D01*
X033860Y011393D01*
X033858Y011373D01*
X033852Y011355D01*
X033843Y011337D01*
X033831Y011322D01*
X033816Y011310D01*
X033798Y011301D01*
X033780Y011295D01*
X033760Y011293D01*
X033740Y011295D01*
X033722Y011301D01*
X033704Y011310D01*
X033689Y011322D01*
X033677Y011337D01*
X033668Y011355D01*
X033662Y011373D01*
X033660Y011393D01*
X033060Y011393D02*
X033062Y011445D01*
X033068Y011497D01*
X033078Y011549D01*
X033091Y011599D01*
X033108Y011649D01*
X033129Y011697D01*
X033154Y011743D01*
X033182Y011787D01*
X033213Y011829D01*
X033247Y011869D01*
X033284Y011906D01*
X033324Y011940D01*
X033366Y011971D01*
X033410Y011999D01*
X033456Y012024D01*
X033504Y012045D01*
X033554Y012062D01*
X033604Y012075D01*
X033656Y012085D01*
X033708Y012091D01*
X033760Y012093D01*
X033812Y012091D01*
X033864Y012085D01*
X033916Y012075D01*
X033966Y012062D01*
X034016Y012045D01*
X034064Y012024D01*
X034110Y011999D01*
X034154Y011971D01*
X034196Y011940D01*
X034236Y011906D01*
X034273Y011869D01*
X034307Y011829D01*
X034338Y011787D01*
X034366Y011743D01*
X034391Y011697D01*
X034412Y011649D01*
X034429Y011599D01*
X034442Y011549D01*
X034452Y011497D01*
X034458Y011445D01*
X034460Y011393D01*
X034458Y011341D01*
X034452Y011289D01*
X034442Y011237D01*
X034429Y011187D01*
X034412Y011137D01*
X034391Y011089D01*
X034366Y011043D01*
X034338Y010999D01*
X034307Y010957D01*
X034273Y010917D01*
X034236Y010880D01*
X034196Y010846D01*
X034154Y010815D01*
X034110Y010787D01*
X034064Y010762D01*
X034016Y010741D01*
X033966Y010724D01*
X033916Y010711D01*
X033864Y010701D01*
X033812Y010695D01*
X033760Y010693D01*
X033708Y010695D01*
X033656Y010701D01*
X033604Y010711D01*
X033554Y010724D01*
X033504Y010741D01*
X033456Y010762D01*
X033410Y010787D01*
X033366Y010815D01*
X033324Y010846D01*
X033284Y010880D01*
X033247Y010917D01*
X033213Y010957D01*
X033182Y010999D01*
X033154Y011043D01*
X033129Y011089D01*
X033108Y011137D01*
X033091Y011187D01*
X033078Y011237D01*
X033068Y011289D01*
X033062Y011341D01*
X033060Y011393D01*
X032910Y010193D02*
X033260Y010193D01*
X034260Y010193D01*
X034610Y010193D01*
X034960Y010993D02*
X034960Y011093D01*
X035060Y011093D01*
X035060Y011693D01*
X034960Y011693D01*
X034960Y011793D01*
X034610Y012593D02*
X034260Y012593D01*
X033310Y012593D01*
X032910Y012593D01*
X037460Y011693D02*
X037460Y011093D01*
X037560Y011093D01*
X037560Y010993D01*
X037560Y011693D02*
X037560Y011793D01*
X037560Y011693D02*
X037460Y011693D01*
X038660Y011393D02*
X038662Y011413D01*
X038668Y011431D01*
X038677Y011449D01*
X038689Y011464D01*
X038704Y011476D01*
X038722Y011485D01*
X038740Y011491D01*
X038760Y011493D01*
X038780Y011491D01*
X038798Y011485D01*
X038816Y011476D01*
X038831Y011464D01*
X038843Y011449D01*
X038852Y011431D01*
X038858Y011413D01*
X038860Y011393D01*
X038858Y011373D01*
X038852Y011355D01*
X038843Y011337D01*
X038831Y011322D01*
X038816Y011310D01*
X038798Y011301D01*
X038780Y011295D01*
X038760Y011293D01*
X038740Y011295D01*
X038722Y011301D01*
X038704Y011310D01*
X038689Y011322D01*
X038677Y011337D01*
X038668Y011355D01*
X038662Y011373D01*
X038660Y011393D01*
X038060Y011393D02*
X038062Y011445D01*
X038068Y011497D01*
X038078Y011549D01*
X038091Y011599D01*
X038108Y011649D01*
X038129Y011697D01*
X038154Y011743D01*
X038182Y011787D01*
X038213Y011829D01*
X038247Y011869D01*
X038284Y011906D01*
X038324Y011940D01*
X038366Y011971D01*
X038410Y011999D01*
X038456Y012024D01*
X038504Y012045D01*
X038554Y012062D01*
X038604Y012075D01*
X038656Y012085D01*
X038708Y012091D01*
X038760Y012093D01*
X038812Y012091D01*
X038864Y012085D01*
X038916Y012075D01*
X038966Y012062D01*
X039016Y012045D01*
X039064Y012024D01*
X039110Y011999D01*
X039154Y011971D01*
X039196Y011940D01*
X039236Y011906D01*
X039273Y011869D01*
X039307Y011829D01*
X039338Y011787D01*
X039366Y011743D01*
X039391Y011697D01*
X039412Y011649D01*
X039429Y011599D01*
X039442Y011549D01*
X039452Y011497D01*
X039458Y011445D01*
X039460Y011393D01*
X039458Y011341D01*
X039452Y011289D01*
X039442Y011237D01*
X039429Y011187D01*
X039412Y011137D01*
X039391Y011089D01*
X039366Y011043D01*
X039338Y010999D01*
X039307Y010957D01*
X039273Y010917D01*
X039236Y010880D01*
X039196Y010846D01*
X039154Y010815D01*
X039110Y010787D01*
X039064Y010762D01*
X039016Y010741D01*
X038966Y010724D01*
X038916Y010711D01*
X038864Y010701D01*
X038812Y010695D01*
X038760Y010693D01*
X038708Y010695D01*
X038656Y010701D01*
X038604Y010711D01*
X038554Y010724D01*
X038504Y010741D01*
X038456Y010762D01*
X038410Y010787D01*
X038366Y010815D01*
X038324Y010846D01*
X038284Y010880D01*
X038247Y010917D01*
X038213Y010957D01*
X038182Y010999D01*
X038154Y011043D01*
X038129Y011089D01*
X038108Y011137D01*
X038091Y011187D01*
X038078Y011237D01*
X038068Y011289D01*
X038062Y011341D01*
X038060Y011393D01*
X037910Y010193D02*
X038260Y010193D01*
X039260Y010193D01*
X039610Y010193D01*
X039960Y010993D02*
X039960Y011093D01*
X040060Y011093D01*
X040060Y011693D01*
X039960Y011693D01*
X039960Y011793D01*
X039610Y012593D02*
X039260Y012593D01*
X038310Y012593D01*
X037910Y012593D01*
X038960Y014393D02*
X038960Y015393D01*
X040560Y015393D01*
X040560Y014393D01*
X038960Y014393D01*
X039760Y014643D02*
X039760Y014893D01*
X039760Y015143D01*
X039760Y014893D02*
X040160Y015143D01*
X040160Y014643D01*
X039760Y014893D01*
X040360Y014893D01*
X039760Y014893D02*
X039510Y014893D01*
X039110Y020893D02*
X037410Y020893D01*
X037393Y020895D01*
X037376Y020899D01*
X037360Y020906D01*
X037346Y020916D01*
X037333Y020929D01*
X037323Y020943D01*
X037316Y020959D01*
X037312Y020976D01*
X037310Y020993D01*
X037310Y021793D01*
X037312Y021810D01*
X037316Y021827D01*
X037323Y021843D01*
X037333Y021857D01*
X037346Y021870D01*
X037360Y021880D01*
X037376Y021887D01*
X037393Y021891D01*
X037410Y021893D01*
X039110Y021893D01*
X039127Y021891D01*
X039144Y021887D01*
X039160Y021880D01*
X039174Y021870D01*
X039187Y021857D01*
X039197Y021843D01*
X039204Y021827D01*
X039208Y021810D01*
X039210Y021793D01*
X039210Y020993D01*
X039208Y020976D01*
X039204Y020959D01*
X039197Y020943D01*
X039187Y020929D01*
X039174Y020916D01*
X039160Y020906D01*
X039144Y020899D01*
X039127Y020895D01*
X039110Y020893D01*
X038410Y021393D02*
X038360Y021393D01*
X038160Y021393D02*
X038110Y021393D01*
X037410Y024393D02*
X039110Y024393D01*
X039127Y024395D01*
X039144Y024399D01*
X039160Y024406D01*
X039174Y024416D01*
X039187Y024429D01*
X039197Y024443D01*
X039204Y024459D01*
X039208Y024476D01*
X039210Y024493D01*
X039210Y025293D01*
X039208Y025310D01*
X039204Y025327D01*
X039197Y025343D01*
X039187Y025357D01*
X039174Y025370D01*
X039160Y025380D01*
X039144Y025387D01*
X039127Y025391D01*
X039110Y025393D01*
X037410Y025393D01*
X037393Y025391D01*
X037376Y025387D01*
X037360Y025380D01*
X037346Y025370D01*
X037333Y025357D01*
X037323Y025343D01*
X037316Y025327D01*
X037312Y025310D01*
X037310Y025293D01*
X037310Y024493D01*
X037312Y024476D01*
X037316Y024459D01*
X037323Y024443D01*
X037333Y024429D01*
X037346Y024416D01*
X037360Y024406D01*
X037376Y024399D01*
X037393Y024395D01*
X037410Y024393D01*
X038110Y024893D02*
X038160Y024893D01*
X038360Y024893D02*
X038410Y024893D01*
X038760Y026443D02*
X038910Y026443D01*
X038927Y026445D01*
X038944Y026449D01*
X038960Y026456D01*
X038974Y026466D01*
X038987Y026479D01*
X038997Y026493D01*
X039004Y026509D01*
X039008Y026526D01*
X039010Y026543D01*
X038760Y026443D02*
X038710Y026493D01*
X036810Y026493D01*
X036760Y026443D01*
X036610Y026443D01*
X036593Y026445D01*
X036576Y026449D01*
X036560Y026456D01*
X036546Y026466D01*
X036533Y026479D01*
X036523Y026493D01*
X036516Y026509D01*
X036512Y026526D01*
X036510Y026543D01*
X036510Y027243D02*
X036512Y027260D01*
X036516Y027277D01*
X036523Y027293D01*
X036533Y027307D01*
X036546Y027320D01*
X036560Y027330D01*
X036576Y027337D01*
X036593Y027341D01*
X036610Y027343D01*
X036760Y027343D01*
X036810Y027293D01*
X038710Y027293D01*
X038760Y027343D01*
X038910Y027343D01*
X038927Y027341D01*
X038944Y027337D01*
X038960Y027330D01*
X038974Y027320D01*
X038987Y027307D01*
X038997Y027293D01*
X039004Y027277D01*
X039008Y027260D01*
X039010Y027243D01*
D13*
X038360Y025193D02*
X038360Y024893D01*
X038360Y024593D01*
X038160Y024593D02*
X038160Y024893D01*
X038160Y025193D01*
X038160Y021693D02*
X038160Y021393D01*
X038160Y021093D01*
X038360Y021093D02*
X038360Y021393D01*
X038360Y021693D01*
X029360Y020693D02*
X029360Y020393D01*
X029360Y020093D01*
X029160Y020093D02*
X029160Y020393D01*
X029160Y020693D01*
X019360Y027093D02*
X019360Y027393D01*
X019360Y027693D01*
X019160Y027693D02*
X019160Y027393D01*
X019160Y027093D01*
D14*
X014488Y014204D02*
X014490Y014235D01*
X014496Y014266D01*
X014505Y014296D01*
X014518Y014325D01*
X014535Y014352D01*
X014555Y014376D01*
X014577Y014398D01*
X014603Y014417D01*
X014630Y014433D01*
X014659Y014445D01*
X014689Y014454D01*
X014720Y014459D01*
X014752Y014460D01*
X014783Y014457D01*
X014814Y014450D01*
X014844Y014440D01*
X014872Y014426D01*
X014898Y014408D01*
X014922Y014388D01*
X014943Y014364D01*
X014962Y014339D01*
X014977Y014311D01*
X014988Y014282D01*
X014996Y014251D01*
X015000Y014220D01*
X015000Y014188D01*
X014996Y014157D01*
X014988Y014126D01*
X014977Y014097D01*
X014962Y014069D01*
X014943Y014044D01*
X014922Y014020D01*
X014898Y014000D01*
X014872Y013982D01*
X014844Y013968D01*
X014814Y013958D01*
X014783Y013951D01*
X014752Y013948D01*
X014720Y013949D01*
X014689Y013954D01*
X014659Y013963D01*
X014630Y013975D01*
X014603Y013991D01*
X014577Y014010D01*
X014555Y014032D01*
X014535Y014056D01*
X014518Y014083D01*
X014505Y014112D01*
X014496Y014142D01*
X014490Y014173D01*
X014488Y014204D01*
X012519Y014204D02*
X012521Y014235D01*
X012527Y014266D01*
X012536Y014296D01*
X012549Y014325D01*
X012566Y014352D01*
X012586Y014376D01*
X012608Y014398D01*
X012634Y014417D01*
X012661Y014433D01*
X012690Y014445D01*
X012720Y014454D01*
X012751Y014459D01*
X012783Y014460D01*
X012814Y014457D01*
X012845Y014450D01*
X012875Y014440D01*
X012903Y014426D01*
X012929Y014408D01*
X012953Y014388D01*
X012974Y014364D01*
X012993Y014339D01*
X013008Y014311D01*
X013019Y014282D01*
X013027Y014251D01*
X013031Y014220D01*
X013031Y014188D01*
X013027Y014157D01*
X013019Y014126D01*
X013008Y014097D01*
X012993Y014069D01*
X012974Y014044D01*
X012953Y014020D01*
X012929Y014000D01*
X012903Y013982D01*
X012875Y013968D01*
X012845Y013958D01*
X012814Y013951D01*
X012783Y013948D01*
X012751Y013949D01*
X012720Y013954D01*
X012690Y013963D01*
X012661Y013975D01*
X012634Y013991D01*
X012608Y014010D01*
X012586Y014032D01*
X012566Y014056D01*
X012549Y014083D01*
X012536Y014112D01*
X012527Y014142D01*
X012521Y014173D01*
X012519Y014204D01*
X012519Y010700D02*
X012521Y010731D01*
X012527Y010762D01*
X012536Y010792D01*
X012549Y010821D01*
X012566Y010848D01*
X012586Y010872D01*
X012608Y010894D01*
X012634Y010913D01*
X012661Y010929D01*
X012690Y010941D01*
X012720Y010950D01*
X012751Y010955D01*
X012783Y010956D01*
X012814Y010953D01*
X012845Y010946D01*
X012875Y010936D01*
X012903Y010922D01*
X012929Y010904D01*
X012953Y010884D01*
X012974Y010860D01*
X012993Y010835D01*
X013008Y010807D01*
X013019Y010778D01*
X013027Y010747D01*
X013031Y010716D01*
X013031Y010684D01*
X013027Y010653D01*
X013019Y010622D01*
X013008Y010593D01*
X012993Y010565D01*
X012974Y010540D01*
X012953Y010516D01*
X012929Y010496D01*
X012903Y010478D01*
X012875Y010464D01*
X012845Y010454D01*
X012814Y010447D01*
X012783Y010444D01*
X012751Y010445D01*
X012720Y010450D01*
X012690Y010459D01*
X012661Y010471D01*
X012634Y010487D01*
X012608Y010506D01*
X012586Y010528D01*
X012566Y010552D01*
X012549Y010579D01*
X012536Y010608D01*
X012527Y010638D01*
X012521Y010669D01*
X012519Y010700D01*
X014488Y010700D02*
X014490Y010731D01*
X014496Y010762D01*
X014505Y010792D01*
X014518Y010821D01*
X014535Y010848D01*
X014555Y010872D01*
X014577Y010894D01*
X014603Y010913D01*
X014630Y010929D01*
X014659Y010941D01*
X014689Y010950D01*
X014720Y010955D01*
X014752Y010956D01*
X014783Y010953D01*
X014814Y010946D01*
X014844Y010936D01*
X014872Y010922D01*
X014898Y010904D01*
X014922Y010884D01*
X014943Y010860D01*
X014962Y010835D01*
X014977Y010807D01*
X014988Y010778D01*
X014996Y010747D01*
X015000Y010716D01*
X015000Y010684D01*
X014996Y010653D01*
X014988Y010622D01*
X014977Y010593D01*
X014962Y010565D01*
X014943Y010540D01*
X014922Y010516D01*
X014898Y010496D01*
X014872Y010478D01*
X014844Y010464D01*
X014814Y010454D01*
X014783Y010447D01*
X014752Y010444D01*
X014720Y010445D01*
X014689Y010450D01*
X014659Y010459D01*
X014630Y010471D01*
X014603Y010487D01*
X014577Y010506D01*
X014555Y010528D01*
X014535Y010552D01*
X014518Y010579D01*
X014505Y010608D01*
X014496Y010638D01*
X014490Y010669D01*
X014488Y010700D01*
D15*
X039210Y014893D03*
D16*
X038585Y014893D03*
X040935Y014893D03*
D17*
X043220Y009393D03*
D18*
X039260Y010193D02*
X039260Y010293D01*
X038260Y010293D01*
X038260Y010193D01*
X038310Y012493D02*
X038310Y012593D01*
X038310Y012493D02*
X039260Y012493D01*
X039260Y012593D01*
X034260Y012493D02*
X034260Y012593D01*
X034260Y012493D02*
X033310Y012493D01*
X033310Y012593D01*
X033260Y010293D02*
X033260Y010193D01*
X033260Y010293D02*
X034260Y010293D01*
X034260Y010193D01*
X029260Y010193D02*
X029260Y010293D01*
X028260Y010293D01*
X028260Y010193D01*
X028310Y012493D02*
X028310Y012593D01*
X028310Y012493D02*
X029260Y012493D01*
X029260Y012593D01*
X024260Y012493D02*
X024260Y012593D01*
X024260Y012493D02*
X023310Y012493D01*
X023310Y012593D01*
X023260Y010293D02*
X023260Y010193D01*
X023260Y010293D02*
X024260Y010293D01*
X024260Y010193D01*
D19*
X006760Y010893D02*
X004510Y010893D01*
X004510Y011893D02*
X006760Y011893D01*
X006760Y012893D02*
X004510Y012893D01*
X004510Y013893D02*
X006760Y013893D01*
X006760Y015893D02*
X004510Y015893D01*
X004510Y016893D02*
X006760Y016893D01*
X006760Y017893D02*
X004510Y017893D01*
X004510Y019893D02*
X006760Y019893D01*
X006760Y020893D02*
X004510Y020893D01*
X004510Y021893D02*
X006760Y021893D01*
X006760Y023893D02*
X004510Y023893D01*
X004510Y024893D02*
X006760Y024893D01*
X006760Y025893D02*
X004510Y025893D01*
X004510Y027893D02*
X006760Y027893D01*
X006760Y028893D02*
X004510Y028893D01*
X004510Y029893D02*
X006760Y029893D01*
D20*
X006910Y029893D03*
X006910Y028893D03*
X006910Y027893D03*
X006910Y025893D03*
X006910Y024893D03*
X006910Y023893D03*
X006910Y021893D03*
X006910Y020893D03*
X006910Y019893D03*
X006910Y017893D03*
X006910Y016893D03*
X006910Y015893D03*
X006910Y013893D03*
X006910Y012893D03*
X006910Y011893D03*
X006910Y010893D03*
D21*
X008210Y010893D03*
X008210Y011893D03*
X008210Y012893D03*
X008210Y013893D03*
X008210Y015893D03*
X008210Y016893D03*
X008210Y017893D03*
X008210Y019893D03*
X008210Y020893D03*
X008210Y021893D03*
X008210Y023893D03*
X008210Y024893D03*
X008210Y025893D03*
X008210Y027893D03*
X008210Y028893D03*
X008210Y029893D03*
D22*
X009260Y029893D03*
X009260Y028893D03*
X009260Y027893D03*
X009260Y025893D03*
X009260Y024893D03*
X009260Y023893D03*
X009260Y021893D03*
X009260Y020893D03*
X009260Y019893D03*
X009260Y017893D03*
X009260Y016893D03*
X009260Y015893D03*
D23*
X010760Y018443D03*
D24*
X010760Y019068D03*
X010760Y016718D03*
D25*
X041260Y014293D02*
X041260Y011493D01*
X042660Y011493D01*
X042662Y011520D01*
X042667Y011547D01*
X042677Y011573D01*
X042689Y011597D01*
X042705Y011619D01*
X042723Y011639D01*
X042745Y011656D01*
X042768Y011671D01*
X042793Y011681D01*
X042819Y011689D01*
X042846Y011693D01*
X042874Y011693D01*
X042901Y011689D01*
X042927Y011681D01*
X042952Y011671D01*
X042975Y011656D01*
X042997Y011639D01*
X043015Y011619D01*
X043031Y011597D01*
X043043Y011573D01*
X043053Y011547D01*
X043058Y011520D01*
X043060Y011493D01*
X044560Y011493D01*
X044562Y011520D01*
X044567Y011547D01*
X044577Y011573D01*
X044589Y011597D01*
X044605Y011619D01*
X044623Y011639D01*
X044645Y011656D01*
X044668Y011671D01*
X044693Y011681D01*
X044719Y011689D01*
X044746Y011693D01*
X044774Y011693D01*
X044801Y011689D01*
X044827Y011681D01*
X044852Y011671D01*
X044875Y011656D01*
X044897Y011639D01*
X044915Y011619D01*
X044931Y011597D01*
X044943Y011573D01*
X044953Y011547D01*
X044958Y011520D01*
X044960Y011493D01*
X046260Y011493D01*
X046260Y014293D01*
X044960Y014293D01*
X044958Y014266D01*
X044953Y014239D01*
X044943Y014213D01*
X044931Y014189D01*
X044915Y014167D01*
X044897Y014147D01*
X044875Y014130D01*
X044852Y014115D01*
X044827Y014105D01*
X044801Y014097D01*
X044774Y014093D01*
X044746Y014093D01*
X044719Y014097D01*
X044693Y014105D01*
X044668Y014115D01*
X044645Y014130D01*
X044623Y014147D01*
X044605Y014167D01*
X044589Y014189D01*
X044577Y014213D01*
X044567Y014239D01*
X044562Y014266D01*
X044560Y014293D01*
X043060Y014293D01*
X043058Y014266D01*
X043053Y014239D01*
X043043Y014213D01*
X043031Y014189D01*
X043015Y014167D01*
X042997Y014147D01*
X042975Y014130D01*
X042952Y014115D01*
X042927Y014105D01*
X042901Y014097D01*
X042874Y014093D01*
X042846Y014093D01*
X042819Y014097D01*
X042793Y014105D01*
X042768Y014115D01*
X042745Y014130D01*
X042723Y014147D01*
X042705Y014167D01*
X042689Y014189D01*
X042677Y014213D01*
X042667Y014239D01*
X042662Y014266D01*
X042660Y014293D01*
X041260Y014293D01*
M02*
