G75*
%MOIN*%
%OFA0B0*%
%FSLAX24Y24*%
%IPPOS*%
%LPD*%
%AMOC8*
5,1,8,0,0,1.08239X$1,22.5*
%
%ADD10R,0.0740X0.0740*%
%ADD11C,0.0740*%
%ADD12C,0.0520*%
%ADD13OC8,0.0520*%
%ADD14OC8,0.0620*%
%ADD15C,0.0620*%
%ADD16C,0.0660*%
%ADD17R,0.1500X0.1500*%
%ADD18R,0.2441X0.2126*%
%ADD19R,0.0630X0.0394*%
%ADD20R,0.0594X0.0594*%
%ADD21C,0.0700*%
%ADD22C,0.0600*%
%ADD23OC8,0.0600*%
%ADD24C,0.1185*%
%ADD25C,0.1200*%
%ADD26C,0.0240*%
%ADD27C,0.0320*%
%ADD28C,0.0400*%
%ADD29C,0.0436*%
%ADD30C,0.0400*%
%ADD31C,0.0100*%
%ADD32C,0.0440*%
%ADD33OC8,0.0436*%
D10*
X019161Y028996D03*
D11*
X020161Y028996D03*
X021161Y028996D03*
X022161Y028996D03*
X023161Y028996D03*
X024161Y028996D03*
X025161Y028996D03*
X026161Y028996D03*
X027161Y028996D03*
X028161Y028996D03*
X029161Y028996D03*
X030161Y028996D03*
X031161Y028996D03*
X032161Y028996D03*
X033161Y028996D03*
X034161Y028996D03*
X028760Y026893D03*
X027760Y026893D03*
X026760Y026893D03*
D12*
X026760Y025153D02*
X026760Y024633D01*
X027760Y024633D02*
X027760Y025153D01*
X028760Y025153D02*
X028760Y024633D01*
X029760Y024633D02*
X029760Y025153D01*
X030760Y025153D02*
X030760Y024633D01*
X031760Y024633D02*
X031760Y025153D01*
X032760Y025153D02*
X032760Y024633D01*
X033760Y024633D02*
X033760Y025153D01*
X034760Y025153D02*
X034760Y024633D01*
X035760Y024633D02*
X035760Y025153D01*
X035760Y022153D02*
X035760Y021633D01*
X034760Y021633D02*
X034760Y022153D01*
X033760Y022153D02*
X033760Y021633D01*
X032760Y021633D02*
X032760Y022153D01*
X031760Y022153D02*
X031760Y021633D01*
X030760Y021633D02*
X030760Y022153D01*
X029760Y022153D02*
X029760Y021633D01*
X028760Y021633D02*
X028760Y022153D01*
X027760Y022153D02*
X027760Y021633D01*
X026760Y021633D02*
X026760Y022153D01*
X025760Y022153D02*
X025760Y021633D01*
X024760Y021633D02*
X024760Y022153D01*
X023760Y022153D02*
X023760Y021633D01*
X022760Y021633D02*
X022760Y022153D01*
X022760Y024633D02*
X022760Y025153D01*
X023760Y025153D02*
X023760Y024633D01*
X024760Y024633D02*
X024760Y025153D01*
X025760Y025153D02*
X025760Y024633D01*
D13*
X028760Y020393D03*
X029760Y020393D03*
X037760Y021393D03*
X038760Y021393D03*
X038760Y024893D03*
X037760Y024893D03*
X039260Y026893D03*
X036260Y026893D03*
X025760Y014393D03*
X022760Y014393D03*
X015760Y017893D03*
X014260Y017893D03*
X012760Y017893D03*
X012760Y020893D03*
X014260Y020893D03*
X015760Y020893D03*
X014260Y022393D03*
X012260Y022393D03*
X012260Y025393D03*
X012260Y026393D03*
X014260Y026393D03*
X014260Y025393D03*
X018760Y027393D03*
X019760Y027393D03*
X014260Y029393D03*
X012260Y029393D03*
D14*
X031760Y014393D03*
D15*
X030760Y014393D03*
D16*
X037760Y014893D03*
X041760Y014893D03*
X014744Y015149D03*
X013760Y015149D03*
X012775Y015149D03*
X010760Y015893D03*
X010760Y019893D03*
D17*
X011988Y012393D03*
X015531Y012393D03*
D18*
X045244Y009393D03*
D19*
X042370Y008496D03*
X042370Y010291D03*
D20*
X045760Y021393D03*
D21*
X045760Y022393D03*
X045760Y023393D03*
X045760Y024393D03*
X045760Y025393D03*
X045760Y026393D03*
D22*
X040340Y012283D02*
X039740Y012283D01*
X037780Y012283D02*
X037180Y012283D01*
X035340Y012283D02*
X034740Y012283D01*
X032780Y012283D02*
X032180Y012283D01*
X030340Y012283D02*
X029740Y012283D01*
X027780Y012283D02*
X027180Y012283D01*
X025340Y012283D02*
X024740Y012283D01*
X022780Y012283D02*
X022180Y012283D01*
X022180Y010503D02*
X022780Y010503D01*
X024740Y010503D02*
X025340Y010503D01*
X027180Y010503D02*
X027780Y010503D01*
X029740Y010503D02*
X030340Y010503D01*
X032180Y010503D02*
X032780Y010503D01*
X034740Y010503D02*
X035340Y010503D01*
X037180Y010503D02*
X037780Y010503D01*
X039740Y010503D02*
X040340Y010503D01*
X009060Y010893D02*
X008460Y010893D01*
X008460Y011893D02*
X009060Y011893D01*
X009060Y012893D02*
X008460Y012893D01*
X008460Y013893D02*
X009060Y013893D01*
D23*
X008760Y015893D03*
X009760Y015893D03*
X009760Y016893D03*
X009760Y017893D03*
X008760Y017893D03*
X008760Y016893D03*
X008760Y019893D03*
X009760Y019893D03*
X009760Y020893D03*
X009760Y021893D03*
X008760Y021893D03*
X008760Y020893D03*
X008760Y023893D03*
X009760Y023893D03*
X009760Y024893D03*
X008760Y024893D03*
X008760Y025893D03*
X009760Y025893D03*
X009760Y027893D03*
X009760Y028893D03*
X008760Y028893D03*
X008760Y027893D03*
X008760Y029893D03*
X009760Y029893D03*
D24*
X035010Y008486D02*
X035010Y007301D01*
X036510Y007301D02*
X036510Y008486D01*
D25*
X041910Y012293D02*
X041910Y013493D01*
X043760Y013493D02*
X043760Y012293D01*
X045610Y012293D02*
X045610Y013493D01*
D26*
X007240Y007913D02*
X006280Y008873D01*
X006280Y032178D01*
X006975Y032873D01*
X008760Y032873D01*
X008760Y030413D01*
X008544Y030413D01*
X008240Y030109D01*
X008240Y029678D01*
X008254Y029663D01*
X008206Y029663D01*
X008107Y029622D01*
X008031Y029546D01*
X007531Y029046D01*
X007490Y028947D01*
X007490Y023840D01*
X007531Y023740D01*
X007607Y023664D01*
X008490Y022781D01*
X008490Y022359D01*
X008240Y022109D01*
X008240Y021678D01*
X008524Y021393D01*
X008240Y021109D01*
X008240Y020678D01*
X008489Y020429D01*
X008190Y020129D01*
X008190Y019893D01*
X008190Y019657D01*
X008523Y019323D01*
X008760Y019323D01*
X008760Y019893D01*
X008760Y018413D01*
X008544Y018413D01*
X008240Y018109D01*
X008240Y017678D01*
X008524Y017393D01*
X008240Y017109D01*
X008240Y016678D01*
X008489Y016429D01*
X008190Y016129D01*
X008190Y015893D01*
X008190Y015657D01*
X008523Y015323D01*
X008760Y015323D01*
X008760Y015893D01*
X008760Y014413D01*
X008356Y014413D01*
X008165Y014334D01*
X008019Y014188D01*
X007940Y013997D01*
X007940Y013790D01*
X008019Y013599D01*
X008165Y013452D01*
X008308Y013393D01*
X008165Y013334D01*
X008019Y013188D01*
X007940Y012997D01*
X007940Y012790D01*
X008019Y012599D01*
X008165Y012452D01*
X008308Y012393D01*
X008165Y012334D01*
X008019Y012188D01*
X007940Y011997D01*
X007940Y011790D01*
X008019Y011599D01*
X008165Y011452D01*
X008240Y011421D01*
X008161Y011381D01*
X008088Y011328D01*
X008025Y011265D01*
X007972Y011192D01*
X007931Y011112D01*
X007904Y011027D01*
X007890Y010938D01*
X007890Y010893D01*
X007890Y010848D01*
X007904Y010760D01*
X007931Y010675D01*
X007972Y010595D01*
X008025Y010522D01*
X008088Y010459D01*
X008161Y010406D01*
X008241Y010365D01*
X008326Y010337D01*
X008415Y010323D01*
X008760Y010323D01*
X009104Y010323D01*
X009193Y010337D01*
X009278Y010365D01*
X009358Y010406D01*
X009431Y010459D01*
X009494Y010522D01*
X009547Y010595D01*
X009588Y010675D01*
X009615Y010760D01*
X009630Y010848D01*
X009630Y010893D01*
X008760Y010893D01*
X008760Y010893D01*
X008760Y010323D01*
X008760Y010893D01*
X008760Y010893D01*
X009260Y010893D01*
X009260Y010893D01*
X009630Y010893D01*
X009630Y010938D01*
X009615Y011027D01*
X009588Y011112D01*
X009551Y011185D01*
X009760Y011393D01*
X020260Y011393D01*
X020260Y006413D01*
X020760Y006413D02*
X020760Y011393D01*
X021260Y011393D02*
X021260Y009380D01*
X021273Y009393D02*
X018260Y009393D01*
X018260Y008893D02*
X020939Y008893D01*
X020950Y008936D02*
X020855Y008578D01*
X020855Y008208D01*
X020950Y007851D01*
X021135Y007531D01*
X021397Y007269D01*
X021717Y007084D01*
X022075Y006988D01*
X022444Y006988D01*
X022802Y007084D01*
X023122Y007269D01*
X023384Y007531D01*
X023569Y007851D01*
X023665Y008208D01*
X023665Y008578D01*
X023569Y008936D01*
X023384Y009256D01*
X023122Y009518D01*
X022802Y009703D01*
X022444Y009798D01*
X022075Y009798D01*
X021717Y009703D01*
X021397Y009518D01*
X021135Y009256D01*
X020950Y008936D01*
X020855Y008393D02*
X018260Y008393D01*
X018260Y007893D02*
X020939Y007893D01*
X021260Y007406D02*
X021260Y006413D01*
X021760Y006413D02*
X021760Y007073D01*
X022260Y006988D02*
X022260Y006413D01*
X022760Y006413D02*
X022760Y007073D01*
X023246Y007393D02*
X032188Y007393D01*
X032188Y007252D02*
X032261Y006980D01*
X032402Y006736D01*
X032602Y006536D01*
X032815Y006413D01*
X019240Y006413D01*
X018260Y007393D01*
X018260Y013393D01*
X009760Y013393D01*
X009760Y013893D02*
X017760Y013893D01*
X017760Y010393D01*
X021620Y010393D01*
X021624Y010370D02*
X021651Y010285D01*
X021692Y010205D01*
X021745Y010132D01*
X021808Y010069D01*
X021881Y010016D01*
X021961Y009975D01*
X022046Y009947D01*
X022135Y009933D01*
X022480Y009933D01*
X022824Y009933D01*
X022913Y009947D01*
X022998Y009975D01*
X023078Y010016D01*
X023151Y010069D01*
X023214Y010132D01*
X023267Y010205D01*
X023308Y010285D01*
X023335Y010370D01*
X023350Y010458D01*
X023350Y010503D01*
X022480Y010503D01*
X022480Y010503D01*
X022480Y009933D01*
X022480Y010503D01*
X022480Y010503D01*
X023350Y010503D01*
X023350Y010548D01*
X023335Y010637D01*
X023308Y010722D01*
X023267Y010802D01*
X023214Y010875D01*
X023151Y010938D01*
X023078Y010991D01*
X022998Y011032D01*
X022913Y011059D01*
X022824Y011073D01*
X022480Y011073D01*
X022480Y010503D01*
X022480Y010503D01*
X021610Y010503D01*
X021610Y010458D01*
X021624Y010370D01*
X021610Y010503D02*
X022480Y010503D01*
X022480Y010503D01*
X022480Y011073D01*
X022135Y011073D01*
X022046Y011059D01*
X021961Y011032D01*
X021881Y010991D01*
X021808Y010938D01*
X021745Y010875D01*
X021692Y010802D01*
X021651Y010722D01*
X021624Y010637D01*
X021610Y010548D01*
X021610Y010503D01*
X021760Y010503D02*
X021760Y010503D01*
X021760Y010117D02*
X021760Y009714D01*
X022260Y009798D02*
X022260Y009933D01*
X022760Y009933D02*
X022760Y009714D01*
X023246Y009393D02*
X037760Y009393D01*
X037760Y008893D02*
X037220Y008893D01*
X037198Y008946D02*
X036970Y009175D01*
X036671Y009298D01*
X036348Y009298D01*
X036049Y009175D01*
X035821Y008946D01*
X035787Y008864D01*
X035785Y008868D01*
X035728Y008966D01*
X035659Y009056D01*
X035579Y009136D01*
X035490Y009204D01*
X035392Y009261D01*
X035287Y009304D01*
X035178Y009334D01*
X035087Y009346D01*
X035087Y007971D01*
X034932Y007971D01*
X034932Y009346D01*
X034841Y009334D01*
X034732Y009304D01*
X034627Y009261D01*
X034529Y009204D01*
X034440Y009136D01*
X034360Y009056D01*
X034291Y008966D01*
X034234Y008868D01*
X034191Y008764D01*
X034162Y008654D01*
X034147Y008542D01*
X034147Y007998D01*
X034117Y008051D01*
X033917Y008250D01*
X033673Y008391D01*
X033401Y008464D01*
X033118Y008464D01*
X032846Y008391D01*
X032602Y008250D01*
X032402Y008051D01*
X032261Y007807D01*
X032188Y007534D01*
X032188Y007252D01*
X032260Y006987D02*
X032260Y006413D01*
X032311Y006893D02*
X018760Y006893D01*
X018760Y012893D01*
X016501Y012893D01*
X016501Y013234D02*
X016372Y013363D01*
X014690Y013363D01*
X014561Y013234D01*
X014561Y011552D01*
X014690Y011423D01*
X016372Y011423D01*
X016501Y011552D01*
X016501Y013234D01*
X016260Y013363D02*
X016260Y014393D01*
X016760Y014393D02*
X016760Y010893D01*
X017260Y010893D02*
X017260Y014393D01*
X020260Y011393D01*
X037760Y011393D01*
X037760Y011073D01*
X037480Y011073D01*
X037480Y010503D01*
X037480Y009933D01*
X037760Y009933D01*
X037760Y006413D01*
X033704Y006413D01*
X033917Y006536D01*
X034117Y006736D01*
X034229Y006931D01*
X034234Y006919D01*
X034291Y006821D01*
X034360Y006731D01*
X034440Y006651D01*
X034529Y006582D01*
X034627Y006526D01*
X034732Y006482D01*
X034841Y006453D01*
X034932Y006441D01*
X034932Y007816D01*
X035087Y007816D01*
X035087Y006441D01*
X035178Y006453D01*
X035287Y006482D01*
X035392Y006526D01*
X035490Y006582D01*
X035579Y006651D01*
X035659Y006731D01*
X035728Y006821D01*
X035785Y006919D01*
X035787Y006923D01*
X035821Y006841D01*
X036049Y006612D01*
X036348Y006488D01*
X036671Y006488D01*
X036970Y006612D01*
X037198Y006841D01*
X037322Y007139D01*
X037322Y008647D01*
X037198Y008946D01*
X037260Y008798D02*
X037260Y009933D01*
X037135Y009933D02*
X037480Y009933D01*
X037480Y010503D01*
X037480Y010503D01*
X037480Y010503D01*
X036610Y010503D01*
X036610Y010458D01*
X036624Y010370D01*
X036651Y010285D01*
X036692Y010205D01*
X036745Y010132D01*
X036808Y010069D01*
X036881Y010016D01*
X036961Y009975D01*
X037046Y009947D01*
X037135Y009933D01*
X036760Y010117D02*
X036760Y009262D01*
X036260Y009262D02*
X036260Y011393D01*
X036760Y011393D02*
X036760Y010889D01*
X036763Y010893D02*
X035756Y010893D01*
X035760Y010889D02*
X035760Y011393D01*
X035558Y011032D02*
X035473Y011059D01*
X035384Y011073D01*
X035040Y011073D01*
X035040Y010503D01*
X035040Y010503D01*
X035910Y010503D01*
X035910Y010458D01*
X035895Y010370D01*
X035868Y010285D01*
X035827Y010205D01*
X035774Y010132D01*
X035711Y010069D01*
X035638Y010016D01*
X035558Y009975D01*
X035473Y009947D01*
X035384Y009933D01*
X035040Y009933D01*
X035040Y010503D01*
X035040Y010503D01*
X035910Y010503D01*
X035910Y010548D01*
X035895Y010637D01*
X035868Y010722D01*
X035827Y010802D01*
X035774Y010875D01*
X035711Y010938D01*
X035638Y010991D01*
X035558Y011032D01*
X035260Y011073D02*
X035260Y011393D01*
X035040Y011073D02*
X034695Y011073D01*
X034606Y011059D01*
X034521Y011032D01*
X034441Y010991D01*
X034368Y010938D01*
X034305Y010875D01*
X034252Y010802D01*
X034211Y010722D01*
X034184Y010637D01*
X034170Y010548D01*
X034170Y010503D01*
X034170Y010458D01*
X034184Y010370D01*
X034211Y010285D01*
X034252Y010205D01*
X034305Y010132D01*
X034368Y010069D01*
X034441Y010016D01*
X034521Y009975D01*
X034606Y009947D01*
X034695Y009933D01*
X035040Y009933D01*
X035040Y010503D01*
X035040Y010503D01*
X034170Y010503D01*
X035040Y010503D01*
X035040Y010503D01*
X035040Y011073D01*
X035040Y010893D02*
X035040Y010893D01*
X034760Y011073D02*
X034760Y011393D01*
X034260Y011393D02*
X034260Y010812D01*
X034323Y010893D02*
X033196Y010893D01*
X033214Y010875D02*
X033151Y010938D01*
X033078Y010991D01*
X032998Y011032D01*
X032913Y011059D01*
X032824Y011073D01*
X032480Y011073D01*
X032480Y010503D01*
X032480Y010503D01*
X033350Y010503D01*
X033350Y010458D01*
X033335Y010370D01*
X033308Y010285D01*
X033267Y010205D01*
X033214Y010132D01*
X033151Y010069D01*
X033078Y010016D01*
X032998Y009975D01*
X032913Y009947D01*
X032824Y009933D01*
X032480Y009933D01*
X032480Y010503D01*
X032480Y010503D01*
X033350Y010503D01*
X033350Y010548D01*
X033335Y010637D01*
X033308Y010722D01*
X033267Y010802D01*
X033214Y010875D01*
X033260Y010812D02*
X033260Y011393D01*
X033760Y011393D02*
X033760Y008342D01*
X033666Y008393D02*
X034147Y008393D01*
X034249Y008893D02*
X023580Y008893D01*
X023665Y008393D02*
X032853Y008393D01*
X032760Y008342D02*
X032760Y009933D01*
X032480Y009933D02*
X032480Y010503D01*
X032480Y010503D01*
X031610Y010503D01*
X031610Y010458D01*
X031624Y010370D01*
X031651Y010285D01*
X031692Y010205D01*
X031745Y010132D01*
X031808Y010069D01*
X031881Y010016D01*
X031961Y009975D01*
X032046Y009947D01*
X032135Y009933D01*
X032480Y009933D01*
X032260Y009933D02*
X032260Y007800D01*
X032311Y007893D02*
X023580Y007893D01*
X023260Y007406D02*
X023260Y006413D01*
X023760Y006413D02*
X023760Y011393D01*
X024260Y011393D02*
X024260Y010812D01*
X024252Y010802D02*
X024211Y010722D01*
X024184Y010637D01*
X024170Y010548D01*
X024170Y010503D01*
X024170Y010458D01*
X024184Y010370D01*
X024211Y010285D01*
X024252Y010205D01*
X024305Y010132D01*
X024368Y010069D01*
X024441Y010016D01*
X024521Y009975D01*
X024606Y009947D01*
X024695Y009933D01*
X025040Y009933D01*
X025384Y009933D01*
X025473Y009947D01*
X025558Y009975D01*
X025638Y010016D01*
X025711Y010069D01*
X025774Y010132D01*
X025827Y010205D01*
X025868Y010285D01*
X025895Y010370D01*
X025910Y010458D01*
X025910Y010503D01*
X025040Y010503D01*
X025040Y010503D01*
X025040Y009933D01*
X025040Y010503D01*
X025040Y010503D01*
X025910Y010503D01*
X025910Y010548D01*
X025895Y010637D01*
X025868Y010722D01*
X025827Y010802D01*
X025774Y010875D01*
X025711Y010938D01*
X025638Y010991D01*
X025558Y011032D01*
X025473Y011059D01*
X025384Y011073D01*
X025040Y011073D01*
X025040Y010503D01*
X025040Y010503D01*
X024170Y010503D01*
X025040Y010503D01*
X025040Y010503D01*
X025040Y011073D01*
X024695Y011073D01*
X024606Y011059D01*
X024521Y011032D01*
X024441Y010991D01*
X024368Y010938D01*
X024305Y010875D01*
X024252Y010802D01*
X024323Y010893D02*
X023196Y010893D01*
X023260Y010812D02*
X023260Y011393D01*
X022760Y011393D02*
X022760Y011073D01*
X022480Y010893D02*
X022480Y010893D01*
X022260Y011073D02*
X022260Y011393D01*
X021760Y011393D02*
X021760Y010889D01*
X021763Y010893D02*
X009260Y010893D01*
X009260Y010893D01*
X008760Y010893D01*
X008760Y007913D01*
X008760Y010893D01*
X008760Y007913D01*
X012280Y007913D01*
X013260Y008893D01*
X008760Y008893D01*
X006280Y008893D01*
X006280Y009393D02*
X008760Y009393D01*
X013260Y009393D01*
X013260Y009893D02*
X013260Y008893D01*
X012760Y008393D02*
X012760Y011423D01*
X012829Y011423D02*
X012958Y011552D01*
X012958Y013234D01*
X012829Y013363D01*
X011147Y013363D01*
X011018Y013234D01*
X011018Y011552D01*
X011147Y011423D01*
X012829Y011423D01*
X012958Y011893D02*
X014561Y011893D01*
X014561Y012393D02*
X012958Y012393D01*
X012958Y012893D02*
X014561Y012893D01*
X014760Y013363D02*
X014760Y014393D01*
X015260Y014393D02*
X015260Y013363D01*
X015760Y013363D02*
X015760Y014393D01*
X017260Y014393D02*
X009760Y014393D01*
X009760Y007913D01*
X010260Y007913D02*
X010260Y014393D01*
X010760Y014393D02*
X010760Y007913D01*
X011260Y007913D02*
X011260Y011423D01*
X011760Y011423D02*
X011760Y007913D01*
X012260Y007913D02*
X012260Y011423D01*
X011018Y011893D02*
X009760Y011893D01*
X009760Y011393D02*
X009760Y014393D01*
X008760Y014893D02*
X006280Y014893D01*
X006280Y015393D02*
X008453Y015393D01*
X008260Y015587D02*
X008260Y014373D01*
X008308Y014393D02*
X006280Y014393D01*
X006280Y013893D02*
X007940Y013893D01*
X008260Y013413D02*
X008260Y013373D01*
X008308Y013393D02*
X006280Y013393D01*
X006280Y012893D02*
X007940Y012893D01*
X008260Y012413D02*
X008260Y012373D01*
X008308Y012393D02*
X006280Y012393D01*
X006280Y011893D02*
X007940Y011893D01*
X008185Y011393D02*
X006280Y011393D01*
X006280Y010893D02*
X008760Y010893D01*
X008760Y010893D01*
X007890Y010893D01*
X008760Y010893D01*
X008760Y010893D01*
X008760Y010393D02*
X008760Y010393D01*
X008760Y010393D01*
X008760Y009893D02*
X013260Y009893D01*
X013260Y014393D01*
X013760Y014393D02*
X013760Y010393D01*
X009334Y010393D01*
X009260Y010359D02*
X009260Y007913D01*
X008760Y007913D02*
X007240Y007913D01*
X007260Y007913D02*
X007260Y032873D01*
X007760Y032873D02*
X007760Y029275D01*
X007878Y029393D02*
X006280Y029393D01*
X006280Y029893D02*
X008240Y029893D01*
X008260Y030129D02*
X008260Y032873D01*
X008760Y032393D02*
X006495Y032393D01*
X006760Y032658D02*
X006760Y008393D01*
X008760Y008393D01*
X012760Y008393D01*
X013260Y009893D02*
X014260Y010893D01*
X014260Y014393D01*
X012760Y014393D02*
X012760Y013363D01*
X012260Y013363D02*
X012260Y014393D01*
X011760Y014393D02*
X011760Y013363D01*
X011260Y013363D02*
X011260Y014393D01*
X011018Y012893D02*
X009760Y012893D01*
X009760Y012393D02*
X011018Y012393D01*
X008260Y010893D02*
X008260Y010893D01*
X008185Y010393D02*
X006280Y010393D01*
X006280Y009893D02*
X008760Y009893D01*
X008260Y010359D02*
X008260Y007913D01*
X007760Y007913D02*
X007760Y023511D01*
X007878Y023393D02*
X006280Y023393D01*
X006280Y022893D02*
X008378Y022893D01*
X008260Y023011D02*
X008260Y022129D01*
X008240Y021893D02*
X006280Y021893D01*
X006280Y021393D02*
X008524Y021393D01*
X008260Y021129D02*
X008260Y021658D01*
X008240Y020893D02*
X006280Y020893D01*
X006280Y020393D02*
X008453Y020393D01*
X008260Y020199D02*
X008260Y020658D01*
X008260Y019893D02*
X008260Y019893D01*
X008760Y019893D01*
X008760Y019893D01*
X009760Y019893D01*
X010760Y019893D02*
X010760Y024893D01*
X010760Y026893D01*
X011760Y025893D02*
X012260Y026393D01*
X011760Y025893D02*
X011760Y024393D01*
X011260Y023893D01*
X011260Y021393D01*
X011760Y020893D01*
X011760Y016893D01*
X010760Y015893D01*
X009760Y015893D02*
X008760Y015893D01*
X008760Y015893D01*
X008260Y015893D01*
X008260Y015893D01*
X007760Y016393D01*
X007760Y019393D01*
X008260Y019893D01*
X008190Y019893D02*
X008760Y019893D01*
X008760Y019893D01*
X006280Y019893D01*
X006280Y019393D02*
X008453Y019393D01*
X008260Y019587D02*
X008260Y018129D01*
X008240Y017893D02*
X006280Y017893D01*
X006280Y017393D02*
X008524Y017393D01*
X008260Y017129D02*
X008260Y017658D01*
X008524Y018393D02*
X006280Y018393D01*
X006280Y018893D02*
X008760Y018893D01*
X008760Y019393D02*
X008760Y019393D01*
X008760Y019893D02*
X008190Y019893D01*
X010760Y019893D02*
X010760Y017393D01*
X010260Y016893D01*
X009760Y016893D01*
X008453Y016393D02*
X006280Y016393D01*
X006280Y015893D02*
X008760Y015893D01*
X008190Y015893D01*
X008760Y015893D01*
X008760Y015893D01*
X008760Y015393D02*
X008760Y015393D01*
X008260Y016199D02*
X008260Y016658D01*
X008240Y016893D02*
X006280Y016893D01*
X012260Y019893D02*
X012760Y019393D01*
X013760Y019393D01*
X014260Y018893D01*
X014260Y017893D01*
X014760Y017393D02*
X015260Y017393D01*
X015760Y017893D01*
X012260Y019893D02*
X012260Y022393D01*
X014260Y024393D01*
X014260Y025393D01*
X014260Y026393D01*
X014260Y027893D01*
X009760Y027893D01*
X008760Y027893D01*
X008760Y026413D01*
X008544Y026413D01*
X008240Y026109D01*
X008240Y025678D01*
X008524Y025393D01*
X008240Y025109D01*
X008240Y024678D01*
X008489Y024429D01*
X008190Y024129D01*
X008190Y023893D01*
X008190Y023845D01*
X008030Y024005D01*
X008030Y028781D01*
X008240Y028991D01*
X008240Y028678D01*
X008489Y028429D01*
X008190Y028129D01*
X008190Y027893D01*
X008190Y027657D01*
X008523Y027323D01*
X008760Y027323D01*
X008760Y027893D01*
X008760Y027893D01*
X008190Y027893D01*
X008760Y027893D01*
X008760Y027893D01*
X008030Y027893D01*
X008260Y027893D02*
X008260Y027893D01*
X008260Y027587D02*
X008260Y026129D01*
X008240Y025893D02*
X008030Y025893D01*
X008260Y025658D02*
X008260Y025129D01*
X008240Y024893D02*
X008030Y024893D01*
X008260Y024658D02*
X008260Y024199D01*
X008453Y024393D02*
X008030Y024393D01*
X008141Y023893D02*
X008760Y023893D01*
X008760Y023275D01*
X008711Y023323D01*
X008760Y023323D01*
X008760Y023893D01*
X008760Y023893D01*
X008190Y023893D01*
X008760Y023893D01*
X008760Y023893D01*
X008260Y023893D02*
X008260Y023893D01*
X008760Y023393D02*
X008760Y023393D01*
X008490Y022393D02*
X006280Y022393D01*
X006280Y023893D02*
X007490Y023893D01*
X007490Y024393D02*
X006280Y024393D01*
X006280Y024893D02*
X007490Y024893D01*
X007490Y025393D02*
X006280Y025393D01*
X006280Y025893D02*
X007490Y025893D01*
X007490Y026393D02*
X006280Y026393D01*
X006280Y026893D02*
X007490Y026893D01*
X007490Y027393D02*
X006280Y027393D01*
X006280Y027893D02*
X007490Y027893D01*
X007490Y028393D02*
X006280Y028393D01*
X006280Y028893D02*
X007490Y028893D01*
X008141Y028893D02*
X008240Y028893D01*
X008260Y028658D02*
X008260Y028199D01*
X008453Y028393D02*
X008030Y028393D01*
X008030Y027393D02*
X008453Y027393D01*
X008760Y027393D02*
X008760Y027393D01*
X008760Y026893D02*
X008030Y026893D01*
X008030Y026393D02*
X008524Y026393D01*
X008524Y025393D02*
X008030Y025393D01*
X008524Y030393D02*
X006280Y030393D01*
X006280Y030893D02*
X008760Y030893D01*
X008760Y031393D02*
X006280Y031393D01*
X006280Y031893D02*
X008760Y031893D01*
X019760Y027393D02*
X019760Y023393D01*
X025260Y028893D02*
X025161Y028992D01*
X025161Y028996D01*
X025260Y029094D01*
X025260Y029393D01*
X024760Y029893D01*
X023760Y029893D01*
X023161Y029295D01*
X023161Y028996D01*
X025260Y028893D02*
X026260Y028893D01*
X026161Y028996D01*
X026260Y028893D02*
X027260Y028893D01*
X027161Y028996D01*
X027260Y028893D02*
X028260Y028893D01*
X028161Y028996D01*
X028260Y028893D02*
X029760Y027393D01*
X029760Y025893D01*
X028760Y024893D01*
X029760Y024893D02*
X030260Y025393D01*
X030260Y026393D01*
X029760Y024893D02*
X029760Y023393D01*
X033760Y027393D02*
X033760Y028397D01*
X033161Y028996D01*
X037260Y028393D02*
X037260Y025393D01*
X037760Y024893D01*
X038760Y024893D02*
X038760Y026644D01*
X039040Y026363D01*
X039260Y026363D01*
X039479Y026363D01*
X039790Y026674D01*
X039790Y026893D01*
X039260Y026893D01*
X039260Y026893D01*
X039260Y026363D01*
X039260Y026893D01*
X039260Y026893D01*
X039790Y026893D01*
X039790Y027113D01*
X039479Y027423D01*
X039260Y027423D01*
X039260Y026893D01*
X039260Y026893D01*
X039260Y027423D01*
X039040Y027423D01*
X038760Y027143D01*
X038760Y030893D01*
X047240Y030893D01*
X047240Y029794D01*
X047181Y029853D01*
X046937Y029994D01*
X046664Y030067D01*
X046382Y030067D01*
X046110Y029994D01*
X045866Y029853D01*
X045666Y029653D01*
X045525Y029409D01*
X045452Y029137D01*
X045452Y028855D01*
X045525Y028582D01*
X045666Y028338D01*
X045866Y028139D01*
X046110Y027997D01*
X046382Y027924D01*
X046664Y027924D01*
X046937Y027997D01*
X047181Y028139D01*
X047240Y028197D01*
X047240Y017590D01*
X047181Y017648D01*
X046937Y017789D01*
X046664Y017862D01*
X046382Y017862D01*
X046110Y017789D01*
X045866Y017648D01*
X045666Y017449D01*
X045525Y017204D01*
X045452Y016932D01*
X045452Y016650D01*
X045525Y016377D01*
X045666Y016133D01*
X045866Y015934D01*
X045936Y015893D01*
X038760Y015893D01*
X038760Y020773D01*
X039016Y020773D01*
X039380Y021136D01*
X039380Y021650D01*
X039016Y022013D01*
X038760Y022013D01*
X038760Y023393D01*
X038760Y023393D01*
X039230Y023393D01*
X039230Y023356D01*
X039218Y023283D01*
X039195Y023213D01*
X039161Y023147D01*
X039118Y023087D01*
X039066Y023035D01*
X039006Y022991D01*
X038940Y022958D01*
X038870Y022935D01*
X038797Y022923D01*
X038760Y022923D01*
X038760Y023393D01*
X038760Y023393D01*
X039230Y023393D01*
X039230Y023430D01*
X039218Y023503D01*
X039195Y023574D01*
X039161Y023640D01*
X039118Y023699D01*
X039066Y023752D01*
X039006Y023795D01*
X038940Y023829D01*
X038870Y023852D01*
X038797Y023863D01*
X038760Y023863D01*
X038760Y023393D01*
X038760Y023393D01*
X038760Y024893D01*
X038760Y024893D01*
X039290Y024893D01*
X039290Y024674D01*
X038979Y024363D01*
X038760Y024363D01*
X038760Y024893D01*
X038760Y024893D01*
X039290Y024893D01*
X039290Y025113D01*
X038979Y025423D01*
X038760Y025423D01*
X038760Y024893D01*
X038760Y024893D01*
X038800Y024893D02*
X038800Y024893D01*
X038760Y024933D02*
X038760Y024933D01*
X038800Y025423D02*
X038800Y026604D01*
X038790Y026613D02*
X038760Y026613D01*
X039260Y026613D02*
X039260Y026613D01*
X039360Y026363D02*
X039360Y021670D01*
X039380Y021573D02*
X045103Y021573D01*
X045103Y021762D02*
X045103Y021025D01*
X045157Y020893D01*
X045259Y020791D01*
X045391Y020736D01*
X046128Y020736D01*
X046260Y020791D01*
X046362Y020893D01*
X046416Y021025D01*
X046416Y021762D01*
X046362Y021894D01*
X046313Y021943D01*
X046361Y021991D01*
X046470Y022252D01*
X046470Y022535D01*
X046361Y022795D01*
X046264Y022893D01*
X046361Y022991D01*
X046470Y023252D01*
X046470Y023535D01*
X046361Y023795D01*
X046200Y023957D01*
X046232Y023989D01*
X046290Y024068D01*
X046334Y024155D01*
X046364Y024248D01*
X046380Y024345D01*
X046380Y024393D01*
X045760Y024393D01*
X045760Y024393D01*
X046380Y024393D01*
X046380Y024442D01*
X046364Y024538D01*
X046334Y024631D01*
X046290Y024718D01*
X046232Y024797D01*
X046200Y024830D01*
X046361Y024991D01*
X046470Y025252D01*
X046470Y025535D01*
X046361Y025795D01*
X046264Y025893D01*
X046361Y025991D01*
X046470Y026252D01*
X046470Y026535D01*
X046361Y026795D01*
X046162Y026995D01*
X045901Y027103D01*
X045618Y027103D01*
X045357Y026995D01*
X045158Y026795D01*
X045050Y026535D01*
X045050Y026252D01*
X045158Y025991D01*
X045255Y025893D01*
X045158Y025795D01*
X045050Y025535D01*
X045050Y025252D01*
X045158Y024991D01*
X045319Y024830D01*
X045287Y024797D01*
X045229Y024718D01*
X045185Y024631D01*
X045155Y024538D01*
X045140Y024442D01*
X045140Y024393D01*
X045140Y024345D01*
X045155Y024248D01*
X045185Y024155D01*
X045229Y024068D01*
X045287Y023989D01*
X045319Y023957D01*
X045158Y023795D01*
X045050Y023535D01*
X045050Y023252D01*
X045158Y022991D01*
X045255Y022893D01*
X045158Y022795D01*
X045050Y022535D01*
X045050Y022252D01*
X045158Y021991D01*
X045206Y021943D01*
X045157Y021894D01*
X045103Y021762D01*
X045099Y022133D02*
X038760Y022133D01*
X038800Y022013D02*
X038800Y022924D01*
X038760Y022693D02*
X045115Y022693D01*
X045050Y023253D02*
X039208Y023253D01*
X038800Y023393D02*
X038800Y023393D01*
X038760Y023253D02*
X038760Y023253D01*
X038760Y023813D02*
X038760Y023813D01*
X038800Y023863D02*
X038800Y024363D01*
X038760Y024373D02*
X038760Y024373D01*
X038989Y024373D02*
X045140Y024373D01*
X045140Y024393D02*
X045760Y024393D01*
X045760Y024393D01*
X045140Y024393D01*
X045520Y024393D02*
X045520Y024393D01*
X045215Y024933D02*
X039290Y024933D01*
X038760Y025493D02*
X045050Y025493D01*
X045132Y026053D02*
X038760Y026053D01*
X039360Y026893D02*
X039360Y026893D01*
X039260Y027173D02*
X039260Y027173D01*
X039360Y027423D02*
X039360Y030893D01*
X038800Y030893D02*
X038800Y027183D01*
X038790Y027173D02*
X038760Y027173D01*
X038760Y027733D02*
X047240Y027733D01*
X047200Y028157D02*
X047200Y017630D01*
X047172Y017653D02*
X047240Y017653D01*
X047240Y018213D02*
X038760Y018213D01*
X038760Y017653D02*
X045875Y017653D01*
X046080Y017772D02*
X046080Y020736D01*
X046412Y021013D02*
X047240Y021013D01*
X047240Y020453D02*
X038760Y020453D01*
X038800Y020773D02*
X038800Y016557D01*
X038807Y016581D02*
X038783Y016508D01*
X038771Y016432D01*
X038771Y016393D01*
X038771Y016355D01*
X038783Y016279D01*
X038807Y016206D01*
X038842Y016137D01*
X038887Y016075D01*
X038942Y016021D01*
X039004Y015976D01*
X039072Y015941D01*
X039145Y015917D01*
X039221Y015905D01*
X039260Y015905D01*
X039298Y015905D01*
X039374Y015917D01*
X039447Y015941D01*
X039515Y015976D01*
X039577Y016021D01*
X039632Y016075D01*
X039677Y016137D01*
X039712Y016206D01*
X039736Y016279D01*
X039748Y016355D01*
X039748Y016393D01*
X039260Y016393D01*
X039260Y016393D01*
X039260Y015905D01*
X039260Y016393D01*
X039260Y016393D01*
X039748Y016393D01*
X039748Y016432D01*
X039736Y016508D01*
X039712Y016581D01*
X039677Y016649D01*
X039632Y016711D01*
X039577Y016766D01*
X039515Y016811D01*
X039447Y016846D01*
X039374Y016869D01*
X039298Y016881D01*
X039260Y016881D01*
X039260Y016393D01*
X039260Y016393D01*
X038771Y016393D01*
X039260Y016393D01*
X039260Y016393D01*
X039260Y016881D01*
X039221Y016881D01*
X039145Y016869D01*
X039072Y016846D01*
X039004Y016811D01*
X038942Y016766D01*
X038887Y016711D01*
X038842Y016649D01*
X038807Y016581D01*
X038792Y016533D02*
X038760Y016533D01*
X038800Y016393D02*
X038800Y016393D01*
X038800Y016229D02*
X038800Y015893D01*
X038760Y015973D02*
X039009Y015973D01*
X039260Y015973D02*
X039260Y015973D01*
X039360Y015915D02*
X039360Y015893D01*
X039510Y015973D02*
X045826Y015973D01*
X045936Y015893D02*
X046110Y015793D01*
X046382Y015720D01*
X046664Y015720D01*
X046937Y015793D01*
X047111Y015893D01*
X047240Y015893D01*
X047240Y008867D01*
X045760Y006893D01*
X042760Y006893D01*
X042760Y007940D01*
X042889Y007994D01*
X042990Y008095D01*
X043045Y008227D01*
X043045Y008764D01*
X042990Y008896D01*
X042889Y008998D01*
X042760Y009051D01*
X042760Y009735D01*
X042889Y009789D01*
X042990Y009890D01*
X043045Y010022D01*
X043045Y010559D01*
X042990Y010692D01*
X042889Y010793D01*
X042760Y010846D01*
X042760Y011837D01*
X042835Y012018D01*
X042946Y011750D01*
X043216Y011479D01*
X043569Y011333D01*
X043950Y011333D01*
X044303Y011479D01*
X044573Y011750D01*
X044685Y012018D01*
X044796Y011750D01*
X045066Y011479D01*
X045419Y011333D01*
X045800Y011333D01*
X046153Y011479D01*
X046423Y011750D01*
X046570Y012102D01*
X046570Y013684D01*
X046423Y014037D01*
X046153Y014307D01*
X045800Y014453D01*
X045419Y014453D01*
X045066Y014307D01*
X044796Y014037D01*
X044685Y013769D01*
X044573Y014037D01*
X044303Y014307D01*
X043950Y014453D01*
X043569Y014453D01*
X043216Y014307D01*
X042946Y014037D01*
X042835Y013769D01*
X042760Y013950D01*
X042760Y015893D01*
X045936Y015893D01*
X045520Y015893D02*
X045520Y016398D01*
X045483Y016533D02*
X039727Y016533D01*
X039360Y016393D02*
X039360Y016393D01*
X039260Y016533D02*
X039260Y016533D01*
X039360Y016872D02*
X039360Y021116D01*
X039256Y021013D02*
X045107Y021013D01*
X045520Y020736D02*
X045520Y017184D01*
X045495Y017093D02*
X038760Y017093D01*
X039920Y015893D02*
X039920Y030893D01*
X040480Y030893D02*
X040480Y015893D01*
X041040Y015893D02*
X041040Y030893D01*
X041600Y030893D02*
X041600Y015893D01*
X042160Y015893D02*
X042160Y030893D01*
X042720Y030893D02*
X042720Y015893D01*
X042760Y015672D02*
X047240Y015672D01*
X047240Y015433D02*
X042760Y015433D01*
X042760Y015195D02*
X047240Y015195D01*
X047240Y014956D02*
X042760Y014956D01*
X042760Y014718D02*
X047240Y014718D01*
X047240Y014479D02*
X042760Y014479D01*
X042760Y014241D02*
X043149Y014241D01*
X042931Y014002D02*
X042760Y014002D01*
X044370Y014241D02*
X044999Y014241D01*
X044781Y014002D02*
X044588Y014002D01*
X046220Y014241D02*
X047240Y014241D01*
X047240Y014002D02*
X046438Y014002D01*
X046537Y013764D02*
X047240Y013764D01*
X047240Y013525D02*
X046570Y013525D01*
X046570Y013287D02*
X047240Y013287D01*
X047240Y013048D02*
X046570Y013048D01*
X046570Y012810D02*
X047240Y012810D01*
X047240Y012571D02*
X046570Y012571D01*
X046570Y012333D02*
X047240Y012333D01*
X047240Y012094D02*
X046566Y012094D01*
X046467Y011856D02*
X047240Y011856D01*
X047240Y011617D02*
X046291Y011617D01*
X045910Y011379D02*
X047240Y011379D01*
X047240Y011140D02*
X042760Y011140D01*
X042760Y010902D02*
X047240Y010902D01*
X047240Y010663D02*
X046639Y010663D01*
X046636Y010666D02*
X046592Y010696D01*
X046543Y010716D01*
X046491Y010726D01*
X045364Y010726D01*
X045364Y009513D01*
X046734Y009513D01*
X046734Y010483D01*
X046724Y010535D01*
X046704Y010584D01*
X046674Y010628D01*
X046636Y010666D01*
X046734Y010425D02*
X047240Y010425D01*
X047240Y010186D02*
X046734Y010186D01*
X046734Y009948D02*
X047240Y009948D01*
X047240Y009709D02*
X046734Y009709D01*
X046734Y009273D02*
X046734Y008304D01*
X046724Y008252D01*
X046704Y008202D01*
X046674Y008158D01*
X046636Y008121D01*
X046592Y008091D01*
X046543Y008071D01*
X046491Y008060D01*
X045364Y008060D01*
X045364Y009273D01*
X045124Y009273D01*
X045124Y008060D01*
X043997Y008060D01*
X043945Y008071D01*
X043895Y008091D01*
X043851Y008121D01*
X043814Y008158D01*
X043784Y008202D01*
X043764Y008252D01*
X043753Y008304D01*
X043753Y009273D01*
X045124Y009273D01*
X045124Y009513D01*
X043753Y009513D01*
X043753Y010483D01*
X043764Y010535D01*
X043784Y010584D01*
X043814Y010628D01*
X043851Y010666D01*
X043895Y010696D01*
X043945Y010716D01*
X043997Y010726D01*
X045124Y010726D01*
X045124Y009513D01*
X045364Y009513D01*
X045364Y009273D01*
X046734Y009273D01*
X046734Y009232D02*
X047240Y009232D01*
X047240Y008994D02*
X046734Y008994D01*
X046734Y008755D02*
X047156Y008755D01*
X046977Y008517D02*
X046734Y008517D01*
X046729Y008278D02*
X046798Y008278D01*
X046619Y008040D02*
X042935Y008040D01*
X043045Y008278D02*
X043758Y008278D01*
X043753Y008517D02*
X043045Y008517D01*
X043045Y008755D02*
X043753Y008755D01*
X043753Y008994D02*
X042893Y008994D01*
X042760Y009232D02*
X043753Y009232D01*
X043753Y009709D02*
X042760Y009709D01*
X042760Y009471D02*
X045124Y009471D01*
X045124Y009709D02*
X045364Y009709D01*
X045364Y009471D02*
X047240Y009471D01*
X045364Y009232D02*
X045124Y009232D01*
X045124Y008994D02*
X045364Y008994D01*
X045364Y008755D02*
X045124Y008755D01*
X045124Y008517D02*
X045364Y008517D01*
X045364Y008278D02*
X045124Y008278D01*
X046262Y007563D02*
X042760Y007563D01*
X042760Y007801D02*
X046441Y007801D01*
X046083Y007324D02*
X042760Y007324D01*
X042760Y007086D02*
X045904Y007086D01*
X045364Y009948D02*
X045124Y009948D01*
X045124Y010186D02*
X045364Y010186D01*
X045364Y010425D02*
X045124Y010425D01*
X045124Y010663D02*
X045364Y010663D01*
X045309Y011379D02*
X044060Y011379D01*
X044441Y011617D02*
X044928Y011617D01*
X044752Y011856D02*
X044617Y011856D01*
X043459Y011379D02*
X042760Y011379D01*
X042760Y011617D02*
X043078Y011617D01*
X042902Y011856D02*
X042767Y011856D01*
X043002Y010663D02*
X043848Y010663D01*
X043753Y010425D02*
X043045Y010425D01*
X043045Y010186D02*
X043753Y010186D01*
X043753Y009948D02*
X043014Y009948D01*
X037760Y009893D02*
X018260Y009893D01*
X017260Y010893D01*
X014260Y010893D01*
X014760Y010893D02*
X014760Y011423D01*
X015260Y011423D02*
X015260Y010893D01*
X015760Y010893D02*
X015760Y011423D01*
X016260Y011423D02*
X016260Y010893D01*
X016501Y011893D02*
X019760Y011893D01*
X019760Y006413D01*
X019260Y006413D02*
X019260Y012393D01*
X016501Y012393D01*
X018260Y009893D02*
X018260Y007393D01*
X021273Y007393D01*
X023260Y009380D02*
X023260Y010194D01*
X023339Y010393D02*
X024180Y010393D01*
X024260Y010503D02*
X024260Y010503D01*
X024260Y010194D02*
X024260Y006413D01*
X024760Y006413D02*
X024760Y009933D01*
X025260Y009933D02*
X025260Y006413D01*
X025760Y006413D02*
X025760Y010117D01*
X025899Y010393D02*
X026620Y010393D01*
X026624Y010370D02*
X026651Y010285D01*
X026692Y010205D01*
X026745Y010132D01*
X026808Y010069D01*
X026881Y010016D01*
X026961Y009975D01*
X027046Y009947D01*
X027135Y009933D01*
X027480Y009933D01*
X027824Y009933D01*
X027913Y009947D01*
X027998Y009975D01*
X028078Y010016D01*
X028151Y010069D01*
X028214Y010132D01*
X028267Y010205D01*
X028308Y010285D01*
X028335Y010370D01*
X028350Y010458D01*
X028350Y010503D01*
X027480Y010503D01*
X027480Y010503D01*
X027480Y009933D01*
X027480Y010503D01*
X027480Y010503D01*
X028350Y010503D01*
X028350Y010548D01*
X028335Y010637D01*
X028308Y010722D01*
X028267Y010802D01*
X028214Y010875D01*
X028151Y010938D01*
X028078Y010991D01*
X027998Y011032D01*
X027913Y011059D01*
X027824Y011073D01*
X027480Y011073D01*
X027480Y010503D01*
X027480Y010503D01*
X026610Y010503D01*
X026610Y010458D01*
X026624Y010370D01*
X026610Y010503D02*
X027480Y010503D01*
X027480Y010503D01*
X027480Y011073D01*
X027135Y011073D01*
X027046Y011059D01*
X026961Y011032D01*
X026881Y010991D01*
X026808Y010938D01*
X026745Y010875D01*
X026692Y010802D01*
X026651Y010722D01*
X026624Y010637D01*
X026610Y010548D01*
X026610Y010503D01*
X026760Y010503D02*
X026760Y010503D01*
X026760Y010117D02*
X026760Y006413D01*
X027260Y006413D02*
X027260Y009933D01*
X027760Y009933D02*
X027760Y006413D01*
X028260Y006413D02*
X028260Y010194D01*
X028339Y010393D02*
X029180Y010393D01*
X029184Y010370D02*
X029211Y010285D01*
X029252Y010205D01*
X029305Y010132D01*
X029368Y010069D01*
X029441Y010016D01*
X029521Y009975D01*
X029606Y009947D01*
X029695Y009933D01*
X030040Y009933D01*
X030384Y009933D01*
X030473Y009947D01*
X030558Y009975D01*
X030638Y010016D01*
X030711Y010069D01*
X030774Y010132D01*
X030827Y010205D01*
X030868Y010285D01*
X030895Y010370D01*
X030910Y010458D01*
X030910Y010503D01*
X030040Y010503D01*
X030040Y010503D01*
X030040Y009933D01*
X030040Y010503D01*
X030040Y010503D01*
X030910Y010503D01*
X030910Y010548D01*
X030895Y010637D01*
X030868Y010722D01*
X030827Y010802D01*
X030774Y010875D01*
X030711Y010938D01*
X030638Y010991D01*
X030558Y011032D01*
X030473Y011059D01*
X030384Y011073D01*
X030040Y011073D01*
X030040Y010503D01*
X030040Y010503D01*
X029170Y010503D01*
X029170Y010458D01*
X029184Y010370D01*
X029170Y010503D02*
X030040Y010503D01*
X030040Y010503D01*
X030040Y011073D01*
X029695Y011073D01*
X029606Y011059D01*
X029521Y011032D01*
X029441Y010991D01*
X029368Y010938D01*
X029305Y010875D01*
X029252Y010802D01*
X029211Y010722D01*
X029184Y010637D01*
X029170Y010548D01*
X029170Y010503D01*
X029260Y010503D02*
X029260Y010503D01*
X029260Y010194D02*
X029260Y006413D01*
X029760Y006413D02*
X029760Y009933D01*
X030260Y009933D02*
X030260Y006413D01*
X030760Y006413D02*
X030760Y010117D01*
X030899Y010393D02*
X031620Y010393D01*
X031610Y010503D02*
X032480Y010503D01*
X032480Y010503D01*
X032480Y011073D01*
X032135Y011073D01*
X032046Y011059D01*
X031961Y011032D01*
X031881Y010991D01*
X031808Y010938D01*
X031745Y010875D01*
X031692Y010802D01*
X031651Y010722D01*
X031624Y010637D01*
X031610Y010548D01*
X031610Y010503D01*
X031760Y010503D02*
X031760Y010503D01*
X031760Y010117D02*
X031760Y006413D01*
X031260Y006413D02*
X031260Y011393D01*
X031760Y011393D02*
X031760Y010889D01*
X031763Y010893D02*
X030756Y010893D01*
X030760Y010889D02*
X030760Y011393D01*
X030260Y011393D02*
X030260Y011073D01*
X030040Y010893D02*
X030040Y010893D01*
X029760Y011073D02*
X029760Y011393D01*
X029260Y011393D02*
X029260Y010812D01*
X029323Y010893D02*
X028196Y010893D01*
X028260Y010812D02*
X028260Y011393D01*
X028760Y011393D02*
X028760Y006413D01*
X026260Y006413D02*
X026260Y011393D01*
X026760Y011393D02*
X026760Y010889D01*
X026763Y010893D02*
X025756Y010893D01*
X025760Y010889D02*
X025760Y011393D01*
X025260Y011393D02*
X025260Y011073D01*
X025040Y010893D02*
X025040Y010893D01*
X024760Y011073D02*
X024760Y011393D01*
X024760Y010503D02*
X024760Y010503D01*
X025040Y010393D02*
X025040Y010393D01*
X025260Y010503D02*
X025260Y010503D01*
X025760Y010503D02*
X025760Y010503D01*
X027260Y010503D02*
X027260Y010503D01*
X027480Y010393D02*
X027480Y010393D01*
X027760Y010503D02*
X027760Y010503D01*
X027480Y010893D02*
X027480Y010893D01*
X027260Y011073D02*
X027260Y011393D01*
X027760Y011393D02*
X027760Y011073D01*
X028260Y010503D02*
X028260Y010503D01*
X029760Y010503D02*
X029760Y010503D01*
X030040Y010393D02*
X030040Y010393D01*
X030260Y010503D02*
X030260Y010503D01*
X030760Y010503D02*
X030760Y010503D01*
X032260Y010503D02*
X032260Y010503D01*
X032480Y010393D02*
X032480Y010393D01*
X032760Y010503D02*
X032760Y010503D01*
X032480Y010893D02*
X032480Y010893D01*
X032260Y011073D02*
X032260Y011393D01*
X032760Y011393D02*
X032760Y011073D01*
X033260Y010503D02*
X033260Y010503D01*
X033339Y010393D02*
X034180Y010393D01*
X034260Y010503D02*
X034260Y010503D01*
X034260Y010194D02*
X034260Y008912D01*
X034760Y009312D02*
X034760Y009933D01*
X035260Y009933D02*
X035260Y009312D01*
X035087Y008893D02*
X034932Y008893D01*
X034932Y008393D02*
X035087Y008393D01*
X035770Y008893D02*
X035799Y008893D01*
X035760Y008912D02*
X035760Y010117D01*
X035899Y010393D02*
X036620Y010393D01*
X036610Y010503D02*
X037480Y010503D01*
X037480Y010503D01*
X037480Y011073D01*
X037135Y011073D01*
X037046Y011059D01*
X036961Y011032D01*
X036881Y010991D01*
X036808Y010938D01*
X036745Y010875D01*
X036692Y010802D01*
X036651Y010722D01*
X036624Y010637D01*
X036610Y010548D01*
X036610Y010503D01*
X036760Y010503D02*
X036760Y010503D01*
X037260Y010503D02*
X037260Y010503D01*
X037480Y010393D02*
X037480Y010393D01*
X037480Y010893D02*
X037480Y010893D01*
X037260Y011073D02*
X037260Y011393D01*
X035760Y010503D02*
X035760Y010503D01*
X035260Y010503D02*
X035260Y010503D01*
X035040Y010393D02*
X035040Y010393D01*
X034760Y010503D02*
X034760Y010503D01*
X033260Y010194D02*
X033260Y008464D01*
X034932Y007393D02*
X035087Y007393D01*
X035087Y006893D02*
X034932Y006893D01*
X034760Y006475D02*
X034760Y006413D01*
X035260Y006413D02*
X035260Y006475D01*
X035760Y006413D02*
X035760Y006875D01*
X035770Y006893D02*
X035799Y006893D01*
X036260Y006525D02*
X036260Y006413D01*
X036760Y006413D02*
X036760Y006525D01*
X037260Y006413D02*
X037260Y006988D01*
X037220Y006893D02*
X037760Y006893D01*
X037760Y007393D02*
X037322Y007393D01*
X037322Y007893D02*
X037760Y007893D01*
X037760Y008393D02*
X037322Y008393D01*
X034260Y006875D02*
X034260Y006413D01*
X034249Y006893D02*
X034208Y006893D01*
X033760Y006445D02*
X033760Y006413D01*
X032760Y006413D02*
X032760Y006445D01*
X023260Y010503D02*
X023260Y010503D01*
X022760Y010503D02*
X022760Y010503D01*
X022480Y010393D02*
X022480Y010393D01*
X022260Y010503D02*
X022260Y010503D01*
X038760Y018773D02*
X047240Y018773D01*
X047240Y019333D02*
X038760Y019333D01*
X038760Y019893D02*
X047240Y019893D01*
X047240Y021573D02*
X046416Y021573D01*
X046420Y022133D02*
X047240Y022133D01*
X047240Y022693D02*
X046404Y022693D01*
X046470Y023253D02*
X047240Y023253D01*
X047240Y023813D02*
X046344Y023813D01*
X046380Y024373D02*
X047240Y024373D01*
X047240Y024933D02*
X046304Y024933D01*
X046080Y024393D02*
X046080Y024393D01*
X045175Y023813D02*
X038970Y023813D01*
X039729Y026613D02*
X045082Y026613D01*
X045520Y027062D02*
X045520Y028603D01*
X045452Y028853D02*
X038760Y028853D01*
X038760Y028293D02*
X045711Y028293D01*
X046080Y028015D02*
X046080Y027029D01*
X046437Y026613D02*
X047240Y026613D01*
X047240Y026053D02*
X046387Y026053D01*
X046470Y025493D02*
X047240Y025493D01*
X047240Y027173D02*
X039729Y027173D01*
X038760Y029413D02*
X045528Y029413D01*
X045520Y029388D02*
X045520Y030893D01*
X044960Y030893D02*
X044960Y015893D01*
X044400Y015893D02*
X044400Y030893D01*
X043840Y030893D02*
X043840Y015893D01*
X043280Y015893D02*
X043280Y030893D01*
X046080Y030893D02*
X046080Y029976D01*
X046074Y029973D02*
X038760Y029973D01*
X038760Y030533D02*
X047240Y030533D01*
X047200Y030893D02*
X047200Y029834D01*
X047240Y029973D02*
X046972Y029973D01*
X046640Y030067D02*
X046640Y030893D01*
X046640Y027924D02*
X046640Y017862D01*
D27*
X037480Y010503D02*
X037260Y010393D01*
X035260Y010393D02*
X035040Y010503D01*
X034760Y010393D01*
X033760Y010393D02*
X033760Y012393D01*
X031760Y014393D01*
X028760Y010393D02*
X028760Y019393D01*
X029760Y020393D01*
X029760Y021893D01*
X020161Y027795D02*
X020161Y028996D01*
X019161Y028996D02*
X018760Y028594D01*
X018760Y027393D01*
X019760Y027393D02*
X020161Y027795D01*
X014260Y017893D02*
X014760Y017393D01*
X014760Y015165D01*
X014744Y015149D01*
X014744Y014409D01*
X014760Y014393D01*
X009760Y014393D01*
X009760Y011393D01*
X009260Y010893D01*
X009760Y014393D02*
X009760Y015893D01*
X014760Y014393D02*
X017260Y014393D01*
D28*
X037480Y010503D02*
X040040Y010503D01*
X042150Y010503D01*
X042260Y010393D01*
X042267Y010393D01*
X042370Y010291D01*
X041760Y009393D02*
X041760Y008893D01*
X042157Y008496D01*
X042370Y008496D01*
D29*
X041760Y009393D03*
X039260Y016393D03*
X033260Y026393D03*
X033760Y027393D03*
X030260Y026393D03*
X037260Y028393D03*
X010760Y026893D03*
X010760Y024893D03*
D30*
X015260Y022893D03*
X019760Y023393D03*
X019760Y021893D03*
X014760Y018393D03*
X013260Y018893D03*
X023760Y028393D03*
X029760Y023393D03*
X026760Y019393D03*
X025760Y017393D03*
X029760Y016393D03*
X033260Y016393D03*
X033760Y017393D03*
X035760Y014893D03*
X035260Y013393D03*
X036760Y019393D03*
X038760Y023393D03*
X015260Y029893D03*
D31*
X015260Y028893D01*
X016260Y027893D01*
X016260Y023393D01*
X016760Y022893D01*
X015760Y022393D02*
X020760Y022393D01*
X020760Y023393D01*
X020260Y023893D01*
X020260Y026393D01*
X022260Y025393D02*
X022260Y028893D01*
X022161Y028996D01*
X023760Y028393D02*
X023760Y024893D01*
X022760Y024893D02*
X022260Y025393D01*
X024260Y023393D02*
X024260Y028893D01*
X024161Y028996D01*
X026760Y026893D02*
X026760Y024893D01*
X027760Y024893D02*
X027760Y025393D01*
X028760Y026393D01*
X028760Y026893D01*
X029260Y028893D02*
X030760Y027393D01*
X030760Y024893D01*
X031760Y024893D02*
X031760Y022893D01*
X031260Y022393D01*
X031260Y020893D01*
X030260Y021393D02*
X030760Y021893D01*
X030260Y021393D02*
X030260Y018893D01*
X028760Y020393D02*
X028760Y021893D01*
X030260Y022893D02*
X031260Y023893D01*
X031260Y027893D01*
X030260Y028893D01*
X030161Y028996D01*
X029260Y028893D02*
X029161Y028996D01*
X031161Y028996D02*
X033260Y026897D01*
X033260Y026393D01*
X033760Y025893D02*
X034260Y025893D01*
X034760Y025393D01*
X034760Y024893D01*
X034260Y024393D02*
X033760Y024893D01*
X034260Y024393D02*
X034260Y013393D01*
X034760Y012893D01*
X035040Y012283D01*
X035260Y013393D02*
X035260Y021393D01*
X034760Y021893D01*
X035760Y021893D02*
X035760Y014893D01*
X036760Y013393D02*
X037480Y012283D01*
X040040Y012283D01*
X036760Y013393D02*
X036760Y019393D01*
X037760Y021393D02*
X037760Y022893D01*
X035760Y024893D01*
X035760Y026393D01*
X036260Y026893D01*
X033760Y025893D02*
X033260Y025393D01*
X033260Y016393D01*
X033760Y017393D02*
X033760Y021893D01*
X032760Y021893D02*
X032760Y018393D01*
X029760Y016393D02*
X029760Y012893D01*
X030040Y012283D01*
X025760Y012893D02*
X025260Y012393D01*
X025150Y012393D01*
X025040Y012283D01*
X024760Y012393D01*
X022760Y012393D01*
X022480Y012283D01*
X025760Y012893D02*
X025760Y014393D01*
X025760Y017393D01*
X026760Y019393D02*
X026760Y021893D01*
X026760Y022893D02*
X030260Y022893D01*
X026760Y022893D02*
X025760Y023893D01*
X025760Y024893D01*
X024260Y023393D02*
X022760Y021893D01*
X020760Y022393D02*
X020760Y019893D01*
X019760Y018393D02*
X019760Y021893D01*
X015760Y022393D02*
X015260Y022893D01*
X015260Y021893D01*
X014260Y020893D01*
X014760Y019893D02*
X014760Y018393D01*
X013260Y018893D02*
X013260Y017393D01*
X013760Y016893D01*
X013760Y015149D01*
X014760Y019893D02*
X015760Y020893D01*
X014260Y022393D02*
X012760Y020893D01*
X010260Y021393D02*
X009760Y020893D01*
X010260Y021393D02*
X010260Y025393D01*
X009760Y025893D01*
X009260Y025393D02*
X009260Y022393D01*
X009760Y021893D01*
X008760Y021893D02*
X008760Y022893D01*
X007760Y023893D01*
X007760Y028893D01*
X008260Y029393D01*
X009260Y029393D01*
X009760Y029893D01*
X008760Y025893D02*
X009260Y025393D01*
D32*
X030260Y018893D03*
D33*
X031260Y020893D03*
X032760Y018393D03*
X020760Y019893D03*
X019760Y018393D03*
X016760Y022893D03*
M02*
