%
M48
M72
T01C0.0200
T02C0.0236
T03C0.0240
T04C0.0315
T05C0.0320
T06C0.0394
T07C0.0400
T08C0.0433
T09C0.0440
T10C0.0790
T11C0.0800
T12C0.0866
T13C0.1102
T14C0.1770
%
T01
X14760Y18393
X13260Y18893
X15260Y22893
X19760Y23393
X19760Y21893
X25760Y17393
X26760Y19393
X29760Y16393
X33260Y16393
X33760Y17393
X35760Y14893
X35260Y13393
X36760Y19393
X38760Y23393
X29760Y23393
X23760Y28393
X15260Y29893
T02
X10760Y26893
X10760Y24893
X16760Y22893
X20760Y19893
X19760Y18393
X30260Y26393
X33260Y26393
X33760Y27393
X37260Y28393
X31260Y20893
X32760Y18393
X39260Y16393
X41760Y9393
T03
X30260Y18893
T04
X28760Y26893
X27760Y26893
X26760Y26893
T05
X26760Y24893
X27760Y24893
X28760Y24893
X29760Y24893
X30760Y24893
X31760Y24893
X32760Y24893
X33760Y24893
X34760Y24893
X35760Y24893
X37760Y24893
X38760Y24893
X39260Y26893
X36260Y26893
X35760Y21893
X34760Y21893
X33760Y21893
X32760Y21893
X31760Y21893
X30760Y21893
X29760Y21893
X28760Y21893
X27760Y21893
X26760Y21893
X25760Y21893
X24760Y21893
X23760Y21893
X22760Y21893
X22760Y24893
X23760Y24893
X24760Y24893
X25760Y24893
X28760Y20393
X29760Y20393
X37760Y21393
X38760Y21393
X31760Y14393
X30760Y14393
X25760Y14393
X22760Y14393
X15760Y17893
X14260Y17893
X12760Y17893
X12760Y20893
X14260Y20893
X15760Y20893
X14260Y22393
X12260Y22393
X12260Y25393
X12260Y26393
X14260Y26393
X14260Y25393
X18760Y27393
X19760Y27393
X14260Y29393
X12260Y29393
T06
X45760Y21393
T07
X8760Y10893
X8760Y11893
X8760Y12893
X8760Y13893
X8760Y15893
X9760Y15893
X9760Y16893
X9760Y17893
X8760Y17893
X8760Y16893
X8760Y19893
X9760Y19893
X9760Y20893
X9760Y21893
X8760Y21893
X8760Y20893
X8760Y23893
X9760Y23893
X9760Y24893
X8760Y24893
X8760Y25893
X9760Y25893
X9760Y27893
X9760Y28893
X8760Y28893
X8760Y27893
X8760Y29893
X9760Y29893
X19161Y28996
X20161Y28996
X21161Y28996
X22161Y28996
X23161Y28996
X24161Y28996
X25161Y28996
X26161Y28996
X27161Y28996
X28161Y28996
X29161Y28996
X30161Y28996
X31161Y28996
X32161Y28996
X33161Y28996
X34161Y28996
X45760Y26393
X45760Y25393
X45760Y24393
X45760Y23393
X45760Y22393
X40040Y12283
X40040Y10503
X37480Y10503
X37480Y12283
X35040Y12283
X35040Y10503
X32480Y10503
X32480Y12283
X30040Y12283
X30040Y10503
X27480Y10503
X27480Y12283
X25040Y12283
X25040Y10503
X22480Y10503
X22480Y12283
T08
X14744Y15149
X13760Y15149
X12775Y15149
T09
X10760Y15893
X10760Y19893
X37760Y14893
X41760Y14893
T10
X36510Y7893
X35010Y7893
T11
X41910Y12893
X43760Y12893
X45610Y12893
T12
X15531Y12393
X11988Y12393
T13
X16996Y16791
X16996Y28996
X33260Y7393
X46523Y16791
X46523Y28996
T14
X40260Y32893
X22260Y32893
X22260Y8393
X40260Y8393
M30
