G75*
G70*
%OFA0B0*%
%FSLAX24Y24*%
%IPPOS*%
%LPD*%
%AMOC8*
5,1,8,0,0,1.08239X$1,22.5*
%
%ADD10C,0.0110*%
%ADD11R,0.0740X0.0740*%
%ADD12C,0.0740*%
%ADD13C,0.0520*%
%ADD14OC8,0.0520*%
%ADD15OC8,0.0620*%
%ADD16C,0.0620*%
%ADD17C,0.0660*%
%ADD18R,0.1102X0.1102*%
%ADD19R,0.0594X0.0594*%
%ADD20C,0.0700*%
%ADD21C,0.0600*%
%ADD22OC8,0.0600*%
%ADD23C,0.0240*%
%ADD24C,0.0320*%
%ADD25C,0.0400*%
%ADD26C,0.0100*%
%ADD27C,0.0440*%
D10*
X040799Y030047D02*
X040897Y029948D01*
X041094Y029948D01*
X041193Y030047D01*
X041193Y030244D02*
X040996Y030342D01*
X040897Y030342D01*
X040799Y030244D01*
X040799Y030047D01*
X041193Y030244D02*
X041193Y030539D01*
X040799Y030539D01*
X041444Y030440D02*
X041542Y030539D01*
X041739Y030539D01*
X041837Y030440D01*
X042088Y030539D02*
X042285Y030440D01*
X042482Y030244D01*
X042187Y030244D01*
X042088Y030145D01*
X042088Y030047D01*
X042187Y029948D01*
X042383Y029948D01*
X042482Y030047D01*
X042482Y030244D01*
X042733Y030440D02*
X043126Y030047D01*
X043028Y029948D01*
X042831Y029948D01*
X042733Y030047D01*
X042733Y030440D01*
X042831Y030539D01*
X043028Y030539D01*
X043126Y030440D01*
X043126Y030047D01*
X043377Y030047D02*
X043476Y029948D01*
X043672Y029948D01*
X043771Y030047D01*
X044022Y029948D02*
X044415Y029948D01*
X044219Y029948D02*
X044219Y030539D01*
X044415Y030342D01*
X044666Y030539D02*
X044666Y029948D01*
X045060Y029948D02*
X045060Y030539D01*
X044863Y030342D01*
X044666Y030539D01*
X045311Y030539D02*
X045705Y030539D01*
X045705Y029948D01*
X045705Y030244D02*
X045508Y030244D01*
X043771Y030440D02*
X043672Y030539D01*
X043476Y030539D01*
X043377Y030440D01*
X043377Y030342D01*
X043476Y030244D01*
X043377Y030145D01*
X043377Y030047D01*
X043476Y030244D02*
X043574Y030244D01*
X041837Y029948D02*
X041444Y030342D01*
X041444Y030440D01*
X041444Y029948D02*
X041837Y029948D01*
D11*
X019161Y028496D03*
D12*
X020161Y028496D03*
X021161Y028496D03*
X022161Y028496D03*
X023161Y028496D03*
X024161Y028496D03*
X025161Y028496D03*
X026161Y028496D03*
X027161Y028496D03*
X028161Y028496D03*
X029161Y028496D03*
X030161Y028496D03*
X031161Y028496D03*
X032161Y028496D03*
X033161Y028496D03*
X034161Y028496D03*
X028760Y026393D03*
X027760Y026393D03*
X026760Y026393D03*
X042760Y013393D03*
X043760Y013393D03*
X044760Y013393D03*
X045760Y010893D03*
X045760Y009893D03*
D13*
X035760Y021133D02*
X035760Y021653D01*
X034760Y021653D02*
X034760Y021133D01*
X033760Y021133D02*
X033760Y021653D01*
X032760Y021653D02*
X032760Y021133D01*
X031760Y021133D02*
X031760Y021653D01*
X030760Y021653D02*
X030760Y021133D01*
X029760Y021133D02*
X029760Y021653D01*
X028760Y021653D02*
X028760Y021133D01*
X027760Y021133D02*
X027760Y021653D01*
X026760Y021653D02*
X026760Y021133D01*
X025760Y021133D02*
X025760Y021653D01*
X024760Y021653D02*
X024760Y021133D01*
X023760Y021133D02*
X023760Y021653D01*
X022760Y021653D02*
X022760Y021133D01*
X022760Y024133D02*
X022760Y024653D01*
X023760Y024653D02*
X023760Y024133D01*
X024760Y024133D02*
X024760Y024653D01*
X025760Y024653D02*
X025760Y024133D01*
X026760Y024133D02*
X026760Y024653D01*
X027760Y024653D02*
X027760Y024133D01*
X028760Y024133D02*
X028760Y024653D01*
X029760Y024653D02*
X029760Y024133D01*
X030760Y024133D02*
X030760Y024653D01*
X031760Y024653D02*
X031760Y024133D01*
X032760Y024133D02*
X032760Y024653D01*
X033760Y024653D02*
X033760Y024133D01*
X034760Y024133D02*
X034760Y024653D01*
X035760Y024653D02*
X035760Y024133D01*
D14*
X037760Y024393D03*
X038760Y024393D03*
X039260Y026393D03*
X039260Y028393D03*
X036260Y028393D03*
X036260Y026393D03*
X037760Y020893D03*
X038760Y020893D03*
X029760Y019893D03*
X028760Y019893D03*
X025760Y013893D03*
X022760Y013893D03*
X014260Y017393D03*
X012260Y017393D03*
X012260Y020393D03*
X012260Y021893D03*
X014260Y021893D03*
X014260Y020393D03*
X014260Y024893D03*
X014260Y025893D03*
X012260Y025893D03*
X012260Y024893D03*
X012260Y028893D03*
X014260Y028893D03*
X018760Y026893D03*
X019760Y026893D03*
D15*
X031760Y013893D03*
D16*
X030760Y013893D03*
D17*
X038760Y015893D03*
X042760Y015893D03*
X014744Y014649D03*
X013760Y014649D03*
X012775Y014649D03*
D18*
X011988Y011893D03*
X015531Y011893D03*
D19*
X045760Y020893D03*
D20*
X045760Y021893D03*
X045760Y022893D03*
X045760Y023893D03*
X045760Y024893D03*
X045760Y025893D03*
D21*
X009060Y010393D02*
X008460Y010393D01*
X008460Y011393D02*
X009060Y011393D01*
X009060Y012393D02*
X008460Y012393D01*
X008460Y013393D02*
X009060Y013393D01*
X022180Y011783D02*
X022780Y011783D01*
X024740Y011783D02*
X025340Y011783D01*
X027180Y011783D02*
X027780Y011783D01*
X029740Y011783D02*
X030340Y011783D01*
X032180Y011783D02*
X032780Y011783D01*
X034740Y011783D02*
X035340Y011783D01*
X037180Y011783D02*
X037780Y011783D01*
X039740Y011783D02*
X040340Y011783D01*
X040340Y010003D02*
X039740Y010003D01*
X037780Y010003D02*
X037180Y010003D01*
X035340Y010003D02*
X034740Y010003D01*
X032780Y010003D02*
X032180Y010003D01*
X030340Y010003D02*
X029740Y010003D01*
X027780Y010003D02*
X027180Y010003D01*
X025340Y010003D02*
X024740Y010003D01*
X022780Y010003D02*
X022180Y010003D01*
D22*
X009760Y015393D03*
X009760Y016393D03*
X008760Y016393D03*
X008760Y015393D03*
X008760Y017393D03*
X009760Y017393D03*
X009760Y019393D03*
X008760Y019393D03*
X008760Y020393D03*
X009760Y020393D03*
X009760Y021393D03*
X008760Y021393D03*
X008760Y023393D03*
X009760Y023393D03*
X009760Y024393D03*
X009760Y025393D03*
X008760Y025393D03*
X008760Y024393D03*
X008760Y027393D03*
X009760Y027393D03*
X009760Y028393D03*
X008760Y028393D03*
X008760Y029393D03*
X009760Y029393D03*
D23*
X009760Y028393D02*
X010760Y028393D01*
X012260Y026893D01*
X014260Y027893D02*
X014260Y028893D01*
X012260Y028893D01*
X014260Y027893D02*
X015260Y026893D01*
X017260Y026893D01*
X018260Y027893D01*
X020760Y027893D01*
X021260Y028393D01*
X021260Y028397D01*
X021161Y028496D01*
X023161Y028496D02*
X023260Y028397D01*
X023260Y027393D02*
X033260Y027393D01*
X034260Y028393D01*
X034161Y028496D01*
X034260Y028393D02*
X034760Y027893D01*
X042260Y027893D01*
X044260Y025893D01*
X045760Y025893D01*
X045760Y024893D01*
X045760Y023893D02*
X044260Y023893D01*
X041760Y026393D01*
X039260Y026393D01*
X038760Y022893D02*
X029760Y022893D01*
X027760Y022893D01*
X019760Y022893D01*
X012260Y021893D02*
X010760Y023393D01*
X009760Y023393D01*
X008760Y023393D01*
X008760Y024393D02*
X009760Y024393D01*
X011260Y024393D01*
X012775Y014649D02*
X012775Y014409D01*
X012760Y014393D01*
X011260Y014393D01*
X009760Y014393D01*
X008760Y013393D01*
X027760Y021393D02*
X027760Y022893D01*
X040150Y010003D02*
X040260Y009893D01*
D24*
X040040Y010003D01*
X039760Y009893D01*
X037760Y009893D01*
X037480Y010003D01*
X040040Y010003D02*
X040150Y010003D01*
X040260Y009893D02*
X045760Y009893D01*
X045760Y010893D02*
X043760Y012893D01*
X043760Y013393D01*
X039760Y017893D02*
X037760Y017893D01*
X034760Y014893D01*
X030760Y014893D01*
X030760Y013893D01*
X030760Y014893D02*
X022760Y014893D01*
X015760Y014893D01*
X015260Y015393D01*
X013260Y015393D01*
X012760Y014893D01*
X012760Y014393D01*
X022760Y013893D02*
X022760Y014893D01*
X021760Y025893D02*
X018760Y025893D01*
X018760Y026893D01*
X018760Y025893D02*
X014260Y025893D01*
X012260Y025893D02*
X012260Y026893D01*
X021760Y025893D02*
X023260Y027393D01*
X023260Y028397D01*
D25*
X023760Y027893D03*
X019760Y022893D03*
X019760Y021393D03*
X015760Y019393D03*
X013260Y018393D03*
X011260Y014393D03*
X019760Y017893D03*
X025760Y016893D03*
X026760Y018893D03*
X029760Y015893D03*
X032760Y017893D03*
X033760Y016893D03*
X033260Y015893D03*
X035760Y014393D03*
X035260Y012893D03*
X039760Y017893D03*
X036760Y018893D03*
X032260Y020393D03*
X029760Y022893D03*
X033260Y026393D03*
X038760Y022893D03*
X015260Y022393D03*
X011260Y024393D03*
X015260Y029393D03*
D26*
X014760Y029893D01*
X009260Y029893D01*
X008760Y029393D01*
X009760Y025393D02*
X010260Y024893D01*
X012260Y024893D01*
X012760Y025393D01*
X032260Y025393D01*
X032760Y024893D01*
X032760Y024393D01*
X033260Y023893D02*
X032760Y023393D01*
X025260Y023393D01*
X024760Y023893D01*
X024760Y024393D01*
X024760Y022393D02*
X015260Y022393D01*
X013760Y022393D01*
X012760Y021393D01*
X009760Y021393D01*
X009260Y020893D02*
X008760Y021393D01*
X009260Y020893D02*
X014760Y020893D01*
X015260Y020393D01*
X022760Y020393D01*
X023760Y021393D01*
X024760Y021393D02*
X023260Y019893D01*
X009260Y019893D01*
X008760Y020393D01*
X008760Y017393D02*
X009260Y016893D01*
X015260Y016893D01*
X015760Y017393D01*
X030760Y017393D01*
X030260Y018393D02*
X013260Y018393D01*
X012260Y017393D02*
X009760Y017393D01*
X010760Y013393D02*
X009760Y012393D01*
X008760Y012393D01*
X008760Y011393D02*
X009760Y011393D01*
X011260Y012893D01*
X035260Y012893D01*
X034760Y013393D02*
X035760Y014393D01*
X034760Y013393D02*
X010760Y013393D01*
X015760Y019393D02*
X024260Y019393D01*
X025260Y020393D01*
X032260Y020393D01*
X032760Y017893D02*
X019760Y017893D01*
X019760Y021393D02*
X014760Y021393D01*
X014260Y021893D01*
X023760Y027893D02*
X031760Y027893D01*
X032260Y028393D01*
X032161Y028496D01*
X033260Y026393D02*
X033260Y023893D01*
X033760Y024393D02*
X034760Y023393D01*
X041760Y023393D01*
X043260Y021893D01*
X045760Y021893D01*
X045760Y020893D02*
X038760Y020893D01*
X036760Y018893D02*
X026760Y018893D01*
X025760Y016893D02*
X033760Y016893D01*
X033260Y015893D02*
X029760Y015893D01*
X029760Y011893D02*
X027760Y011893D01*
X027480Y011783D01*
X029760Y011893D02*
X030040Y011783D01*
X032480Y011783D02*
X035040Y011783D01*
X025760Y021393D02*
X024760Y022393D01*
X034760Y024393D02*
X035760Y025393D01*
X041260Y025393D01*
X043760Y022893D01*
X045760Y022893D01*
D27*
X030760Y017393D03*
X030260Y018393D03*
M02*
