G75*
G70*
%OFA0B0*%
%FSLAX24Y24*%
%IPPOS*%
%LPD*%
%AMOC8*
5,1,8,0,0,1.08239X$1,22.5*
%
%ADD10C,0.0080*%
%ADD11C,0.0060*%
%ADD12C,0.0100*%
%ADD13C,0.0040*%
%ADD14R,0.0200X0.1000*%
%ADD15R,0.0750X0.0300*%
%ADD16R,0.0340X0.0300*%
%ADD17C,0.0020*%
%ADD18C,0.0300*%
%ADD19R,0.0200X0.0300*%
%ADD20R,0.0400X0.0300*%
%ADD21R,0.0300X0.0300*%
D10*
X012145Y009767D02*
X012145Y009984D01*
X011929Y009984D01*
X011929Y010850D01*
X012145Y009767D02*
X015374Y009767D01*
X015374Y009984D01*
X015590Y009984D01*
X015590Y010850D01*
X012835Y011893D02*
X012837Y011953D01*
X012843Y012014D01*
X012853Y012073D01*
X012867Y012132D01*
X012884Y012190D01*
X012905Y012247D01*
X012930Y012302D01*
X012959Y012355D01*
X012991Y012407D01*
X013026Y012456D01*
X013065Y012503D01*
X013106Y012547D01*
X013150Y012588D01*
X013197Y012627D01*
X013246Y012662D01*
X013297Y012694D01*
X013351Y012723D01*
X013406Y012748D01*
X013463Y012769D01*
X013521Y012786D01*
X013580Y012800D01*
X013639Y012810D01*
X013700Y012816D01*
X013760Y012818D01*
X013820Y012816D01*
X013881Y012810D01*
X013940Y012800D01*
X013999Y012786D01*
X014057Y012769D01*
X014114Y012748D01*
X014169Y012723D01*
X014222Y012694D01*
X014274Y012662D01*
X014323Y012627D01*
X014370Y012588D01*
X014414Y012547D01*
X014455Y012503D01*
X014494Y012456D01*
X014529Y012407D01*
X014561Y012356D01*
X014590Y012302D01*
X014615Y012247D01*
X014636Y012190D01*
X014653Y012132D01*
X014667Y012073D01*
X014677Y012014D01*
X014683Y011953D01*
X014685Y011893D01*
X014683Y011833D01*
X014677Y011772D01*
X014667Y011713D01*
X014653Y011654D01*
X014636Y011596D01*
X014615Y011539D01*
X014590Y011484D01*
X014561Y011431D01*
X014529Y011379D01*
X014494Y011330D01*
X014455Y011283D01*
X014414Y011239D01*
X014370Y011198D01*
X014323Y011159D01*
X014274Y011124D01*
X014223Y011092D01*
X014169Y011063D01*
X014114Y011038D01*
X014057Y011017D01*
X013999Y011000D01*
X013940Y010986D01*
X013881Y010976D01*
X013820Y010970D01*
X013760Y010968D01*
X013700Y010970D01*
X013639Y010976D01*
X013580Y010986D01*
X013521Y011000D01*
X013463Y011017D01*
X013406Y011038D01*
X013351Y011063D01*
X013298Y011092D01*
X013246Y011124D01*
X013197Y011159D01*
X013150Y011198D01*
X013106Y011239D01*
X013065Y011283D01*
X013026Y011330D01*
X012991Y011379D01*
X012959Y011430D01*
X012930Y011484D01*
X012905Y011539D01*
X012884Y011596D01*
X012867Y011654D01*
X012853Y011713D01*
X012843Y011772D01*
X012837Y011833D01*
X012835Y011893D01*
X012618Y011893D02*
X012620Y011960D01*
X012626Y012027D01*
X012636Y012093D01*
X012649Y012159D01*
X012667Y012224D01*
X012688Y012287D01*
X012713Y012349D01*
X012742Y012410D01*
X012774Y012469D01*
X012809Y012526D01*
X012848Y012580D01*
X012890Y012633D01*
X012935Y012683D01*
X012983Y012730D01*
X013033Y012774D01*
X013086Y012815D01*
X013141Y012853D01*
X013199Y012888D01*
X013258Y012919D01*
X013319Y012946D01*
X013382Y012971D01*
X013446Y012991D01*
X013511Y013007D01*
X013576Y013020D01*
X013643Y013029D01*
X013710Y013034D01*
X013777Y013035D01*
X013844Y013032D01*
X013910Y013025D01*
X013977Y013014D01*
X014042Y013000D01*
X014107Y012981D01*
X014170Y012959D01*
X014232Y012933D01*
X014292Y012904D01*
X014350Y012871D01*
X014407Y012834D01*
X014461Y012795D01*
X014512Y012752D01*
X014562Y012706D01*
X014608Y012658D01*
X014651Y012607D01*
X014692Y012553D01*
X014729Y012498D01*
X014763Y012440D01*
X014793Y012380D01*
X014820Y012318D01*
X014843Y012255D01*
X014862Y012191D01*
X014878Y012126D01*
X014890Y012060D01*
X014898Y011993D01*
X014902Y011927D01*
X014902Y011859D01*
X014898Y011793D01*
X014890Y011726D01*
X014878Y011660D01*
X014862Y011595D01*
X014843Y011531D01*
X014820Y011468D01*
X014793Y011406D01*
X014763Y011346D01*
X014729Y011288D01*
X014692Y011233D01*
X014651Y011179D01*
X014608Y011128D01*
X014562Y011080D01*
X014512Y011034D01*
X014461Y010991D01*
X014407Y010952D01*
X014350Y010915D01*
X014292Y010882D01*
X014232Y010853D01*
X014170Y010827D01*
X014107Y010805D01*
X014042Y010786D01*
X013977Y010772D01*
X013910Y010761D01*
X013844Y010754D01*
X013777Y010751D01*
X013710Y010752D01*
X013643Y010757D01*
X013576Y010766D01*
X013511Y010779D01*
X013446Y010795D01*
X013382Y010815D01*
X013319Y010840D01*
X013258Y010867D01*
X013199Y010898D01*
X013141Y010933D01*
X013086Y010971D01*
X013033Y011012D01*
X012983Y011056D01*
X012935Y011103D01*
X012890Y011153D01*
X012848Y011206D01*
X012809Y011260D01*
X012774Y011317D01*
X012742Y011376D01*
X012713Y011437D01*
X012688Y011499D01*
X012667Y011562D01*
X012649Y011627D01*
X012636Y011693D01*
X012626Y011759D01*
X012620Y011826D01*
X012618Y011893D01*
X011929Y012740D02*
X011929Y014000D01*
X012145Y014000D01*
X012145Y014216D01*
X015374Y014216D01*
X015374Y014000D01*
X015590Y014000D01*
X015590Y012740D01*
X016011Y015307D02*
X016011Y029480D01*
X047508Y029480D01*
X047508Y015307D01*
X016011Y015307D01*
X017724Y017216D02*
X017724Y027570D01*
X045795Y027570D01*
X045795Y017216D01*
X017724Y017216D01*
X022260Y021693D02*
X022360Y021693D01*
X022260Y021693D02*
X022260Y024093D01*
X022360Y024093D01*
X026860Y025693D02*
X026808Y025703D01*
X026757Y025717D01*
X026707Y025735D01*
X026659Y025756D01*
X026612Y025781D01*
X026568Y025809D01*
X026525Y025841D01*
X026485Y025875D01*
X026448Y025913D01*
X026414Y025953D01*
X026382Y025995D01*
X026354Y026040D01*
X026330Y026087D01*
X026309Y026135D01*
X026291Y026185D01*
X026278Y026236D01*
X026268Y026288D01*
X026262Y026340D01*
X026260Y026393D01*
X026262Y026446D01*
X026268Y026498D01*
X026278Y026550D01*
X026291Y026601D01*
X026309Y026651D01*
X026330Y026699D01*
X026354Y026746D01*
X026382Y026791D01*
X026414Y026833D01*
X026448Y026873D01*
X026485Y026911D01*
X026525Y026945D01*
X026568Y026977D01*
X026612Y027005D01*
X026659Y027030D01*
X026707Y027051D01*
X026757Y027069D01*
X026808Y027083D01*
X026860Y027093D01*
X028659Y027093D02*
X028711Y027083D01*
X028762Y027069D01*
X028812Y027051D01*
X028860Y027030D01*
X028907Y027005D01*
X028951Y026977D01*
X028994Y026945D01*
X029034Y026911D01*
X029071Y026873D01*
X029105Y026833D01*
X029137Y026791D01*
X029165Y026746D01*
X029189Y026699D01*
X029210Y026651D01*
X029228Y026601D01*
X029241Y026550D01*
X029251Y026498D01*
X029257Y026446D01*
X029259Y026393D01*
X029257Y026340D01*
X029251Y026288D01*
X029241Y026236D01*
X029228Y026185D01*
X029210Y026135D01*
X029189Y026087D01*
X029165Y026040D01*
X029137Y025995D01*
X029105Y025953D01*
X029071Y025913D01*
X029034Y025875D01*
X028994Y025841D01*
X028951Y025809D01*
X028907Y025781D01*
X028860Y025756D01*
X028812Y025735D01*
X028762Y025717D01*
X028711Y025703D01*
X028659Y025693D01*
X036160Y024093D02*
X036260Y024093D01*
X036260Y023393D01*
X036216Y023391D01*
X036173Y023385D01*
X036131Y023376D01*
X036089Y023363D01*
X036049Y023346D01*
X036010Y023326D01*
X035973Y023303D01*
X035939Y023276D01*
X035906Y023247D01*
X035877Y023214D01*
X035850Y023180D01*
X035827Y023143D01*
X035807Y023104D01*
X035790Y023064D01*
X035777Y023022D01*
X035768Y022980D01*
X035762Y022937D01*
X035760Y022893D01*
X035762Y022849D01*
X035768Y022806D01*
X035777Y022764D01*
X035790Y022722D01*
X035807Y022682D01*
X035827Y022643D01*
X035850Y022606D01*
X035877Y022572D01*
X035906Y022539D01*
X035939Y022510D01*
X035973Y022483D01*
X036010Y022460D01*
X036049Y022440D01*
X036089Y022423D01*
X036131Y022410D01*
X036173Y022401D01*
X036216Y022395D01*
X036260Y022393D01*
X036260Y021693D01*
X036160Y021693D01*
X028660Y027093D02*
X028301Y027125D01*
X027940Y027141D01*
X027580Y027141D01*
X027219Y027125D01*
X026860Y027093D01*
X026860Y025693D02*
X027219Y025661D01*
X027580Y025645D01*
X027940Y025645D01*
X028301Y025661D01*
X028660Y025693D01*
X041470Y014250D02*
X041470Y012537D01*
X046049Y012537D01*
X046049Y014250D01*
X041470Y014250D01*
X045260Y011143D02*
X045510Y011393D01*
X046010Y011393D01*
X046260Y011143D01*
X046260Y010643D01*
X046010Y010393D01*
X046260Y010143D01*
X046260Y009643D01*
X046010Y009393D01*
X045510Y009393D01*
X045260Y009643D01*
X045260Y010143D01*
X045510Y010393D01*
X045260Y010643D01*
X045260Y011143D01*
X044050Y010743D02*
X044050Y008383D01*
X041470Y008383D02*
X041469Y010743D01*
X044050Y010743D01*
D11*
X040060Y010593D02*
X040060Y011193D01*
X039960Y011193D01*
X039960Y011293D01*
X039960Y010593D02*
X039960Y010493D01*
X039960Y010593D02*
X040060Y010593D01*
X039610Y009693D02*
X039260Y009693D01*
X038260Y009693D01*
X037910Y009693D01*
X037560Y010493D02*
X037560Y010593D01*
X037460Y010593D01*
X037460Y011193D01*
X037560Y011193D01*
X037560Y011293D01*
X037910Y012093D02*
X038310Y012093D01*
X039260Y012093D01*
X039610Y012093D01*
X038660Y010893D02*
X038662Y010913D01*
X038668Y010931D01*
X038677Y010949D01*
X038689Y010964D01*
X038704Y010976D01*
X038722Y010985D01*
X038740Y010991D01*
X038760Y010993D01*
X038780Y010991D01*
X038798Y010985D01*
X038816Y010976D01*
X038831Y010964D01*
X038843Y010949D01*
X038852Y010931D01*
X038858Y010913D01*
X038860Y010893D01*
X038858Y010873D01*
X038852Y010855D01*
X038843Y010837D01*
X038831Y010822D01*
X038816Y010810D01*
X038798Y010801D01*
X038780Y010795D01*
X038760Y010793D01*
X038740Y010795D01*
X038722Y010801D01*
X038704Y010810D01*
X038689Y010822D01*
X038677Y010837D01*
X038668Y010855D01*
X038662Y010873D01*
X038660Y010893D01*
X038060Y010893D02*
X038062Y010945D01*
X038068Y010997D01*
X038078Y011049D01*
X038091Y011099D01*
X038108Y011149D01*
X038129Y011197D01*
X038154Y011243D01*
X038182Y011287D01*
X038213Y011329D01*
X038247Y011369D01*
X038284Y011406D01*
X038324Y011440D01*
X038366Y011471D01*
X038410Y011499D01*
X038456Y011524D01*
X038504Y011545D01*
X038554Y011562D01*
X038604Y011575D01*
X038656Y011585D01*
X038708Y011591D01*
X038760Y011593D01*
X038812Y011591D01*
X038864Y011585D01*
X038916Y011575D01*
X038966Y011562D01*
X039016Y011545D01*
X039064Y011524D01*
X039110Y011499D01*
X039154Y011471D01*
X039196Y011440D01*
X039236Y011406D01*
X039273Y011369D01*
X039307Y011329D01*
X039338Y011287D01*
X039366Y011243D01*
X039391Y011197D01*
X039412Y011149D01*
X039429Y011099D01*
X039442Y011049D01*
X039452Y010997D01*
X039458Y010945D01*
X039460Y010893D01*
X039458Y010841D01*
X039452Y010789D01*
X039442Y010737D01*
X039429Y010687D01*
X039412Y010637D01*
X039391Y010589D01*
X039366Y010543D01*
X039338Y010499D01*
X039307Y010457D01*
X039273Y010417D01*
X039236Y010380D01*
X039196Y010346D01*
X039154Y010315D01*
X039110Y010287D01*
X039064Y010262D01*
X039016Y010241D01*
X038966Y010224D01*
X038916Y010211D01*
X038864Y010201D01*
X038812Y010195D01*
X038760Y010193D01*
X038708Y010195D01*
X038656Y010201D01*
X038604Y010211D01*
X038554Y010224D01*
X038504Y010241D01*
X038456Y010262D01*
X038410Y010287D01*
X038366Y010315D01*
X038324Y010346D01*
X038284Y010380D01*
X038247Y010417D01*
X038213Y010457D01*
X038182Y010499D01*
X038154Y010543D01*
X038129Y010589D01*
X038108Y010637D01*
X038091Y010687D01*
X038078Y010737D01*
X038068Y010789D01*
X038062Y010841D01*
X038060Y010893D01*
X035060Y010593D02*
X035060Y011193D01*
X034960Y011193D01*
X034960Y011293D01*
X034960Y010593D02*
X034960Y010493D01*
X034960Y010593D02*
X035060Y010593D01*
X034610Y009693D02*
X034260Y009693D01*
X033260Y009693D01*
X032910Y009693D01*
X032560Y010493D02*
X032560Y010593D01*
X032460Y010593D01*
X032460Y011193D01*
X032560Y011193D01*
X032560Y011293D01*
X032910Y012093D02*
X033310Y012093D01*
X034260Y012093D01*
X034610Y012093D01*
X033660Y010893D02*
X033662Y010913D01*
X033668Y010931D01*
X033677Y010949D01*
X033689Y010964D01*
X033704Y010976D01*
X033722Y010985D01*
X033740Y010991D01*
X033760Y010993D01*
X033780Y010991D01*
X033798Y010985D01*
X033816Y010976D01*
X033831Y010964D01*
X033843Y010949D01*
X033852Y010931D01*
X033858Y010913D01*
X033860Y010893D01*
X033858Y010873D01*
X033852Y010855D01*
X033843Y010837D01*
X033831Y010822D01*
X033816Y010810D01*
X033798Y010801D01*
X033780Y010795D01*
X033760Y010793D01*
X033740Y010795D01*
X033722Y010801D01*
X033704Y010810D01*
X033689Y010822D01*
X033677Y010837D01*
X033668Y010855D01*
X033662Y010873D01*
X033660Y010893D01*
X033060Y010893D02*
X033062Y010945D01*
X033068Y010997D01*
X033078Y011049D01*
X033091Y011099D01*
X033108Y011149D01*
X033129Y011197D01*
X033154Y011243D01*
X033182Y011287D01*
X033213Y011329D01*
X033247Y011369D01*
X033284Y011406D01*
X033324Y011440D01*
X033366Y011471D01*
X033410Y011499D01*
X033456Y011524D01*
X033504Y011545D01*
X033554Y011562D01*
X033604Y011575D01*
X033656Y011585D01*
X033708Y011591D01*
X033760Y011593D01*
X033812Y011591D01*
X033864Y011585D01*
X033916Y011575D01*
X033966Y011562D01*
X034016Y011545D01*
X034064Y011524D01*
X034110Y011499D01*
X034154Y011471D01*
X034196Y011440D01*
X034236Y011406D01*
X034273Y011369D01*
X034307Y011329D01*
X034338Y011287D01*
X034366Y011243D01*
X034391Y011197D01*
X034412Y011149D01*
X034429Y011099D01*
X034442Y011049D01*
X034452Y010997D01*
X034458Y010945D01*
X034460Y010893D01*
X034458Y010841D01*
X034452Y010789D01*
X034442Y010737D01*
X034429Y010687D01*
X034412Y010637D01*
X034391Y010589D01*
X034366Y010543D01*
X034338Y010499D01*
X034307Y010457D01*
X034273Y010417D01*
X034236Y010380D01*
X034196Y010346D01*
X034154Y010315D01*
X034110Y010287D01*
X034064Y010262D01*
X034016Y010241D01*
X033966Y010224D01*
X033916Y010211D01*
X033864Y010201D01*
X033812Y010195D01*
X033760Y010193D01*
X033708Y010195D01*
X033656Y010201D01*
X033604Y010211D01*
X033554Y010224D01*
X033504Y010241D01*
X033456Y010262D01*
X033410Y010287D01*
X033366Y010315D01*
X033324Y010346D01*
X033284Y010380D01*
X033247Y010417D01*
X033213Y010457D01*
X033182Y010499D01*
X033154Y010543D01*
X033129Y010589D01*
X033108Y010637D01*
X033091Y010687D01*
X033078Y010737D01*
X033068Y010789D01*
X033062Y010841D01*
X033060Y010893D01*
X030060Y010593D02*
X030060Y011193D01*
X029960Y011193D01*
X029960Y011293D01*
X029960Y010593D02*
X029960Y010493D01*
X029960Y010593D02*
X030060Y010593D01*
X028660Y010893D02*
X028662Y010913D01*
X028668Y010931D01*
X028677Y010949D01*
X028689Y010964D01*
X028704Y010976D01*
X028722Y010985D01*
X028740Y010991D01*
X028760Y010993D01*
X028780Y010991D01*
X028798Y010985D01*
X028816Y010976D01*
X028831Y010964D01*
X028843Y010949D01*
X028852Y010931D01*
X028858Y010913D01*
X028860Y010893D01*
X028858Y010873D01*
X028852Y010855D01*
X028843Y010837D01*
X028831Y010822D01*
X028816Y010810D01*
X028798Y010801D01*
X028780Y010795D01*
X028760Y010793D01*
X028740Y010795D01*
X028722Y010801D01*
X028704Y010810D01*
X028689Y010822D01*
X028677Y010837D01*
X028668Y010855D01*
X028662Y010873D01*
X028660Y010893D01*
X028060Y010893D02*
X028062Y010945D01*
X028068Y010997D01*
X028078Y011049D01*
X028091Y011099D01*
X028108Y011149D01*
X028129Y011197D01*
X028154Y011243D01*
X028182Y011287D01*
X028213Y011329D01*
X028247Y011369D01*
X028284Y011406D01*
X028324Y011440D01*
X028366Y011471D01*
X028410Y011499D01*
X028456Y011524D01*
X028504Y011545D01*
X028554Y011562D01*
X028604Y011575D01*
X028656Y011585D01*
X028708Y011591D01*
X028760Y011593D01*
X028812Y011591D01*
X028864Y011585D01*
X028916Y011575D01*
X028966Y011562D01*
X029016Y011545D01*
X029064Y011524D01*
X029110Y011499D01*
X029154Y011471D01*
X029196Y011440D01*
X029236Y011406D01*
X029273Y011369D01*
X029307Y011329D01*
X029338Y011287D01*
X029366Y011243D01*
X029391Y011197D01*
X029412Y011149D01*
X029429Y011099D01*
X029442Y011049D01*
X029452Y010997D01*
X029458Y010945D01*
X029460Y010893D01*
X029458Y010841D01*
X029452Y010789D01*
X029442Y010737D01*
X029429Y010687D01*
X029412Y010637D01*
X029391Y010589D01*
X029366Y010543D01*
X029338Y010499D01*
X029307Y010457D01*
X029273Y010417D01*
X029236Y010380D01*
X029196Y010346D01*
X029154Y010315D01*
X029110Y010287D01*
X029064Y010262D01*
X029016Y010241D01*
X028966Y010224D01*
X028916Y010211D01*
X028864Y010201D01*
X028812Y010195D01*
X028760Y010193D01*
X028708Y010195D01*
X028656Y010201D01*
X028604Y010211D01*
X028554Y010224D01*
X028504Y010241D01*
X028456Y010262D01*
X028410Y010287D01*
X028366Y010315D01*
X028324Y010346D01*
X028284Y010380D01*
X028247Y010417D01*
X028213Y010457D01*
X028182Y010499D01*
X028154Y010543D01*
X028129Y010589D01*
X028108Y010637D01*
X028091Y010687D01*
X028078Y010737D01*
X028068Y010789D01*
X028062Y010841D01*
X028060Y010893D01*
X027560Y010593D02*
X027560Y010493D01*
X027560Y010593D02*
X027460Y010593D01*
X027460Y011193D01*
X027560Y011193D01*
X027560Y011293D01*
X027910Y012093D02*
X028310Y012093D01*
X029260Y012093D01*
X029610Y012093D01*
X030310Y013793D02*
X030310Y013993D01*
X030410Y013893D02*
X030210Y013893D01*
X030160Y013893D02*
X030162Y013959D01*
X030168Y014024D01*
X030178Y014089D01*
X030191Y014154D01*
X030209Y014217D01*
X030230Y014280D01*
X030255Y014340D01*
X030284Y014400D01*
X030316Y014457D01*
X030351Y014513D01*
X030390Y014566D01*
X030432Y014617D01*
X030476Y014665D01*
X030524Y014710D01*
X030574Y014753D01*
X030627Y014792D01*
X030682Y014829D01*
X030739Y014862D01*
X030798Y014891D01*
X030858Y014917D01*
X030920Y014939D01*
X030983Y014958D01*
X031047Y014972D01*
X031112Y014983D01*
X031178Y014990D01*
X031244Y014993D01*
X031309Y014992D01*
X031375Y014987D01*
X031440Y014978D01*
X031505Y014965D01*
X031568Y014949D01*
X031631Y014929D01*
X031692Y014904D01*
X031752Y014877D01*
X031810Y014846D01*
X031866Y014811D01*
X031920Y014773D01*
X031971Y014732D01*
X032020Y014688D01*
X032066Y014641D01*
X032110Y014592D01*
X032150Y014540D01*
X032187Y014485D01*
X032221Y014429D01*
X032251Y014370D01*
X032278Y014310D01*
X032301Y014249D01*
X032320Y014186D01*
X032336Y014122D01*
X032348Y014057D01*
X032356Y013992D01*
X032360Y013926D01*
X032360Y013860D01*
X032356Y013794D01*
X032348Y013729D01*
X032336Y013664D01*
X032320Y013600D01*
X032301Y013537D01*
X032278Y013476D01*
X032251Y013416D01*
X032221Y013357D01*
X032187Y013301D01*
X032150Y013246D01*
X032110Y013194D01*
X032066Y013145D01*
X032020Y013098D01*
X031971Y013054D01*
X031920Y013013D01*
X031866Y012975D01*
X031810Y012940D01*
X031752Y012909D01*
X031692Y012882D01*
X031631Y012857D01*
X031568Y012837D01*
X031505Y012821D01*
X031440Y012808D01*
X031375Y012799D01*
X031309Y012794D01*
X031244Y012793D01*
X031178Y012796D01*
X031112Y012803D01*
X031047Y012814D01*
X030983Y012828D01*
X030920Y012847D01*
X030858Y012869D01*
X030798Y012895D01*
X030739Y012924D01*
X030682Y012957D01*
X030627Y012994D01*
X030574Y013033D01*
X030524Y013076D01*
X030476Y013121D01*
X030432Y013169D01*
X030390Y013220D01*
X030351Y013273D01*
X030316Y013329D01*
X030284Y013386D01*
X030255Y013446D01*
X030230Y013506D01*
X030209Y013569D01*
X030191Y013632D01*
X030178Y013697D01*
X030168Y013762D01*
X030162Y013827D01*
X030160Y013893D01*
X025510Y013543D02*
X025508Y013526D01*
X025504Y013509D01*
X025497Y013493D01*
X025487Y013479D01*
X025474Y013466D01*
X025460Y013456D01*
X025444Y013449D01*
X025427Y013445D01*
X025410Y013443D01*
X025260Y013443D01*
X025210Y013493D01*
X023310Y013493D01*
X023260Y013443D01*
X023110Y013443D01*
X023093Y013445D01*
X023076Y013449D01*
X023060Y013456D01*
X023046Y013466D01*
X023033Y013479D01*
X023023Y013493D01*
X023016Y013509D01*
X023012Y013526D01*
X023010Y013543D01*
X023010Y014243D02*
X023012Y014260D01*
X023016Y014277D01*
X023023Y014293D01*
X023033Y014307D01*
X023046Y014320D01*
X023060Y014330D01*
X023076Y014337D01*
X023093Y014341D01*
X023110Y014343D01*
X023260Y014343D01*
X023310Y014293D01*
X025210Y014293D01*
X025260Y014343D01*
X025410Y014343D01*
X025427Y014341D01*
X025444Y014337D01*
X025460Y014330D01*
X025474Y014320D01*
X025487Y014307D01*
X025497Y014293D01*
X025504Y014277D01*
X025508Y014260D01*
X025510Y014243D01*
X024610Y012093D02*
X024260Y012093D01*
X023310Y012093D01*
X022910Y012093D01*
X022560Y011293D02*
X022560Y011193D01*
X022460Y011193D01*
X022460Y010593D01*
X022560Y010593D01*
X022560Y010493D01*
X022910Y009693D02*
X023260Y009693D01*
X024260Y009693D01*
X024610Y009693D01*
X024960Y010493D02*
X024960Y010593D01*
X025060Y010593D01*
X025060Y011193D01*
X024960Y011193D01*
X024960Y011293D01*
X023660Y010893D02*
X023662Y010913D01*
X023668Y010931D01*
X023677Y010949D01*
X023689Y010964D01*
X023704Y010976D01*
X023722Y010985D01*
X023740Y010991D01*
X023760Y010993D01*
X023780Y010991D01*
X023798Y010985D01*
X023816Y010976D01*
X023831Y010964D01*
X023843Y010949D01*
X023852Y010931D01*
X023858Y010913D01*
X023860Y010893D01*
X023858Y010873D01*
X023852Y010855D01*
X023843Y010837D01*
X023831Y010822D01*
X023816Y010810D01*
X023798Y010801D01*
X023780Y010795D01*
X023760Y010793D01*
X023740Y010795D01*
X023722Y010801D01*
X023704Y010810D01*
X023689Y010822D01*
X023677Y010837D01*
X023668Y010855D01*
X023662Y010873D01*
X023660Y010893D01*
X023060Y010893D02*
X023062Y010945D01*
X023068Y010997D01*
X023078Y011049D01*
X023091Y011099D01*
X023108Y011149D01*
X023129Y011197D01*
X023154Y011243D01*
X023182Y011287D01*
X023213Y011329D01*
X023247Y011369D01*
X023284Y011406D01*
X023324Y011440D01*
X023366Y011471D01*
X023410Y011499D01*
X023456Y011524D01*
X023504Y011545D01*
X023554Y011562D01*
X023604Y011575D01*
X023656Y011585D01*
X023708Y011591D01*
X023760Y011593D01*
X023812Y011591D01*
X023864Y011585D01*
X023916Y011575D01*
X023966Y011562D01*
X024016Y011545D01*
X024064Y011524D01*
X024110Y011499D01*
X024154Y011471D01*
X024196Y011440D01*
X024236Y011406D01*
X024273Y011369D01*
X024307Y011329D01*
X024338Y011287D01*
X024366Y011243D01*
X024391Y011197D01*
X024412Y011149D01*
X024429Y011099D01*
X024442Y011049D01*
X024452Y010997D01*
X024458Y010945D01*
X024460Y010893D01*
X024458Y010841D01*
X024452Y010789D01*
X024442Y010737D01*
X024429Y010687D01*
X024412Y010637D01*
X024391Y010589D01*
X024366Y010543D01*
X024338Y010499D01*
X024307Y010457D01*
X024273Y010417D01*
X024236Y010380D01*
X024196Y010346D01*
X024154Y010315D01*
X024110Y010287D01*
X024064Y010262D01*
X024016Y010241D01*
X023966Y010224D01*
X023916Y010211D01*
X023864Y010201D01*
X023812Y010195D01*
X023760Y010193D01*
X023708Y010195D01*
X023656Y010201D01*
X023604Y010211D01*
X023554Y010224D01*
X023504Y010241D01*
X023456Y010262D01*
X023410Y010287D01*
X023366Y010315D01*
X023324Y010346D01*
X023284Y010380D01*
X023247Y010417D01*
X023213Y010457D01*
X023182Y010499D01*
X023154Y010543D01*
X023129Y010589D01*
X023108Y010637D01*
X023091Y010687D01*
X023078Y010737D01*
X023068Y010789D01*
X023062Y010841D01*
X023060Y010893D01*
X027910Y009693D02*
X028260Y009693D01*
X029260Y009693D01*
X029610Y009693D01*
X039960Y015393D02*
X039960Y016393D01*
X041560Y016393D01*
X041560Y015393D01*
X039960Y015393D01*
X040510Y015893D02*
X040760Y015893D01*
X040760Y015643D01*
X040760Y015893D02*
X040760Y016143D01*
X040760Y015893D02*
X041160Y016143D01*
X041160Y015643D01*
X040760Y015893D01*
X041360Y015893D01*
X039110Y020393D02*
X037410Y020393D01*
X037393Y020395D01*
X037376Y020399D01*
X037360Y020406D01*
X037346Y020416D01*
X037333Y020429D01*
X037323Y020443D01*
X037316Y020459D01*
X037312Y020476D01*
X037310Y020493D01*
X037310Y021293D01*
X037312Y021310D01*
X037316Y021327D01*
X037323Y021343D01*
X037333Y021357D01*
X037346Y021370D01*
X037360Y021380D01*
X037376Y021387D01*
X037393Y021391D01*
X037410Y021393D01*
X039110Y021393D01*
X039127Y021391D01*
X039144Y021387D01*
X039160Y021380D01*
X039174Y021370D01*
X039187Y021357D01*
X039197Y021343D01*
X039204Y021327D01*
X039208Y021310D01*
X039210Y021293D01*
X039210Y020493D01*
X039208Y020476D01*
X039204Y020459D01*
X039197Y020443D01*
X039187Y020429D01*
X039174Y020416D01*
X039160Y020406D01*
X039144Y020399D01*
X039127Y020395D01*
X039110Y020393D01*
X038410Y020893D02*
X038360Y020893D01*
X038160Y020893D02*
X038110Y020893D01*
X037410Y023893D02*
X039110Y023893D01*
X039127Y023895D01*
X039144Y023899D01*
X039160Y023906D01*
X039174Y023916D01*
X039187Y023929D01*
X039197Y023943D01*
X039204Y023959D01*
X039208Y023976D01*
X039210Y023993D01*
X039210Y024793D01*
X039208Y024810D01*
X039204Y024827D01*
X039197Y024843D01*
X039187Y024857D01*
X039174Y024870D01*
X039160Y024880D01*
X039144Y024887D01*
X039127Y024891D01*
X039110Y024893D01*
X037410Y024893D01*
X037393Y024891D01*
X037376Y024887D01*
X037360Y024880D01*
X037346Y024870D01*
X037333Y024857D01*
X037323Y024843D01*
X037316Y024827D01*
X037312Y024810D01*
X037310Y024793D01*
X037310Y023993D01*
X037312Y023976D01*
X037316Y023959D01*
X037323Y023943D01*
X037333Y023929D01*
X037346Y023916D01*
X037360Y023906D01*
X037376Y023899D01*
X037393Y023895D01*
X037410Y023893D01*
X038110Y024393D02*
X038160Y024393D01*
X038360Y024393D02*
X038410Y024393D01*
X038760Y025943D02*
X038910Y025943D01*
X038927Y025945D01*
X038944Y025949D01*
X038960Y025956D01*
X038974Y025966D01*
X038987Y025979D01*
X038997Y025993D01*
X039004Y026009D01*
X039008Y026026D01*
X039010Y026043D01*
X038760Y025943D02*
X038710Y025993D01*
X036810Y025993D01*
X036760Y025943D01*
X036610Y025943D01*
X036593Y025945D01*
X036576Y025949D01*
X036560Y025956D01*
X036546Y025966D01*
X036533Y025979D01*
X036523Y025993D01*
X036516Y026009D01*
X036512Y026026D01*
X036510Y026043D01*
X036510Y026743D02*
X036512Y026760D01*
X036516Y026777D01*
X036523Y026793D01*
X036533Y026807D01*
X036546Y026820D01*
X036560Y026830D01*
X036576Y026837D01*
X036593Y026841D01*
X036610Y026843D01*
X036760Y026843D01*
X036810Y026793D01*
X038710Y026793D01*
X038760Y026843D01*
X038910Y026843D01*
X038927Y026841D01*
X038944Y026837D01*
X038960Y026830D01*
X038974Y026820D01*
X038987Y026807D01*
X038997Y026793D01*
X039004Y026777D01*
X039008Y026760D01*
X039010Y026743D01*
X038910Y027943D02*
X038760Y027943D01*
X038710Y027993D01*
X036810Y027993D01*
X036760Y027943D01*
X036610Y027943D01*
X036593Y027945D01*
X036576Y027949D01*
X036560Y027956D01*
X036546Y027966D01*
X036533Y027979D01*
X036523Y027993D01*
X036516Y028009D01*
X036512Y028026D01*
X036510Y028043D01*
X036510Y028743D02*
X036512Y028760D01*
X036516Y028777D01*
X036523Y028793D01*
X036533Y028807D01*
X036546Y028820D01*
X036560Y028830D01*
X036576Y028837D01*
X036593Y028841D01*
X036610Y028843D01*
X036760Y028843D01*
X036810Y028793D01*
X038710Y028793D01*
X038760Y028843D01*
X038910Y028843D01*
X038927Y028841D01*
X038944Y028837D01*
X038960Y028830D01*
X038974Y028820D01*
X038987Y028807D01*
X038997Y028793D01*
X039004Y028777D01*
X039008Y028760D01*
X039010Y028743D01*
X039010Y028043D02*
X039008Y028026D01*
X039004Y028009D01*
X038997Y027993D01*
X038987Y027979D01*
X038974Y027966D01*
X038960Y027956D01*
X038944Y027949D01*
X038927Y027945D01*
X038910Y027943D01*
X030110Y020393D02*
X028410Y020393D01*
X028393Y020391D01*
X028376Y020387D01*
X028360Y020380D01*
X028346Y020370D01*
X028333Y020357D01*
X028323Y020343D01*
X028316Y020327D01*
X028312Y020310D01*
X028310Y020293D01*
X028310Y019493D01*
X028312Y019476D01*
X028316Y019459D01*
X028323Y019443D01*
X028333Y019429D01*
X028346Y019416D01*
X028360Y019406D01*
X028376Y019399D01*
X028393Y019395D01*
X028410Y019393D01*
X030110Y019393D01*
X030127Y019395D01*
X030144Y019399D01*
X030160Y019406D01*
X030174Y019416D01*
X030187Y019429D01*
X030197Y019443D01*
X030204Y019459D01*
X030208Y019476D01*
X030210Y019493D01*
X030210Y020293D01*
X030208Y020310D01*
X030204Y020327D01*
X030197Y020343D01*
X030187Y020357D01*
X030174Y020370D01*
X030160Y020380D01*
X030144Y020387D01*
X030127Y020391D01*
X030110Y020393D01*
X029410Y019893D02*
X029360Y019893D01*
X029160Y019893D02*
X029110Y019893D01*
X020210Y026493D02*
X020210Y027293D01*
X020208Y027310D01*
X020204Y027327D01*
X020197Y027343D01*
X020187Y027357D01*
X020174Y027370D01*
X020160Y027380D01*
X020144Y027387D01*
X020127Y027391D01*
X020110Y027393D01*
X018410Y027393D01*
X018393Y027391D01*
X018376Y027387D01*
X018360Y027380D01*
X018346Y027370D01*
X018333Y027357D01*
X018323Y027343D01*
X018316Y027327D01*
X018312Y027310D01*
X018310Y027293D01*
X018310Y026493D01*
X018312Y026476D01*
X018316Y026459D01*
X018323Y026443D01*
X018333Y026429D01*
X018346Y026416D01*
X018360Y026406D01*
X018376Y026399D01*
X018393Y026395D01*
X018410Y026393D01*
X020110Y026393D01*
X020127Y026395D01*
X020144Y026399D01*
X020160Y026406D01*
X020174Y026416D01*
X020187Y026429D01*
X020197Y026443D01*
X020204Y026459D01*
X020208Y026476D01*
X020210Y026493D01*
X019410Y026893D02*
X019360Y026893D01*
X019160Y026893D02*
X019110Y026893D01*
X014710Y026393D02*
X014660Y026443D01*
X014660Y028343D01*
X014710Y028393D01*
X014710Y028543D01*
X014708Y028560D01*
X014704Y028577D01*
X014697Y028593D01*
X014687Y028607D01*
X014674Y028620D01*
X014660Y028630D01*
X014644Y028637D01*
X014627Y028641D01*
X014610Y028643D01*
X013910Y028643D02*
X013893Y028641D01*
X013876Y028637D01*
X013860Y028630D01*
X013846Y028620D01*
X013833Y028607D01*
X013823Y028593D01*
X013816Y028577D01*
X013812Y028560D01*
X013810Y028543D01*
X013810Y028393D01*
X013860Y028343D01*
X013860Y026443D01*
X013810Y026393D01*
X013810Y026243D01*
X013812Y026226D01*
X013816Y026209D01*
X013823Y026193D01*
X013833Y026179D01*
X013846Y026166D01*
X013860Y026156D01*
X013876Y026149D01*
X013893Y026145D01*
X013910Y026143D01*
X014610Y026143D02*
X014627Y026145D01*
X014644Y026149D01*
X014660Y026156D01*
X014674Y026166D01*
X014687Y026179D01*
X014697Y026193D01*
X014704Y026209D01*
X014708Y026226D01*
X014710Y026243D01*
X014710Y026393D01*
X012710Y026393D02*
X012710Y026243D01*
X012708Y026226D01*
X012704Y026209D01*
X012697Y026193D01*
X012687Y026179D01*
X012674Y026166D01*
X012660Y026156D01*
X012644Y026149D01*
X012627Y026145D01*
X012610Y026143D01*
X012710Y026393D02*
X012660Y026443D01*
X012660Y028343D01*
X012710Y028393D01*
X012710Y028543D01*
X012708Y028560D01*
X012704Y028577D01*
X012697Y028593D01*
X012687Y028607D01*
X012674Y028620D01*
X012660Y028630D01*
X012644Y028637D01*
X012627Y028641D01*
X012610Y028643D01*
X011910Y028643D02*
X011893Y028641D01*
X011876Y028637D01*
X011860Y028630D01*
X011846Y028620D01*
X011833Y028607D01*
X011823Y028593D01*
X011816Y028577D01*
X011812Y028560D01*
X011810Y028543D01*
X011810Y028393D01*
X011860Y028343D01*
X011860Y026443D01*
X011810Y026393D01*
X011810Y026243D01*
X011812Y026226D01*
X011816Y026209D01*
X011823Y026193D01*
X011833Y026179D01*
X011846Y026166D01*
X011860Y026156D01*
X011876Y026149D01*
X011893Y026145D01*
X011910Y026143D01*
X011910Y024643D02*
X011893Y024641D01*
X011876Y024637D01*
X011860Y024630D01*
X011846Y024620D01*
X011833Y024607D01*
X011823Y024593D01*
X011816Y024577D01*
X011812Y024560D01*
X011810Y024543D01*
X011810Y024393D01*
X011860Y024343D01*
X011860Y022443D01*
X011810Y022393D01*
X011810Y022243D01*
X011812Y022226D01*
X011816Y022209D01*
X011823Y022193D01*
X011833Y022179D01*
X011846Y022166D01*
X011860Y022156D01*
X011876Y022149D01*
X011893Y022145D01*
X011910Y022143D01*
X012610Y022143D02*
X012627Y022145D01*
X012644Y022149D01*
X012660Y022156D01*
X012674Y022166D01*
X012687Y022179D01*
X012697Y022193D01*
X012704Y022209D01*
X012708Y022226D01*
X012710Y022243D01*
X012710Y022393D01*
X012660Y022443D01*
X012660Y024343D01*
X012710Y024393D01*
X012710Y024543D01*
X012708Y024560D01*
X012704Y024577D01*
X012697Y024593D01*
X012687Y024607D01*
X012674Y024620D01*
X012660Y024630D01*
X012644Y024637D01*
X012627Y024641D01*
X012610Y024643D01*
X013810Y024543D02*
X013810Y024393D01*
X013860Y024343D01*
X013860Y022443D01*
X013810Y022393D01*
X013810Y022243D01*
X013812Y022226D01*
X013816Y022209D01*
X013823Y022193D01*
X013833Y022179D01*
X013846Y022166D01*
X013860Y022156D01*
X013876Y022149D01*
X013893Y022145D01*
X013910Y022143D01*
X014610Y022143D02*
X014627Y022145D01*
X014644Y022149D01*
X014660Y022156D01*
X014674Y022166D01*
X014687Y022179D01*
X014697Y022193D01*
X014704Y022209D01*
X014708Y022226D01*
X014710Y022243D01*
X014710Y022393D01*
X014660Y022443D01*
X014660Y024343D01*
X014710Y024393D01*
X014710Y024543D01*
X014708Y024560D01*
X014704Y024577D01*
X014697Y024593D01*
X014687Y024607D01*
X014674Y024620D01*
X014660Y024630D01*
X014644Y024637D01*
X014627Y024641D01*
X014610Y024643D01*
X013910Y024643D02*
X013893Y024641D01*
X013876Y024637D01*
X013860Y024630D01*
X013846Y024620D01*
X013833Y024607D01*
X013823Y024593D01*
X013816Y024577D01*
X013812Y024560D01*
X013810Y024543D01*
X013810Y020043D02*
X013810Y019893D01*
X013860Y019843D01*
X013860Y017943D01*
X013810Y017893D01*
X013810Y017743D01*
X013812Y017726D01*
X013816Y017709D01*
X013823Y017693D01*
X013833Y017679D01*
X013846Y017666D01*
X013860Y017656D01*
X013876Y017649D01*
X013893Y017645D01*
X013910Y017643D01*
X014610Y017643D02*
X014627Y017645D01*
X014644Y017649D01*
X014660Y017656D01*
X014674Y017666D01*
X014687Y017679D01*
X014697Y017693D01*
X014704Y017709D01*
X014708Y017726D01*
X014710Y017743D01*
X014710Y017893D01*
X014660Y017943D01*
X014660Y019843D01*
X014710Y019893D01*
X014710Y020043D01*
X014708Y020060D01*
X014704Y020077D01*
X014697Y020093D01*
X014687Y020107D01*
X014674Y020120D01*
X014660Y020130D01*
X014644Y020137D01*
X014627Y020141D01*
X014610Y020143D01*
X013910Y020143D02*
X013893Y020141D01*
X013876Y020137D01*
X013860Y020130D01*
X013846Y020120D01*
X013833Y020107D01*
X013823Y020093D01*
X013816Y020077D01*
X013812Y020060D01*
X013810Y020043D01*
X012710Y020043D02*
X012710Y019893D01*
X012660Y019843D01*
X012660Y017943D01*
X012710Y017893D01*
X012710Y017743D01*
X012708Y017726D01*
X012704Y017709D01*
X012697Y017693D01*
X012687Y017679D01*
X012674Y017666D01*
X012660Y017656D01*
X012644Y017649D01*
X012627Y017645D01*
X012610Y017643D01*
X011910Y017643D02*
X011893Y017645D01*
X011876Y017649D01*
X011860Y017656D01*
X011846Y017666D01*
X011833Y017679D01*
X011823Y017693D01*
X011816Y017709D01*
X011812Y017726D01*
X011810Y017743D01*
X011810Y017893D01*
X011860Y017943D01*
X011860Y019843D01*
X011810Y019893D01*
X011810Y020043D01*
X011812Y020060D01*
X011816Y020077D01*
X011823Y020093D01*
X011833Y020107D01*
X011846Y020120D01*
X011860Y020130D01*
X011876Y020137D01*
X011893Y020141D01*
X011910Y020143D01*
X012610Y020143D02*
X012627Y020141D01*
X012644Y020137D01*
X012660Y020130D01*
X012674Y020120D01*
X012687Y020107D01*
X012697Y020093D01*
X012704Y020077D01*
X012708Y020060D01*
X012710Y020043D01*
X008010Y019893D02*
X008010Y018893D01*
X007010Y018893D01*
X007010Y019893D01*
X007010Y020893D01*
X007010Y021893D01*
X008010Y021893D01*
X008010Y020893D01*
X007010Y020893D01*
X008010Y020893D02*
X008010Y019893D01*
X007010Y019893D01*
X007010Y017893D02*
X007010Y016893D01*
X007010Y015893D01*
X007010Y014893D01*
X008010Y014893D01*
X008010Y015893D01*
X008010Y016893D01*
X008010Y017893D01*
X007010Y017893D01*
X007010Y016893D02*
X008010Y016893D01*
X008010Y015893D02*
X007010Y015893D01*
X007010Y013893D02*
X007010Y012893D01*
X007010Y011893D01*
X007010Y010893D01*
X007010Y009893D01*
X008010Y009893D01*
X008010Y010893D01*
X008010Y011893D01*
X008010Y012893D01*
X008010Y013893D01*
X007010Y013893D01*
X007010Y012893D02*
X008010Y012893D01*
X008010Y011893D02*
X007010Y011893D01*
X007010Y010893D02*
X008010Y010893D01*
X008010Y022893D02*
X007010Y022893D01*
X007010Y023893D01*
X007010Y024893D01*
X007010Y025893D01*
X008010Y025893D01*
X008010Y024893D01*
X007010Y024893D01*
X008010Y024893D02*
X008010Y023893D01*
X007010Y023893D01*
X008010Y023893D02*
X008010Y022893D01*
X008010Y026893D02*
X007010Y026893D01*
X007010Y027893D01*
X007010Y028893D01*
X007010Y029893D01*
X008010Y029893D01*
X008010Y028893D01*
X007010Y028893D01*
X008010Y028893D02*
X008010Y027893D01*
X007010Y027893D01*
X008010Y027893D02*
X008010Y026893D01*
D12*
X019160Y026893D02*
X019160Y026593D01*
X019360Y026593D02*
X019360Y026893D01*
X019360Y027193D01*
X019160Y027193D02*
X019160Y026893D01*
X029160Y020193D02*
X029160Y019893D01*
X029160Y019593D01*
X029360Y019593D02*
X029360Y019893D01*
X029360Y020193D01*
X038160Y020593D02*
X038160Y020893D01*
X038160Y021193D01*
X038360Y021193D02*
X038360Y020893D01*
X038360Y020593D01*
X038360Y024093D02*
X038360Y024393D01*
X038360Y024693D01*
X038160Y024693D02*
X038160Y024393D01*
X038160Y024093D01*
D13*
X014488Y013704D02*
X014490Y013735D01*
X014496Y013766D01*
X014505Y013796D01*
X014518Y013825D01*
X014535Y013852D01*
X014555Y013876D01*
X014577Y013898D01*
X014603Y013917D01*
X014630Y013933D01*
X014659Y013945D01*
X014689Y013954D01*
X014720Y013959D01*
X014752Y013960D01*
X014783Y013957D01*
X014814Y013950D01*
X014844Y013940D01*
X014872Y013926D01*
X014898Y013908D01*
X014922Y013888D01*
X014943Y013864D01*
X014962Y013839D01*
X014977Y013811D01*
X014988Y013782D01*
X014996Y013751D01*
X015000Y013720D01*
X015000Y013688D01*
X014996Y013657D01*
X014988Y013626D01*
X014977Y013597D01*
X014962Y013569D01*
X014943Y013544D01*
X014922Y013520D01*
X014898Y013500D01*
X014872Y013482D01*
X014844Y013468D01*
X014814Y013458D01*
X014783Y013451D01*
X014752Y013448D01*
X014720Y013449D01*
X014689Y013454D01*
X014659Y013463D01*
X014630Y013475D01*
X014603Y013491D01*
X014577Y013510D01*
X014555Y013532D01*
X014535Y013556D01*
X014518Y013583D01*
X014505Y013612D01*
X014496Y013642D01*
X014490Y013673D01*
X014488Y013704D01*
X012519Y013704D02*
X012521Y013735D01*
X012527Y013766D01*
X012536Y013796D01*
X012549Y013825D01*
X012566Y013852D01*
X012586Y013876D01*
X012608Y013898D01*
X012634Y013917D01*
X012661Y013933D01*
X012690Y013945D01*
X012720Y013954D01*
X012751Y013959D01*
X012783Y013960D01*
X012814Y013957D01*
X012845Y013950D01*
X012875Y013940D01*
X012903Y013926D01*
X012929Y013908D01*
X012953Y013888D01*
X012974Y013864D01*
X012993Y013839D01*
X013008Y013811D01*
X013019Y013782D01*
X013027Y013751D01*
X013031Y013720D01*
X013031Y013688D01*
X013027Y013657D01*
X013019Y013626D01*
X013008Y013597D01*
X012993Y013569D01*
X012974Y013544D01*
X012953Y013520D01*
X012929Y013500D01*
X012903Y013482D01*
X012875Y013468D01*
X012845Y013458D01*
X012814Y013451D01*
X012783Y013448D01*
X012751Y013449D01*
X012720Y013454D01*
X012690Y013463D01*
X012661Y013475D01*
X012634Y013491D01*
X012608Y013510D01*
X012586Y013532D01*
X012566Y013556D01*
X012549Y013583D01*
X012536Y013612D01*
X012527Y013642D01*
X012521Y013673D01*
X012519Y013704D01*
X012519Y010200D02*
X012521Y010231D01*
X012527Y010262D01*
X012536Y010292D01*
X012549Y010321D01*
X012566Y010348D01*
X012586Y010372D01*
X012608Y010394D01*
X012634Y010413D01*
X012661Y010429D01*
X012690Y010441D01*
X012720Y010450D01*
X012751Y010455D01*
X012783Y010456D01*
X012814Y010453D01*
X012845Y010446D01*
X012875Y010436D01*
X012903Y010422D01*
X012929Y010404D01*
X012953Y010384D01*
X012974Y010360D01*
X012993Y010335D01*
X013008Y010307D01*
X013019Y010278D01*
X013027Y010247D01*
X013031Y010216D01*
X013031Y010184D01*
X013027Y010153D01*
X013019Y010122D01*
X013008Y010093D01*
X012993Y010065D01*
X012974Y010040D01*
X012953Y010016D01*
X012929Y009996D01*
X012903Y009978D01*
X012875Y009964D01*
X012845Y009954D01*
X012814Y009947D01*
X012783Y009944D01*
X012751Y009945D01*
X012720Y009950D01*
X012690Y009959D01*
X012661Y009971D01*
X012634Y009987D01*
X012608Y010006D01*
X012586Y010028D01*
X012566Y010052D01*
X012549Y010079D01*
X012536Y010108D01*
X012527Y010138D01*
X012521Y010169D01*
X012519Y010200D01*
X014488Y010200D02*
X014490Y010231D01*
X014496Y010262D01*
X014505Y010292D01*
X014518Y010321D01*
X014535Y010348D01*
X014555Y010372D01*
X014577Y010394D01*
X014603Y010413D01*
X014630Y010429D01*
X014659Y010441D01*
X014689Y010450D01*
X014720Y010455D01*
X014752Y010456D01*
X014783Y010453D01*
X014814Y010446D01*
X014844Y010436D01*
X014872Y010422D01*
X014898Y010404D01*
X014922Y010384D01*
X014943Y010360D01*
X014962Y010335D01*
X014977Y010307D01*
X014988Y010278D01*
X014996Y010247D01*
X015000Y010216D01*
X015000Y010184D01*
X014996Y010153D01*
X014988Y010122D01*
X014977Y010093D01*
X014962Y010065D01*
X014943Y010040D01*
X014922Y010016D01*
X014898Y009996D01*
X014872Y009978D01*
X014844Y009964D01*
X014814Y009954D01*
X014783Y009947D01*
X014752Y009944D01*
X014720Y009945D01*
X014689Y009950D01*
X014659Y009959D01*
X014630Y009971D01*
X014603Y009987D01*
X014577Y010006D01*
X014555Y010028D01*
X014535Y010052D01*
X014518Y010079D01*
X014505Y010108D01*
X014496Y010138D01*
X014490Y010169D01*
X014488Y010200D01*
D14*
X040210Y015893D03*
D15*
X039585Y015893D03*
X041935Y015893D03*
D16*
X042760Y010933D03*
D17*
X039260Y011993D02*
X039260Y012093D01*
X039260Y011993D02*
X038310Y011993D01*
X038310Y012093D01*
X038260Y009793D02*
X038260Y009693D01*
X038260Y009793D02*
X039260Y009793D01*
X039260Y009693D01*
X034260Y009693D02*
X034260Y009793D01*
X033260Y009793D01*
X033260Y009693D01*
X033310Y011993D02*
X033310Y012093D01*
X033310Y011993D02*
X034260Y011993D01*
X034260Y012093D01*
X029260Y011993D02*
X029260Y012093D01*
X029260Y011993D02*
X028310Y011993D01*
X028310Y012093D01*
X028260Y009793D02*
X028260Y009693D01*
X028260Y009793D02*
X029260Y009793D01*
X029260Y009693D01*
X024260Y009693D02*
X024260Y009793D01*
X023260Y009793D01*
X023260Y009693D01*
X023310Y011993D02*
X023310Y012093D01*
X023310Y011993D02*
X024260Y011993D01*
X024260Y012093D01*
D18*
X006760Y012393D02*
X004510Y012393D01*
X004510Y011393D02*
X006760Y011393D01*
X006760Y010393D02*
X004510Y010393D01*
X004510Y013393D02*
X006760Y013393D01*
X006760Y015393D02*
X004510Y015393D01*
X004510Y016393D02*
X006760Y016393D01*
X006760Y017393D02*
X004510Y017393D01*
X004510Y019393D02*
X006760Y019393D01*
X006760Y020393D02*
X004510Y020393D01*
X004510Y021393D02*
X006760Y021393D01*
X006760Y023393D02*
X004510Y023393D01*
X004510Y024393D02*
X006760Y024393D01*
X006760Y025393D02*
X004510Y025393D01*
X004510Y027393D02*
X006760Y027393D01*
X006760Y028393D02*
X004510Y028393D01*
X004510Y029393D02*
X006760Y029393D01*
D19*
X006910Y029393D03*
X006910Y028393D03*
X006910Y027393D03*
X006910Y025393D03*
X006910Y024393D03*
X006910Y023393D03*
X006910Y021393D03*
X006910Y020393D03*
X006910Y019393D03*
X006910Y017393D03*
X006910Y016393D03*
X006910Y015393D03*
X006910Y013393D03*
X006910Y012393D03*
X006910Y011393D03*
X006910Y010393D03*
D20*
X008210Y010393D03*
X008210Y011393D03*
X008210Y012393D03*
X008210Y013393D03*
X008210Y015393D03*
X008210Y016393D03*
X008210Y017393D03*
X008210Y019393D03*
X008210Y020393D03*
X008210Y021393D03*
X008210Y023393D03*
X008210Y024393D03*
X008210Y025393D03*
X008210Y027393D03*
X008210Y028393D03*
X008210Y029393D03*
D21*
X009260Y029393D03*
X009260Y028393D03*
X009260Y027393D03*
X009260Y025393D03*
X009260Y024393D03*
X009260Y023393D03*
X009260Y021393D03*
X009260Y020393D03*
X009260Y019393D03*
X009260Y017393D03*
X009260Y016393D03*
X009260Y015393D03*
M02*
