G75*
G70*
%OFA0B0*%
%FSLAX24Y24*%
%IPPOS*%
%LPD*%
%AMOC8*
5,1,8,0,0,1.08239X$1,22.5*
%
%ADD10R,0.0740X0.0740*%
%ADD11C,0.0740*%
%ADD12C,0.0520*%
%ADD13OC8,0.0520*%
%ADD14OC8,0.0620*%
%ADD15C,0.0620*%
%ADD16C,0.0660*%
%ADD17R,0.1102X0.1102*%
%ADD18R,0.2126X0.2441*%
%ADD19R,0.0394X0.0630*%
%ADD20R,0.0594X0.0594*%
%ADD21C,0.0700*%
%ADD22C,0.0600*%
%ADD23OC8,0.0600*%
%ADD24C,0.0240*%
%ADD25C,0.0320*%
%ADD26C,0.0400*%
%ADD27C,0.0100*%
%ADD28C,0.0440*%
D10*
X019161Y028496D03*
D11*
X020161Y028496D03*
X021161Y028496D03*
X022161Y028496D03*
X023161Y028496D03*
X024161Y028496D03*
X025161Y028496D03*
X026161Y028496D03*
X027161Y028496D03*
X028161Y028496D03*
X029161Y028496D03*
X030161Y028496D03*
X031161Y028496D03*
X032161Y028496D03*
X033161Y028496D03*
X034161Y028496D03*
X028760Y026393D03*
X027760Y026393D03*
X026760Y026393D03*
X042760Y013393D03*
X043760Y013393D03*
X044760Y013393D03*
X045760Y010893D03*
X045760Y009893D03*
D12*
X035760Y021133D02*
X035760Y021653D01*
X034760Y021653D02*
X034760Y021133D01*
X033760Y021133D02*
X033760Y021653D01*
X032760Y021653D02*
X032760Y021133D01*
X031760Y021133D02*
X031760Y021653D01*
X030760Y021653D02*
X030760Y021133D01*
X029760Y021133D02*
X029760Y021653D01*
X028760Y021653D02*
X028760Y021133D01*
X027760Y021133D02*
X027760Y021653D01*
X026760Y021653D02*
X026760Y021133D01*
X025760Y021133D02*
X025760Y021653D01*
X024760Y021653D02*
X024760Y021133D01*
X023760Y021133D02*
X023760Y021653D01*
X022760Y021653D02*
X022760Y021133D01*
X022760Y024133D02*
X022760Y024653D01*
X023760Y024653D02*
X023760Y024133D01*
X024760Y024133D02*
X024760Y024653D01*
X025760Y024653D02*
X025760Y024133D01*
X026760Y024133D02*
X026760Y024653D01*
X027760Y024653D02*
X027760Y024133D01*
X028760Y024133D02*
X028760Y024653D01*
X029760Y024653D02*
X029760Y024133D01*
X030760Y024133D02*
X030760Y024653D01*
X031760Y024653D02*
X031760Y024133D01*
X032760Y024133D02*
X032760Y024653D01*
X033760Y024653D02*
X033760Y024133D01*
X034760Y024133D02*
X034760Y024653D01*
X035760Y024653D02*
X035760Y024133D01*
D13*
X037760Y024393D03*
X038760Y024393D03*
X039260Y026393D03*
X039260Y028393D03*
X036260Y028393D03*
X036260Y026393D03*
X037760Y020893D03*
X038760Y020893D03*
X029760Y019893D03*
X028760Y019893D03*
X025760Y013893D03*
X022760Y013893D03*
X014260Y017393D03*
X012260Y017393D03*
X012260Y020393D03*
X012260Y021893D03*
X014260Y021893D03*
X014260Y020393D03*
X014260Y024893D03*
X014260Y025893D03*
X012260Y025893D03*
X012260Y024893D03*
X012260Y028893D03*
X014260Y028893D03*
X018760Y026893D03*
X019760Y026893D03*
D14*
X031760Y013893D03*
D15*
X030760Y013893D03*
D16*
X038760Y015893D03*
X042760Y015893D03*
X014744Y014649D03*
X013760Y014649D03*
X012775Y014649D03*
D17*
X011988Y011893D03*
X015531Y011893D03*
D18*
X042760Y008909D03*
D19*
X043657Y011783D03*
X041862Y011783D03*
D20*
X045760Y020893D03*
D21*
X045760Y021893D03*
X045760Y022893D03*
X045760Y023893D03*
X045760Y024893D03*
X045760Y025893D03*
D22*
X009060Y010393D02*
X008460Y010393D01*
X008460Y011393D02*
X009060Y011393D01*
X009060Y012393D02*
X008460Y012393D01*
X008460Y013393D02*
X009060Y013393D01*
X022180Y011783D02*
X022780Y011783D01*
X024740Y011783D02*
X025340Y011783D01*
X027180Y011783D02*
X027780Y011783D01*
X029740Y011783D02*
X030340Y011783D01*
X032180Y011783D02*
X032780Y011783D01*
X034740Y011783D02*
X035340Y011783D01*
X037180Y011783D02*
X037780Y011783D01*
X039740Y011783D02*
X040340Y011783D01*
X040340Y010003D02*
X039740Y010003D01*
X037780Y010003D02*
X037180Y010003D01*
X035340Y010003D02*
X034740Y010003D01*
X032780Y010003D02*
X032180Y010003D01*
X030340Y010003D02*
X029740Y010003D01*
X027780Y010003D02*
X027180Y010003D01*
X025340Y010003D02*
X024740Y010003D01*
X022780Y010003D02*
X022180Y010003D01*
D23*
X009760Y015393D03*
X009760Y016393D03*
X008760Y016393D03*
X008760Y015393D03*
X008760Y017393D03*
X009760Y017393D03*
X009760Y019393D03*
X008760Y019393D03*
X008760Y020393D03*
X009760Y020393D03*
X009760Y021393D03*
X008760Y021393D03*
X008760Y023393D03*
X009760Y023393D03*
X009760Y024393D03*
X009760Y025393D03*
X008760Y025393D03*
X008760Y024393D03*
X008760Y027393D03*
X009760Y027393D03*
X009760Y028393D03*
X008760Y028393D03*
X008760Y029393D03*
X009760Y029393D03*
D24*
X009760Y028393D02*
X008760Y028393D01*
X008760Y027393D02*
X009760Y027393D01*
X014260Y027393D01*
X014260Y025893D01*
X014260Y024893D01*
X014260Y023893D01*
X012260Y021893D01*
X011760Y021393D01*
X011760Y013893D01*
X011260Y014393D02*
X011260Y016393D01*
X009760Y016393D01*
X008760Y016393D01*
X008760Y015393D02*
X008260Y015393D01*
X007760Y015893D01*
X007760Y018893D01*
X008260Y019393D01*
X008760Y019393D01*
X009760Y019393D01*
X011260Y016393D02*
X011260Y024393D01*
X011260Y025893D01*
X012260Y025893D01*
X019760Y026893D02*
X019760Y022893D01*
X023161Y028496D02*
X023161Y028795D01*
X023760Y029393D01*
X024760Y029393D01*
X025260Y028893D01*
X025260Y028594D01*
X025161Y028496D01*
X025161Y028492D01*
X025260Y028393D01*
X026260Y028393D01*
X026161Y028496D01*
X026260Y028393D02*
X027260Y028393D01*
X027161Y028496D01*
X027260Y028393D02*
X028260Y028393D01*
X028161Y028496D01*
X028260Y028393D02*
X028760Y027893D01*
X028760Y027393D01*
X027760Y026393D01*
X028760Y027893D02*
X029760Y026893D01*
X029760Y025393D01*
X028760Y024393D01*
X029760Y024393D02*
X029760Y022893D01*
X033161Y028496D02*
X033161Y028795D01*
X033760Y029393D01*
X035260Y029393D01*
X036260Y028393D01*
X035260Y028393D02*
X034260Y028393D01*
X034161Y028496D01*
X035260Y028393D02*
X037260Y026393D01*
X037260Y024893D01*
X037760Y024393D01*
X038760Y024393D02*
X038760Y022893D01*
X038760Y024393D02*
X038760Y025893D01*
X039260Y026393D01*
X039260Y028393D01*
X039137Y014893D02*
X038760Y014893D01*
X038760Y012223D01*
X039359Y012223D01*
X039411Y012275D01*
X039624Y012363D01*
X040455Y012363D01*
X040668Y012275D01*
X040831Y012112D01*
X040920Y011899D01*
X040920Y011668D01*
X040831Y011455D01*
X040668Y011292D01*
X040455Y011203D01*
X039624Y011203D01*
X039411Y011292D01*
X039248Y011455D01*
X039203Y011563D01*
X038760Y011563D01*
X038760Y009393D01*
X039543Y009393D01*
X039561Y009398D01*
X039958Y009398D01*
X039976Y009393D01*
X040760Y009393D01*
X041260Y008893D01*
X041260Y008110D01*
X041265Y008091D01*
X041265Y007695D01*
X041260Y007677D01*
X041260Y006393D01*
X045260Y006393D01*
X046760Y007893D01*
X046760Y014893D01*
X043200Y014893D01*
X043200Y013873D01*
X043260Y013813D01*
X043391Y013944D01*
X043630Y014043D01*
X043889Y014043D01*
X044128Y013944D01*
X044260Y013813D01*
X044391Y013944D01*
X044630Y014043D01*
X044889Y014043D01*
X045128Y013944D01*
X045311Y013762D01*
X045410Y013523D01*
X045410Y013264D01*
X045311Y013025D01*
X045128Y012842D01*
X044889Y012743D01*
X044630Y012743D01*
X044391Y012842D01*
X044260Y012974D01*
X044128Y012842D01*
X043889Y012743D01*
X043630Y012743D01*
X043391Y012842D01*
X043260Y012974D01*
X043128Y012842D01*
X042889Y012743D01*
X042630Y012743D01*
X042391Y012842D01*
X042208Y013025D01*
X042110Y013264D01*
X042110Y013523D01*
X042208Y013762D01*
X042320Y013873D01*
X042320Y014893D01*
X040382Y014893D01*
X040509Y014766D01*
X040633Y014643D01*
X040700Y014481D01*
X040700Y013576D01*
X041897Y012378D01*
X042114Y012378D01*
X042217Y012335D01*
X042296Y012257D01*
X042339Y012154D01*
X042339Y011412D01*
X042296Y011310D01*
X042217Y011231D01*
X042114Y011188D01*
X041609Y011188D01*
X041506Y011231D01*
X041428Y011310D01*
X041385Y011412D01*
X041385Y011646D01*
X039886Y013144D01*
X039820Y013306D01*
X039820Y014211D01*
X039137Y014893D01*
X039313Y014718D02*
X038760Y014718D01*
X038760Y014479D02*
X039551Y014479D01*
X039790Y014241D02*
X038760Y014241D01*
X038760Y014002D02*
X039820Y014002D01*
X039820Y013764D02*
X038760Y013764D01*
X038760Y013525D02*
X039820Y013525D01*
X039827Y013287D02*
X038760Y013287D01*
X038760Y013048D02*
X039982Y013048D01*
X040221Y012810D02*
X038760Y012810D01*
X038760Y012571D02*
X040459Y012571D01*
X040528Y012333D02*
X040698Y012333D01*
X040838Y012094D02*
X040936Y012094D01*
X040920Y011856D02*
X041175Y011856D01*
X041385Y011617D02*
X040899Y011617D01*
X040755Y011379D02*
X041399Y011379D01*
X041862Y011783D02*
X041862Y011791D01*
X041760Y011893D01*
X042339Y011856D02*
X043180Y011856D01*
X043180Y012094D02*
X042339Y012094D01*
X042220Y012333D02*
X043299Y012333D01*
X043302Y012335D02*
X043223Y012257D01*
X043180Y012154D01*
X043180Y011412D01*
X043223Y011310D01*
X043302Y011231D01*
X043405Y011188D01*
X043910Y011188D01*
X044013Y011231D01*
X044091Y011310D01*
X044105Y011343D01*
X044187Y011343D01*
X044320Y011211D01*
X044320Y010306D01*
X044386Y010144D01*
X044886Y009644D01*
X045010Y009520D01*
X045172Y009453D01*
X045280Y009453D01*
X045391Y009342D01*
X045630Y009243D01*
X045889Y009243D01*
X046128Y009342D01*
X046311Y009525D01*
X046410Y009764D01*
X046410Y010023D01*
X046311Y010262D01*
X046179Y010393D01*
X046311Y010525D01*
X046410Y010764D01*
X046410Y011023D01*
X046311Y011262D01*
X046128Y011444D01*
X045889Y011543D01*
X045630Y011543D01*
X045391Y011444D01*
X045208Y011262D01*
X045200Y011240D01*
X045200Y011481D01*
X045133Y011643D01*
X045009Y011766D01*
X044619Y012156D01*
X044457Y012223D01*
X044105Y012223D01*
X044091Y012257D01*
X044013Y012335D01*
X043910Y012378D01*
X043405Y012378D01*
X043302Y012335D01*
X043470Y012810D02*
X043049Y012810D01*
X042470Y012810D02*
X041465Y012810D01*
X041227Y013048D02*
X042199Y013048D01*
X042110Y013287D02*
X040988Y013287D01*
X040750Y013525D02*
X042111Y013525D01*
X042211Y013764D02*
X040700Y013764D01*
X040700Y014002D02*
X042320Y014002D01*
X042320Y014241D02*
X040700Y014241D01*
X040700Y014479D02*
X042320Y014479D01*
X042320Y014718D02*
X040557Y014718D01*
X041704Y012571D02*
X046760Y012571D01*
X046760Y012333D02*
X044015Y012333D01*
X044049Y012810D02*
X044470Y012810D01*
X045049Y012810D02*
X046760Y012810D01*
X046760Y013048D02*
X045320Y013048D01*
X045410Y013287D02*
X046760Y013287D01*
X046760Y013525D02*
X045408Y013525D01*
X045308Y013764D02*
X046760Y013764D01*
X046760Y014002D02*
X044988Y014002D01*
X044531Y014002D02*
X043988Y014002D01*
X043531Y014002D02*
X043200Y014002D01*
X043200Y014241D02*
X046760Y014241D01*
X046760Y014479D02*
X043200Y014479D01*
X043200Y014718D02*
X046760Y014718D01*
X046760Y012094D02*
X044681Y012094D01*
X044919Y011856D02*
X046760Y011856D01*
X046760Y011617D02*
X045143Y011617D01*
X045200Y011379D02*
X045326Y011379D01*
X046193Y011379D02*
X046760Y011379D01*
X046760Y011140D02*
X046361Y011140D01*
X046410Y010902D02*
X046760Y010902D01*
X046760Y010663D02*
X046368Y010663D01*
X046210Y010425D02*
X046760Y010425D01*
X046760Y010186D02*
X046342Y010186D01*
X046410Y009948D02*
X046760Y009948D01*
X046760Y009709D02*
X046387Y009709D01*
X046256Y009471D02*
X046760Y009471D01*
X046760Y009232D02*
X044093Y009232D01*
X044093Y009029D02*
X044093Y010156D01*
X044082Y010208D01*
X044062Y010257D01*
X044032Y010302D01*
X043995Y010339D01*
X043950Y010369D01*
X043901Y010389D01*
X043849Y010400D01*
X042880Y010400D01*
X042880Y009029D01*
X044093Y009029D01*
X044093Y008789D02*
X042880Y008789D01*
X042880Y009029D01*
X042640Y009029D01*
X042640Y010400D01*
X041670Y010400D01*
X041618Y010389D01*
X041569Y010369D01*
X041524Y010339D01*
X041487Y010302D01*
X041457Y010257D01*
X041437Y010208D01*
X041427Y010156D01*
X041427Y009029D01*
X042640Y009029D01*
X042640Y008789D01*
X042880Y008789D01*
X042880Y007419D01*
X043849Y007419D01*
X043901Y007429D01*
X043950Y007449D01*
X043995Y007479D01*
X044032Y007516D01*
X044062Y007561D01*
X044082Y007610D01*
X044093Y007662D01*
X044093Y008789D01*
X044093Y008755D02*
X046760Y008755D01*
X046760Y008517D02*
X044093Y008517D01*
X044093Y008278D02*
X046760Y008278D01*
X046760Y008040D02*
X044093Y008040D01*
X044093Y007801D02*
X046668Y007801D01*
X046429Y007563D02*
X044063Y007563D01*
X042880Y007563D02*
X042640Y007563D01*
X042640Y007419D02*
X041670Y007419D01*
X041618Y007429D01*
X041569Y007449D01*
X041524Y007479D01*
X041487Y007516D01*
X041457Y007561D01*
X041437Y007610D01*
X041427Y007662D01*
X041427Y008789D01*
X042640Y008789D01*
X042640Y007419D01*
X042640Y007801D02*
X042880Y007801D01*
X042880Y008040D02*
X042640Y008040D01*
X042640Y008278D02*
X042880Y008278D01*
X042880Y008517D02*
X042640Y008517D01*
X042640Y008755D02*
X042880Y008755D01*
X042880Y008994D02*
X046760Y008994D01*
X045130Y009471D02*
X044093Y009471D01*
X044093Y009709D02*
X044821Y009709D01*
X044583Y009948D02*
X044093Y009948D01*
X044086Y010186D02*
X044369Y010186D01*
X044320Y010425D02*
X040738Y010425D01*
X040668Y010495D02*
X040455Y010583D01*
X039624Y010583D01*
X039411Y010495D01*
X039248Y010332D01*
X039160Y010119D01*
X039160Y009888D01*
X039248Y009675D01*
X039411Y009512D01*
X039624Y009423D01*
X040455Y009423D01*
X040668Y009512D01*
X040831Y009675D01*
X040920Y009888D01*
X040920Y010119D01*
X040831Y010332D01*
X040668Y010495D01*
X040891Y010186D02*
X041433Y010186D01*
X041427Y009948D02*
X040920Y009948D01*
X040846Y009709D02*
X041427Y009709D01*
X041427Y009471D02*
X040570Y009471D01*
X040921Y009232D02*
X041427Y009232D01*
X041159Y008994D02*
X042640Y008994D01*
X042640Y009232D02*
X042880Y009232D01*
X042880Y009471D02*
X042640Y009471D01*
X042640Y009709D02*
X042880Y009709D01*
X042880Y009948D02*
X042640Y009948D01*
X042640Y010186D02*
X042880Y010186D01*
X043194Y011379D02*
X042325Y011379D01*
X042339Y011617D02*
X043180Y011617D01*
X044320Y011140D02*
X038760Y011140D01*
X038760Y010902D02*
X044320Y010902D01*
X044320Y010663D02*
X038760Y010663D01*
X038760Y010425D02*
X039341Y010425D01*
X039188Y010186D02*
X038760Y010186D01*
X038760Y009948D02*
X039160Y009948D01*
X039234Y009709D02*
X038760Y009709D01*
X038760Y009471D02*
X039509Y009471D01*
X041260Y008755D02*
X041427Y008755D01*
X041427Y008517D02*
X041260Y008517D01*
X041260Y008278D02*
X041427Y008278D01*
X041427Y008040D02*
X041265Y008040D01*
X041265Y007801D02*
X041427Y007801D01*
X041456Y007563D02*
X041260Y007563D01*
X041260Y007324D02*
X046191Y007324D01*
X045952Y007086D02*
X041260Y007086D01*
X041260Y006847D02*
X045714Y006847D01*
X045475Y006609D02*
X041260Y006609D01*
X039324Y011379D02*
X038760Y011379D01*
X038760Y012333D02*
X039551Y012333D01*
X032870Y010003D02*
X032480Y010003D01*
X032260Y009893D01*
X022480Y010003D02*
X022260Y009893D01*
X009760Y015393D02*
X008760Y015393D01*
X008760Y010393D02*
X009260Y010393D01*
D25*
X009760Y010893D01*
X009760Y013893D01*
X011760Y013893D01*
X014760Y013893D01*
X014744Y013909D01*
X014744Y014649D01*
X014760Y014665D01*
X014760Y016893D01*
X014260Y017393D01*
X009760Y015393D02*
X009760Y013893D01*
X014760Y013893D02*
X017260Y013893D01*
X021260Y009893D01*
X022260Y009893D01*
X022480Y010003D02*
X022760Y009893D01*
X024760Y009893D01*
X025040Y010003D01*
X025260Y009893D01*
X027260Y009893D01*
X027480Y010003D01*
X027760Y009893D01*
X028760Y009893D01*
X028760Y018893D01*
X029760Y019893D01*
X029760Y021393D01*
X038760Y022893D02*
X039760Y021893D01*
X039760Y017893D01*
X041260Y016893D01*
X041260Y013893D01*
X042760Y012393D01*
X042760Y008909D01*
X044760Y010393D02*
X045260Y009893D01*
X045760Y009893D01*
X044760Y010393D02*
X044760Y011393D01*
X044370Y011783D01*
X043657Y011783D01*
X041870Y011783D02*
X041760Y011893D01*
X040260Y013393D01*
X040260Y014393D01*
X038760Y015893D01*
X042760Y015893D02*
X042760Y013393D01*
X037480Y010003D02*
X037260Y009893D01*
X035260Y009893D01*
X035040Y010003D01*
X034760Y009893D01*
X033760Y009893D01*
X033760Y011893D01*
X031760Y013893D01*
X032480Y010003D02*
X032760Y009893D01*
X033760Y009893D01*
X032260Y009893D02*
X030260Y009893D01*
X030040Y010003D01*
X029760Y009893D01*
X028760Y009893D01*
X019760Y026893D02*
X020161Y027295D01*
X020161Y028496D01*
X019161Y028496D02*
X018760Y028094D01*
X018760Y026893D01*
D26*
X015260Y029393D03*
X011260Y024393D03*
X015260Y022393D03*
X015760Y019393D03*
X013260Y018393D03*
X011260Y014393D03*
X019760Y017893D03*
X019760Y021393D03*
X019760Y022893D03*
X023760Y027893D03*
X029760Y022893D03*
X032260Y020393D03*
X032760Y017893D03*
X033760Y016893D03*
X033260Y015893D03*
X035760Y014393D03*
X035260Y012893D03*
X029760Y015893D03*
X025760Y016893D03*
X026760Y018893D03*
X033260Y026393D03*
X038760Y022893D03*
X036760Y018893D03*
X039760Y017893D03*
D27*
X036760Y018893D02*
X036760Y012893D01*
X037480Y011783D01*
X037760Y011893D01*
X039760Y011893D01*
X040040Y011783D01*
X035760Y014393D02*
X035760Y021393D01*
X035260Y020893D02*
X034760Y021393D01*
X035260Y020893D02*
X035260Y012893D01*
X034760Y012393D02*
X034260Y012893D01*
X034260Y023893D01*
X033760Y024393D01*
X033260Y024893D02*
X033760Y025393D01*
X034260Y025393D01*
X034760Y024893D01*
X034760Y024393D01*
X035760Y024393D02*
X037760Y022393D01*
X037760Y020893D01*
X033760Y021393D02*
X033760Y016893D01*
X032760Y017893D02*
X032760Y021393D01*
X031760Y021393D02*
X030760Y020393D01*
X030760Y017393D01*
X030260Y018393D02*
X030260Y020893D01*
X030760Y021393D01*
X030260Y022393D02*
X031260Y023393D01*
X031260Y027393D01*
X030260Y028393D01*
X030161Y028496D01*
X029260Y028393D02*
X029161Y028496D01*
X029260Y028393D02*
X030760Y026893D01*
X030760Y024393D01*
X031760Y024393D02*
X031760Y023393D01*
X032260Y022893D01*
X032260Y020393D01*
X030260Y022393D02*
X026760Y022393D01*
X025760Y023393D01*
X025760Y024393D01*
X026760Y024393D02*
X026760Y026393D01*
X027760Y024893D02*
X027760Y024393D01*
X027760Y024893D02*
X028760Y025893D01*
X028760Y026393D01*
X031161Y028496D02*
X033260Y026393D01*
X033260Y024893D02*
X033260Y015893D01*
X029760Y015893D02*
X029760Y012393D01*
X030040Y011783D01*
X025760Y012393D02*
X025260Y011893D01*
X025150Y011893D01*
X025040Y011783D01*
X024760Y011893D01*
X022760Y011893D01*
X022480Y011783D01*
X025760Y012393D02*
X025760Y013893D01*
X025760Y016893D01*
X026760Y018893D02*
X026760Y021393D01*
X028760Y021393D02*
X028760Y019893D01*
X024260Y022893D02*
X024260Y028393D01*
X024161Y028496D01*
X023760Y027893D02*
X023760Y024393D01*
X022760Y024393D02*
X022260Y024893D01*
X022260Y028393D01*
X022161Y028496D01*
X024260Y022893D02*
X022760Y021393D01*
X019760Y021393D02*
X019760Y017893D01*
X015760Y019393D02*
X015760Y022893D01*
X015260Y023393D01*
X015260Y029393D01*
X009760Y029393D02*
X009260Y028893D01*
X008260Y028893D01*
X007760Y028393D01*
X007760Y023393D01*
X008760Y022393D01*
X008760Y021393D01*
X009260Y021893D02*
X009760Y021393D01*
X010260Y020893D02*
X009760Y020393D01*
X010260Y020893D02*
X010260Y024893D01*
X009760Y025393D01*
X009260Y024893D02*
X009260Y021893D01*
X012260Y020393D02*
X012760Y020393D01*
X014260Y021893D01*
X015260Y021393D02*
X015260Y022393D01*
X015260Y021393D02*
X014260Y020393D01*
X013260Y018393D02*
X013260Y016893D01*
X013760Y016393D01*
X013760Y014649D01*
X009260Y024893D02*
X008760Y025393D01*
X034760Y012393D02*
X035040Y011783D01*
X035760Y024393D02*
X035760Y025893D01*
X036260Y026393D01*
D28*
X030260Y018393D03*
X030760Y017393D03*
M02*
