%
M48
M72
T01C0.0200
T02C0.0240
T03C0.0315
T04C0.0320
T05C0.0394
T06C0.0400
T07C0.0433
T08C0.0440
T09C0.0630
T10C0.1102
T11C0.1770
%
T01
X11260Y14393
X13260Y18393
X15760Y19393
X15260Y22393
X11260Y24393
X15260Y29393
X19760Y22893
X19760Y21393
X19760Y17893
X25760Y16893
X26760Y18893
X29760Y15893
X32760Y17893
X33760Y16893
X33260Y15893
X35760Y14393
X35260Y12893
X39760Y17893
X36760Y18893
X32260Y20393
X29760Y22893
X33260Y26393
X38760Y22893
X23760Y27893
T02
X30260Y18393
X30760Y17393
T03
X28760Y26393
X27760Y26393
X26760Y26393
T04
X26760Y24393
X27760Y24393
X28760Y24393
X29760Y24393
X30760Y24393
X31760Y24393
X32760Y24393
X33760Y24393
X34760Y24393
X35760Y24393
X37760Y24393
X38760Y24393
X39260Y26393
X39260Y28393
X36260Y28393
X36260Y26393
X35760Y21393
X34760Y21393
X33760Y21393
X32760Y21393
X31760Y21393
X30760Y21393
X29760Y21393
X28760Y21393
X27760Y21393
X26760Y21393
X25760Y21393
X24760Y21393
X23760Y21393
X22760Y21393
X22760Y24393
X23760Y24393
X24760Y24393
X25760Y24393
X28760Y19893
X29760Y19893
X30760Y13893
X31760Y13893
X25760Y13893
X22760Y13893
X14260Y17393
X12260Y17393
X12260Y20393
X12260Y21893
X14260Y21893
X14260Y20393
X14260Y24893
X14260Y25893
X12260Y25893
X12260Y24893
X12260Y28893
X14260Y28893
X18760Y26893
X19760Y26893
X37760Y20893
X38760Y20893
T05
X45760Y20893
T06
X8760Y10393
X8760Y11393
X8760Y12393
X8760Y13393
X8760Y15393
X9760Y15393
X9760Y16393
X8760Y16393
X8760Y17393
X9760Y17393
X9760Y19393
X8760Y19393
X8760Y20393
X9760Y20393
X9760Y21393
X8760Y21393
X8760Y23393
X9760Y23393
X9760Y24393
X9760Y25393
X8760Y25393
X8760Y24393
X8760Y27393
X9760Y27393
X9760Y28393
X8760Y28393
X8760Y29393
X9760Y29393
X19161Y28496
X20161Y28496
X21161Y28496
X22161Y28496
X23161Y28496
X24161Y28496
X25161Y28496
X26161Y28496
X27161Y28496
X28161Y28496
X29161Y28496
X30161Y28496
X31161Y28496
X32161Y28496
X33161Y28496
X34161Y28496
X45760Y25893
X45760Y24893
X45760Y23893
X45760Y22893
X45760Y21893
X44760Y13393
X43760Y13393
X42760Y13393
X40040Y11783
X40040Y10003
X37480Y10003
X37480Y11783
X35040Y11783
X35040Y10003
X32480Y10003
X32480Y11783
X30040Y11783
X30040Y10003
X27480Y10003
X27480Y11783
X25040Y11783
X25040Y10003
X22480Y10003
X22480Y11783
X45760Y10893
X45760Y9893
T07
X14744Y14649
X13760Y14649
X12775Y14649
T08
X38760Y15893
X42760Y15893
T09
X15531Y11893
X11988Y11893
T10
X16996Y16291
X16996Y28496
X46523Y28496
X46523Y16291
T11
X39760Y7893
X21760Y7893
X21760Y32393
X39760Y32393
M30
